<?xml version="1.0" encoding="UTF-8" standalone="no"?><!DOCTYPE svg PUBLIC "-//W3C//DTD SVG 1.1//EN" "http://www.w3.org/Graphics/SVG/1.1/DTD/svg11.dtd"><svg width="100%" height="100%" viewBox="0 0 149 111" version="1.1" xmlns="http://www.w3.org/2000/svg" xmlns:xlink="http://www.w3.org/1999/xlink" xml:space="preserve" xmlns:serif="http://www.serif.com/" style="fill-rule:evenodd;clip-rule:evenodd;stroke-miterlimit:10;"><g><g><path d="M34.75,75.112l-3.389,1.484c4.893,11.251 13.918,20.205 25.219,25.008l1.454,-3.399c-10.429,-4.442 -18.761,-12.705 -23.284,-23.093Z" style="fill:#fff;fill-rule:nonzero;"/><path d="M116.173,75.112c-4.473,10.278 -12.675,18.47 -22.953,22.943l1.484,3.389c11.13,-4.843 20.015,-13.728 24.858,-24.858l-3.389,-1.474Z" style="fill:#fff;fill-rule:nonzero;"/><path d="M98.324,15.018l-1.755,3.259c7.611,4.111 13.858,10.358 17.969,17.969l3.259,-1.765c-4.462,-8.243 -11.231,-15.011 -19.473,-19.463Z" style="fill:#fff;fill-rule:nonzero;"/><path d="M52.599,15.018c-8.243,4.452 -15.011,11.22 -19.463,19.463l3.259,1.765c4.111,-7.611 10.358,-13.858 17.969,-17.969l-1.765,-3.259Z" style="fill:#fff;fill-rule:nonzero;"/></g><path d="M75.461,44.398c-7.149,0 -12.945,5.796 -12.945,12.955c0.01,7.15 5.806,12.946 12.945,12.946c7.15,0 12.956,-5.796 12.956,-12.946c0,-7.149 -5.806,-12.955 -12.956,-12.955Zm0,22.201c-5.104,0 -9.255,-4.142 -9.255,-9.256c0.01,-5.104 4.141,-9.245 9.255,-9.255c5.104,0 9.256,4.141 9.256,9.255c0,5.114 -4.152,9.256 -9.256,9.256Z" style="fill:#fff;fill-rule:nonzero;"/><path d="M34.82,51.016c1.143,-1.324 1.775,-3.018 1.785,-4.763c0,-4.091 -3.309,-7.4 -7.4,-7.4c-4.091,0 -7.4,3.309 -7.4,7.4c0.01,1.755 0.642,3.439 1.785,4.763c-2.236,1.314 -3.62,3.73 -3.63,6.337l0,12.946c0,1.023 0.832,1.845 1.845,1.855l14.8,0c1.023,0 1.845,-0.832 1.845,-1.845l0,-12.956c0,-2.607 -1.384,-5.023 -3.63,-6.337Zm-5.605,-8.463c2.046,0 3.7,1.654 3.7,3.7c0,2.046 -1.654,3.7 -3.7,3.7c-2.046,0 -3.7,-1.654 -3.7,-3.7c0,-2.046 1.654,-3.7 3.7,-3.7Zm5.545,25.901l-11.1,0l0,-11.101c0,-2.045 1.654,-3.7 3.7,-3.7l3.7,0c2.046,0 3.7,1.655 3.7,3.7l0,11.101Z" style="fill:#fff;fill-rule:nonzero;"/><path d="M86.391,96.2c-0.792,-4.653 -4.432,-8.293 -9.085,-9.085l0,-2.016l-3.7,0l0,2.016c-4.652,0.792 -8.292,4.432 -9.084,9.085l-2.016,0l0,3.7l2.016,0c0.792,4.652 4.432,8.292 9.084,9.084l0,2.016l3.71,0l0,-2.016c4.653,-0.792 8.293,-4.432 9.085,-9.084l2.016,0l0,-3.7l-2.026,0Zm-3.79,3.7c-0.672,2.587 -2.697,4.612 -5.285,5.284l0,-1.584l-3.7,0l0,1.584c-2.587,-0.672 -4.612,-2.697 -5.284,-5.284l1.584,0l0,-3.7l-1.584,0c0.672,-2.588 2.697,-4.613 5.284,-5.285l0,1.584l3.7,0l0,-1.584c2.588,0.672 4.613,2.697 5.285,5.285l-1.584,0l0,3.7l1.584,0Z" style="fill:#1f9baa;fill-rule:nonzero;"/><path d="M75.09,0.007c-5.846,0.2 -10.528,4.883 -10.729,10.729c0.03,3.871 2.156,7.43 5.555,9.285l0,7.731c0,1.023 0.833,1.846 1.845,1.856l7.401,0c1.022,0 1.845,-0.833 1.845,-1.845l0,-7.732c3.399,-1.855 5.525,-5.414 5.555,-9.285c-0.211,-6.147 -5.345,-10.95 -11.472,-10.739Zm2.226,25.89l-3.71,0l0,-3.7l3.71,0l0,3.7Zm1.124,-8.743c-0.562,0.24 -0.963,0.742 -1.083,1.343l-3.811,0c-0.11,-0.601 -0.521,-1.103 -1.083,-1.343c-2.637,-1.053 -4.372,-3.59 -4.422,-6.428c0.211,-4.091 3.69,-7.23 7.781,-7.019c3.801,0.19 6.829,3.229 7.02,7.019c-0.02,2.838 -1.765,5.375 -4.402,6.428Z" style="fill:#1f9baa;fill-rule:nonzero;"/><rect x="56.961" y="9.252" width="3.7" height="3.7" style="fill:#fff;"/><rect x="90.262" y="9.252" width="3.7" height="3.7" style="fill:#fff;"/><path d="M90.252,0.533l-2.616,2.616l2.616,2.617l2.616,-2.617l-2.616,-2.616Z" style="fill:#fff;"/><path d="M60.656,0.548l-2.616,2.616l2.616,2.617l2.616,-2.617l-2.616,-2.616Z" style="fill:#fff;"/><path d="M60.654,15.88l-2.617,2.617l2.617,2.616l2.616,-2.616l-2.616,-2.617Z" style="fill:#fff;"/><path d="M90.261,15.888l-2.617,2.616l2.617,2.616l2.616,-2.616l-2.616,-2.616Z" style="fill:#fff;"/><path d="M123.563,53.643l-5.545,0c-2.046,0 -3.7,-1.654 -3.7,-3.7c0,-2.045 1.654,-3.7 3.7,-3.7l11.1,0l0,-3.7l-5.555,0l0,-3.7l-3.7,0l0,3.7l-1.855,0c-4.091,0 -7.401,3.309 -7.401,7.4c0,4.091 3.31,7.4 7.401,7.4l5.545,0c2.045,0 3.7,1.655 3.7,3.7c0,2.046 -1.655,3.701 -3.7,3.701l-11.09,0l0,3.7l7.4,0l0,3.7l3.7,0l0,-3.7c4.091,0 7.4,-3.309 7.4,-7.401c0,-4.091 -3.309,-7.4 -7.4,-7.4Z" style="fill:#fff;fill-rule:nonzero;"/><path id="Warstwa_2" d="M93.08,53.693c-0.402,-2.587 -1.384,-4.191 -2.778,-6.297l2.587,-3.389l-4.582,-4.382l-3.109,2.667c-1.875,-1.233 -3.991,-2.126 -6.257,-2.597l-0.471,-4.332l-6.338,0l-0.431,4.342c-2.236,0.461 -4.322,1.344 -6.167,2.557l-3.349,-2.567l-4.382,4.593l2.617,3.058c-1.253,1.885 -2.156,4.021 -2.627,6.317l-4.492,0.452l0,6.347l4.502,0.491c0.481,2.317 1.404,4.472 2.677,6.368l-2.747,3.208l4.382,4.593l3.55,-2.717c1.785,1.153 3.8,1.995 5.946,2.456l0.461,4.593l6.337,0l0.452,-4.553c2.226,-0.441 4.311,-1.303 6.157,-2.486l3.228,2.787l4.583,-4.382l-2.637,-3.449c1.293,-1.905 2.226,-4.081 2.707,-6.418l4.372,-0.471l0,-6.347l-4.191,-0.442Z" style="fill:none;fill-rule:nonzero;stroke:#1f9baa;stroke-width:2.21px;"/></g></svg>