<svg width="243" height="37" viewBox="0 0 243 37" fill="none" xmlns="http://www.w3.org/2000/svg">
<path d="M13.8222 21.1743H6.76645V29.6412H13.8222C16.8914 29.6412 18.352 27.7008 18.352 25.4077C18.352 23.1146 16.8914 21.1743 13.8222 21.1743ZM13.3847 7.17569H6.7594V15.1205H13.3847C16.2564 15.1205 17.8651 13.5188 17.8651 11.1481C17.8651 8.77734 16.2564 7.17569 13.3847 7.17569ZM14.5066 35.6597H0V1.15715H13.921C20.6945 1.15715 24.6386 4.93902 24.6386 10.8517C24.6494 12.3186 24.2553 13.76 23.4997 15.0173C22.744 16.2747 21.6562 17.2991 20.3558 17.978C22.4725 18.9447 25.1255 21.1249 25.1255 25.7393C25.1255 32.1812 20.6945 35.6738 14.5419 35.6738L14.5066 35.6597ZM91.139 35.9561C85.8825 35.9561 81.8819 34.8412 78.4739 31.4051L82.8556 27.0446C85.0499 29.2249 88.0133 29.9516 91.2307 29.9516C95.2243 29.9516 97.3692 28.4487 97.3692 25.7182C97.4022 25.1851 97.3232 24.651 97.1373 24.1504C96.9514 23.6497 96.6627 23.1935 96.2897 22.8112C95.5841 22.1832 94.8291 21.8375 93.2204 21.6047L89.0293 21.0191C86.0589 20.5816 83.8645 19.6643 82.3123 18.1615C80.6542 16.5175 79.8286 14.2808 79.8286 11.3809C79.8286 5.2283 84.4078 0.910194 91.9081 0.910194C96.6848 0.910194 100.135 2.0744 103.113 4.93903L98.8227 9.17247C96.6354 7.05575 94.0036 6.79468 91.7105 6.79468C88.105 6.79468 86.3552 8.77735 86.3552 11.1551C86.3455 11.6152 86.4314 12.0722 86.6075 12.4973C86.7836 12.9224 87.0461 13.3063 87.3783 13.6246C88.2918 14.3867 89.4122 14.8585 90.5957 14.9793L94.688 15.565C97.8561 16.0024 99.8458 16.8703 101.306 18.232C103.155 19.9748 103.987 22.4655 103.987 25.5488C103.987 32.2306 98.3852 36.0125 91.1319 36.0125L91.139 35.9561ZM124.033 35.9561C118.769 35.9561 114.783 34.8412 111.368 31.4051L115.756 27.0446C117.944 29.2249 120.914 29.9516 124.132 29.9516C128.125 29.9516 130.263 28.4487 130.263 25.7182C130.298 25.1855 130.22 24.6515 130.036 24.1507C129.851 23.65 129.563 23.1936 129.191 22.8112C128.485 22.1832 127.73 21.8375 126.128 21.6047L121.937 21.0191C118.967 20.5816 116.78 19.6643 115.22 18.1615C113.562 16.5175 112.737 14.2808 112.737 11.3809C112.737 5.2283 117.316 0.910194 124.816 0.910194C129.586 0.910194 133.05 2.0744 136.021 4.93903L131.731 9.17247C129.536 7.05575 126.912 6.79468 124.618 6.79468C121.013 6.79468 119.263 8.77735 119.263 11.1551C119.253 11.6152 119.339 12.0724 119.515 12.4975C119.691 12.9227 119.954 13.3065 120.286 13.6246C121.2 14.3871 122.32 14.8589 123.504 14.9793L127.596 15.565C130.764 16.0024 132.761 16.8703 134.221 18.232C136.077 19.9748 136.895 22.4655 136.895 25.5488C136.895 32.2306 131.293 36.0125 124.04 36.0125L124.033 35.9561ZM158.281 11.3386L153.893 23.8837H162.515L158.281 11.3386ZM166.396 35.6597L164.349 29.5565H152.023L149.906 35.6597H142.851L155.459 1.1642H160.772L173.451 35.6597H166.396ZM194.971 7.17569H188.621V16.2917H194.971C197.942 16.2917 199.91 14.4008 199.91 11.7337C199.91 9.06663 197.963 7.17569 194.971 7.17569ZM200.249 35.6597L193.475 21.901H188.621V35.6597H181.855V1.15715H195.437C202.493 1.15715 206.684 5.96211 206.684 11.7408C206.737 13.7323 206.149 15.6882 205.005 17.3196C203.862 18.9509 202.224 20.1713 200.334 20.8003L208.095 35.6809H200.249V35.6597ZM234.66 9.30652C233.496 7.89537 231.929 7.1898 229.594 7.1898H224.478V29.6764H229.594C231.929 29.6764 233.489 28.9709 234.66 27.5597C235.923 26.0145 236.12 23.538 236.12 18.3097C236.12 13.0813 235.923 10.8941 234.66 9.3418V9.30652ZM239.387 32.407C237.101 34.686 233.834 35.702 230.215 35.702H217.712V1.19948H230.25C233.855 1.19948 237.115 2.22256 239.422 4.49451C243.317 8.36811 242.95 13.1166 242.95 18.3097C242.95 23.5027 243.338 28.5264 239.422 32.4211" fill="#007AC3"/>
<path d="M58.9578 8.29755L63.3394 3.40792C59.8245 0.92591 55.558 -0.261124 51.2663 0.0489176C46.9746 0.358959 42.9231 2.14691 39.8014 5.10836L44.6911 9.44058C46.6345 7.75035 49.068 6.72681 51.6353 6.51985C54.2026 6.31289 56.7687 6.93341 58.9578 8.2905" fill="#A1C8EA"/>
<path d="M62.4362 25.189L67.3259 29.5283C69.9312 26.1202 71.2598 21.9068 71.0806 17.6206C70.9015 13.3345 69.2259 9.24669 66.3451 6.06793L61.9635 10.9646C63.5679 12.9676 64.4814 15.4358 64.5679 18.0006C64.6544 20.5655 63.9091 23.0895 62.4433 25.196" fill="#46A8DE"/>
<path d="M44.6275 27.2916C42.5932 25.4903 41.2378 23.0461 40.7871 20.3666C40.3365 17.687 40.8178 14.9339 42.151 12.5663L37.212 8.18466C34.7283 11.8764 33.671 16.3449 34.2369 20.7582C34.8029 25.1714 36.9535 29.2286 40.2883 32.1742C43.6267 35.1212 47.9116 36.7726 52.3643 36.8282C56.817 36.8839 61.1419 35.3402 64.553 32.4776L59.6139 28.096C57.3975 29.6825 54.7085 30.4703 51.9863 30.3306C49.2642 30.1909 46.6699 29.132 44.6275 27.3269" fill="#007AC3"/>
</svg>
