<?xml version="1.0" encoding="UTF-8" standalone="no"?><!DOCTYPE svg PUBLIC "-//W3C//DTD SVG 1.1//EN" "http://www.w3.org/Graphics/SVG/1.1/DTD/svg11.dtd"><svg width="100%" height="100%" viewBox="0 0 149 111" version="1.1" xmlns="http://www.w3.org/2000/svg" xmlns:xlink="http://www.w3.org/1999/xlink" xml:space="preserve" xmlns:serif="http://www.serif.com/" style="fill-rule:evenodd;clip-rule:evenodd;stroke-linejoin:round;stroke-miterlimit:2;"><circle cx="72.168" cy="55.406" r="55.406" style="fill:#fff;fill-opacity:0;"/><path d="M128.908,94.923l-108.816,0c-5.075,0 -9.15,-4.077 -9.15,-9.152l0,-76.621c0,-5.073 4.075,-9.15 9.15,-9.15l108.816,0c5.075,0 9.15,4.077 9.15,9.15l0,76.538c0,5.158 -4.075,9.235 -9.15,9.235Zm-108.816,-92.511c-3.744,0 -6.739,2.996 -6.739,6.738l0,76.538c0,3.744 2.995,6.739 6.739,6.739l108.816,0c3.744,0 6.739,-2.995 6.739,-6.739l0,-76.538c0,-3.742 -2.995,-6.738 -6.739,-6.738l-108.816,0Z" style="fill:#fff;fill-rule:nonzero;"/><rect x="12.188" y="74.124" width="124.705" height="2.412" style="fill:#fff;"/><path d="M65.916,93.127l-4.446,16.12l2.325,0.641l4.447,-16.12l-2.326,-0.641Z" style="fill:#fff;"/><path d="M85.149,109.897l-4.41,-16.057l2.33,-0.665l4.408,16.139l-2.328,0.583Z" style="fill:#fff;fill-rule:nonzero;"/><rect x="55.282" y="108.4" width="38.434" height="2.412" style="fill:#fff;"/><path d="M34.983,12.645l-12.312,0c-0.5,0 -0.915,-0.416 -0.915,-0.916l0,-0.498c0,-0.5 0.415,-0.915 0.915,-0.915l12.397,0c0.498,0 0.913,0.415 0.913,0.915l0,0.498c0,0.5 -0.415,0.916 -0.998,0.916Z" style="fill:#1f9baa;fill-rule:nonzero;"/><path d="M42.554,19.883l-19.716,0c-0.582,0 -1.165,-0.5 -1.165,-1.165l0,-0.165c0,-0.583 0.498,-1.166 1.165,-1.166l19.716,0c0.583,0 1.164,0.498 1.164,1.166l0,0.165c-0.083,0.665 -0.581,1.165 -1.164,1.165Z" style="fill:#fff;fill-rule:nonzero;"/><path d="M54.534,27.12l-31.78,0c-0.583,0 -1.081,-0.498 -1.081,-1.081l0,-0.25c0,-0.582 0.498,-1.08 1.081,-1.08l31.697,0c0.583,0 1.081,0.498 1.081,1.08l0,0.333c0,0.583 -0.415,0.998 -0.998,0.998Z" style="fill:#1f9baa;fill-rule:nonzero;"/><path d="M64.6,34.359l-41.929,0c-0.583,0 -0.998,-0.417 -0.998,-0.998l0,-0.417c0,-0.583 0.415,-0.998 0.998,-0.998l41.929,0c0.582,0 0.998,0.415 0.998,0.998l0,0.417c0,0.581 -0.416,0.998 -0.998,0.998Z" style="fill:#fff;fill-rule:nonzero;"/><path d="M45.466,60.897l-22.545,0c-0.665,0 -1.165,0.5 -1.165,1.165c0,0.665 0.5,1.164 1.165,1.164l22.545,0c0.666,0 1.164,-0.499 1.164,-1.164c0.084,-0.665 -0.498,-1.165 -1.164,-1.165Z" style="fill:#fff;fill-rule:nonzero;"/><path d="M62.438,53.66l-39.517,0c-0.665,0 -1.165,0.498 -1.165,1.163c0,0.666 0.5,1.166 1.165,1.166l39.517,0c0.665,0 1.164,-0.5 1.164,-1.166c0,-0.665 -0.499,-1.163 -1.164,-1.163Z" style="fill:#1f9baa;fill-rule:nonzero;"/><path d="M73.752,46.256l-50.914,0c-0.582,0 -1.082,0.498 -1.082,1.08l0,0.25c0,0.583 0.5,1.081 1.082,1.081l50.914,0c0.581,0 1.081,-0.498 1.081,-1.081l0,-0.25c0,-0.582 -0.5,-1.08 -1.081,-1.08Z" style="fill:#fff;fill-rule:nonzero;"/><path d="M40.641,41.513l-17.803,0c-0.582,0 -1.082,-0.5 -1.082,-1.082l0,-0.166c0,-0.583 0.5,-1.081 1.082,-1.081l17.803,0c0.583,0 1.081,0.498 1.081,1.081l0,0.166c0,0.582 -0.498,1.082 -1.081,1.082Z" style="fill:#fff;fill-rule:nonzero;"/><path d="M62.438,19.883l-13.977,0c-0.666,0 -1.164,-0.5 -1.164,-1.165c0,-0.665 0.498,-1.165 1.164,-1.165l13.892,0c0.666,0 1.166,0.5 1.166,1.165c0.083,0.665 -0.416,1.165 -1.081,1.165Z" style="fill:#fff;fill-rule:nonzero;"/><path d="M56.946,41.513l-9.816,0c-0.583,0 -0.998,-0.5 -0.998,-0.998l0,-0.333c0,-0.582 0.498,-0.998 0.998,-0.998l9.816,0c0.582,0 0.999,0.498 0.999,0.998l0,0.333c0,0.498 -0.417,0.998 -0.999,0.998Z" style="fill:#fff;fill-rule:nonzero;"/><path d="M68.509,27.12l-6.904,0c-0.5,0 -0.832,-0.415 -0.832,-0.831l0,-0.667c0,-0.498 0.417,-0.831 0.832,-0.831l6.904,0c0.5,0 0.833,0.416 0.833,0.831l0,0.667c0.083,0.499 -0.333,0.831 -0.833,0.831Z" style="fill:#fff;fill-rule:nonzero;"/><path d="M82.487,55.989l-13.978,0c-0.665,0 -1.163,-0.5 -1.163,-1.166c0,-0.665 0.498,-1.163 1.163,-1.163l13.895,0c0.665,0 1.164,0.498 1.164,1.163c0.082,0.666 -0.416,1.166 -1.081,1.166Z" style="fill:#fff;fill-rule:nonzero;"/><path d="M85.066,48.667l-6.906,0c-0.498,0 -0.831,-0.415 -0.831,-0.832l0,-0.666c0,-0.498 0.415,-0.831 0.831,-0.831l6.906,0c0.498,0 0.831,0.416 0.831,0.831l0,0.666c0.084,0.417 -0.333,0.832 -0.831,0.832Z" style="fill:#fff;fill-rule:nonzero;"/><path d="M57.778,63.226l-6.904,0c-0.5,0 -0.833,-0.416 -0.833,-0.831l0,-0.666c0,-0.5 0.416,-0.832 0.833,-0.832l6.904,0c0.5,0 0.833,0.415 0.833,0.832l0,0.666c0,0.498 -0.417,0.831 -0.833,0.831Z" style="fill:#fff;fill-rule:nonzero;"/><path d="M87.229,34.359l-18.054,0c-0.666,0 -1.164,-0.5 -1.164,-1.165c0,-0.666 0.498,-1.166 1.164,-1.166l18.054,0c0.666,0 1.164,0.5 1.164,1.166c0,0.665 -0.498,1.165 -1.164,1.165Z" style="fill:#fff;fill-rule:nonzero;"/><path d="M76.414,19.883l-6.906,0c-0.499,0 -0.831,-0.417 -0.831,-0.832l0,-0.666c0,-0.5 0.415,-0.832 0.831,-0.832l6.906,0c0.498,0 0.832,0.417 0.832,0.832l0,0.666c0.083,0.415 -0.334,0.832 -0.832,0.832Z" style="fill:#1f9baa;fill-rule:nonzero;"/><path d="M87.229,27.12l-13.977,0c-0.666,0 -1.164,-0.498 -1.164,-1.163c0,-0.667 0.498,-1.166 1.164,-1.166l13.977,0c0.666,0 1.164,0.499 1.164,1.166c0,0.665 -0.498,1.163 -1.164,1.163Z" style="fill:#fff;fill-rule:nonzero;"/><path d="M70.09,41.513l-6.904,0c-0.5,0 -0.833,-0.415 -0.833,-0.833l0,-0.665c0,-0.498 0.418,-0.831 0.833,-0.831l6.904,0c0.5,0 0.833,0.416 0.833,0.831l0,0.665c0.083,0.418 -0.333,0.833 -0.833,0.833Z" style="fill:#1f9baa;fill-rule:nonzero;"/><path d="M81.071,63.226l-17.968,0c-0.665,0 -1.165,-0.499 -1.165,-1.164c0,-0.665 0.5,-1.165 1.165,-1.165l17.968,0c0.666,0 1.166,0.5 1.166,1.165c0.083,0.665 -0.5,1.164 -1.166,1.164Z" style="fill:#1f9baa;fill-rule:nonzero;"/><path d="M47.13,12.645l-6.904,0c-0.5,0 -0.833,-0.416 -0.833,-0.831l0,-0.666c0,-0.499 0.415,-0.832 0.833,-0.832l6.904,0c0.5,0 0.832,0.415 0.832,0.832l0,0.666c0,0.415 -0.332,0.831 -0.832,0.831Z" style="fill:#fff;fill-rule:nonzero;"/></svg>