<?xml version="1.0" encoding="UTF-8" standalone="no"?><!DOCTYPE svg PUBLIC "-//W3C//DTD SVG 1.1//EN" "http://www.w3.org/Graphics/SVG/1.1/DTD/svg11.dtd"><svg width="100%" height="100%" viewBox="0 0 1080 1513" version="1.1" xmlns="http://www.w3.org/2000/svg" xmlns:xlink="http://www.w3.org/1999/xlink" xml:space="preserve" xmlns:serif="http://www.serif.com/" style="fill-rule:evenodd;clip-rule:evenodd;stroke-linejoin:round;stroke-miterlimit:2;"><path id="_8" serif:id="8" d="M-0,338.359c-0,-0 99.814,-106.255 198.72,-97.139c71.082,6.552 94.743,14.411 136.91,37.966c92.51,51.675 141.401,63.066 186.55,19.202c84.881,-82.464 266.507,-164.379 309.42,-145.476c165.084,72.718 -56.618,274.528 4.86,309.543c40.475,23.052 68.269,0.8 88.208,49.858c19.598,48.219 -0.697,125.527 -20.708,179.277c-23.616,63.435 -51.011,114.605 -33.337,171.968c16.551,53.72 37.33,44.783 76.453,131.778c80.864,179.811 132.924,517.053 132.924,517.053l-0,-1511.46l-1080,-0l-0,337.429Z" style="fill:#006495;"/></svg>