<?xml version="1.0" encoding="UTF-8" standalone="no"?><!DOCTYPE svg PUBLIC "-//W3C//DTD SVG 1.1//EN" "http://www.w3.org/Graphics/SVG/1.1/DTD/svg11.dtd"><svg width="100%" height="100%" viewBox="0 0 1080 1445" version="1.1" xmlns="http://www.w3.org/2000/svg" xmlns:xlink="http://www.w3.org/1999/xlink" xml:space="preserve" xmlns:serif="http://www.serif.com/" style="fill-rule:evenodd;clip-rule:evenodd;stroke-linejoin:round;stroke-miterlimit:2;"><path id="_9" serif:id="9" d="M-0,293.984c-0,-0 133.834,-100.457 232.74,-91.341c71.082,6.552 118.374,37.26 167.15,47.726c113.03,24.254 183.445,-50.331 236.77,-86.767c98.921,-67.591 172.007,-57.479 214.92,-38.577c165.084,72.718 -25.838,264.768 35.64,299.783c40.475,23.052 64.489,52.855 84.428,101.913c19.598,48.219 -17.437,141.795 -37.448,195.545c-23.616,63.435 -30.14,90.167 -17.677,153.377c8.064,40.9 32.014,54.298 71.137,141.292c80.864,179.812 92.34,427.132 92.34,427.132l-0,-1443.14l-1080,-0l0,293.054Z" style="fill:#006da0;"/></svg>