<?xml version="1.0" encoding="utf-8"?>
<!-- Generator: Adobe Illustrator 22.0.0, SVG Export Plug-In . SVG Version: 6.00 Build 0)  -->
<svg version="1.1" id="Warstwa_1" xmlns="http://www.w3.org/2000/svg" xmlns:xlink="http://www.w3.org/1999/xlink" x="0px" y="0px"
	 viewBox="0 0 308 308" style="enable-background:new 0 0 308 308;" xml:space="preserve">
<style type="text/css">
	.st0{fill:#132142;}
	.st1{fill:none;stroke:#000000;stroke-width:10;stroke-miterlimit:10;}
	.st2{fill:none;stroke:#000000;stroke-width:8;stroke-miterlimit:10;}
	.st3{display:none;fill:#FFFFFF;}
	.st4{fill:url(#SVGID_1_);}
	.st5{fill:url(#SVGID_2_);}
	.st6{fill:none;stroke:url(#SVGID_3_);stroke-width:7;stroke-miterlimit:10;}
	.st7{opacity:0.43;fill:none;stroke:#132142;stroke-width:7;stroke-miterlimit:10;}
	.st8{fill:none;stroke:#000000;stroke-width:8;stroke-linecap:round;stroke-miterlimit:10;}
	.st9{fill:none;stroke:#FFFFFF;stroke-width:8;stroke-miterlimit:10;}
	.st10{fill:none;stroke:#FFFFFF;stroke-width:5;stroke-miterlimit:10;}
	.st11{stroke:#000000;stroke-miterlimit:10;}
	.st12{fill:none;stroke:#000000;stroke-width:7;stroke-miterlimit:10;}
	.st13{stroke:#000000;stroke-width:3;stroke-miterlimit:10;}
</style>
<path d="M241.1,58.9C215.9,40,185.9,30,154.4,30S92.9,40,67.7,58.9c-1.6,1.2-2.6,3-2.9,5c-0.3,2,0.2,4,1.4,5.6l39.7,52.8
	c1.5,2,3.7,3,6,3c1.6,0,3.2-0.5,4.5-1.5c11-8.3,24.2-12.7,38-12.7c13.8,0,26.9,4.4,38,12.7c3.3,2.5,8,1.8,10.5-1.5l39.7-52.8
	c1.2-1.6,1.7-3.6,1.4-5.6C243.7,61.9,242.7,60.1,241.1,58.9z M197.7,115.8c-10.9-6.7-23-10.7-35.7-11.9V72.1c0-4.5-3.6-8.1-8.1-8.1
	c-4.5,0-8.1,3.6-8.1,8.1v31.8c-12.7,1.2-24.8,5.2-35.7,11.9l-33-51.1c22.8-15.1,49-24.5,76.6-24.5s54,9.3,76.8,24.5L197.7,115.8z"/>
<g>
	<path class="st0" d="M80.2,188.2c1.6,0.3,3,0.7,4.4,1.4c1.3,0.7,2.5,1.6,3.4,2.6c0.9,1,1.7,2.3,2.2,3.6c0.5,1.4,0.8,2.8,0.8,4.4
		c0,2.1-0.5,4-1.5,5.7c-1,1.7-2.4,3.1-4.2,4.3c-1.8,1.2-4,2.1-6.6,2.7c-2.6,0.6-5.4,1-8.6,1c-7.8,0-13.9-2-18.3-6l6.6-7.6
		c1.4,1.2,3,2.2,4.7,2.8c1.8,0.6,3.9,1,6.3,1c5.8,0,8.7-1.9,8.7-5.6c0-2-0.9-3.5-2.6-4.6c-1.7-1-4.4-1.5-8.1-1.5h-2.3v-7.7h2.5
		c2.9,0,5.1-0.5,6.7-1.5c1.6-1,2.4-2.4,2.4-4.1c0-1.5-0.6-2.6-1.8-3.3c-1.2-0.8-2.7-1.1-4.7-1.1c-2.1,0-4,0.4-5.7,1.3
		c-1.7,0.9-3.2,2.1-4.3,3.7l-7.8-7.8c0.8-0.9,1.9-1.8,3.2-2.6c1.3-0.8,2.8-1.5,4.5-2c1.7-0.6,3.5-1,5.5-1.3c1.9-0.3,3.9-0.5,6-0.5
		c2.7,0,5.2,0.3,7.4,0.8c2.3,0.6,4.2,1.4,5.8,2.4c1.6,1,2.8,2.3,3.7,3.7c0.9,1.5,1.3,3.1,1.3,4.9c0,1.3-0.2,2.6-0.7,3.8
		s-1.2,2.3-2,3.3c-0.9,1-1.9,1.8-3.1,2.4C83,187.5,81.6,188,80.2,188.2z"/>
	<path class="st0" d="M117.6,174.7h-23V165H137l-26.9,47.5H96.2L117.6,174.7z"/>
	<path class="st0" d="M193.6,204.1l-12.1-14.1l-5,3.9v10.2h-14.2v-48.9h14.2v28.3l15.7-14.6h15.1L190.5,184l18.2,20H193.6z"/>
	<path class="st0" d="M228.6,204.2c-3.1,0-5.9-0.5-8.4-1.4c-2.5-0.9-4.7-2.2-6.5-3.8c-1.8-1.6-3.2-3.5-4.2-5.6
		c-1-2.1-1.5-4.4-1.5-6.9c0-2.6,0.5-5,1.6-7.2c1.1-2.2,2.5-4.1,4.4-5.8c1.9-1.6,4.2-2.9,6.8-3.8s5.6-1.4,8.8-1.4
		c3.5,0,6.6,0.6,9.3,1.7c2.6,1.1,4.7,2.7,6.3,4.7v-5.8h12.3v32.7c0,2.7-0.7,5.1-2,7.2c-1.3,2.1-3.2,4-5.5,5.5
		c-2.4,1.5-5.2,2.6-8.5,3.4c-3.3,0.8-6.9,1.2-10.9,1.2c-5,0-9.3-0.6-12.8-1.8c-3.5-1.2-6.6-2.9-9.3-5.2l7.6-5.8
		c1.7,1.5,3.8,2.6,6.4,3.5c2.5,0.9,5.3,1.3,8.2,1.3c1.7,0,3.3-0.2,4.9-0.5c1.5-0.4,2.9-0.9,4.1-1.6s2.1-1.7,2.8-2.9
		c0.7-1.2,1-2.6,1-4.3v-3.4c-1.4,2-3.5,3.4-6.1,4.5S231.7,204.2,228.6,204.2z M233.5,195.7c2.2,0,4.1-0.5,5.8-1.4
		c1.7-0.9,3-2.1,4-3.5v-7.4c-0.9-1.9-2.4-3.4-4.3-4.5s-4-1.6-6.2-1.6c-1.5,0-2.9,0.3-4.2,0.8c-1.3,0.5-2.4,1.2-3.3,2.1
		c-0.9,0.9-1.6,1.9-2.1,3c-0.5,1.1-0.8,2.3-0.8,3.5c0,1.3,0.3,2.5,0.8,3.6c0.6,1.1,1.3,2,2.3,2.8c1,0.8,2.2,1.4,3.5,1.9
		C230.4,195.5,231.9,195.7,233.5,195.7z"/>
</g>
<path class="st1" d="M271.3,303H36.7C19.2,303,5,288.8,5,271.3V36.7C5,19.2,19.2,5,36.7,5h234.6C288.8,5,303,19.2,303,36.7v234.6
	C303,288.8,288.8,303,271.3,303z"/>
</svg>
