<?xml version="1.0" encoding="UTF-8" standalone="no"?><!DOCTYPE svg PUBLIC "-//W3C//DTD SVG 1.1//EN" "http://www.w3.org/Graphics/SVG/1.1/DTD/svg11.dtd"><svg width="100%" height="100%" viewBox="0 0 2000 4500" version="1.1" xmlns="http://www.w3.org/2000/svg" xmlns:xlink="http://www.w3.org/1999/xlink" xml:space="preserve" xmlns:serif="http://www.serif.com/" style="fill-rule:evenodd;clip-rule:evenodd;stroke-linejoin:round;stroke-miterlimit:2;"><g><path id="_2" serif:id="2" d="M0,1543c0,0 191.841,-275.614 375,-256c131.633,14.096 165.601,178.913 166.538,278.686c1.036,110.359 83.813,215.465 210.462,227.314c134.931,12.623 270.833,-114.667 276,-221c2.684,-55.248 -35.664,-103.415 -38,-143c-6,-101.667 28.344,-563.463 117,-553c54.712,6.457 48.955,468.673 50,598c0.829,102.635 19.962,174.635 81,188c50.018,10.952 73.076,-52.552 169,-34c107.912,20.87 142.057,311.353 105,427c-43.734,136.484 -118.079,217 -38,452c28.79,84.488 134.55,123.826 207,311c149.748,386.875 319,1313 319,1313l0,-4131l-2000,0l0,1543Z" style="fill:#122849;fill-opacity:0.2;"/></g></svg>