<?xml version="1.0" encoding="UTF-8" standalone="no"?><!DOCTYPE svg PUBLIC "-//W3C//DTD SVG 1.1//EN" "http://www.w3.org/Graphics/SVG/1.1/DTD/svg11.dtd"><svg width="100%" height="100%" viewBox="0 0 1080 1920" version="1.1" xmlns="http://www.w3.org/2000/svg" xmlns:xlink="http://www.w3.org/1999/xlink" xml:space="preserve" xmlns:serif="http://www.serif.com/" style="fill-rule:evenodd;clip-rule:evenodd;stroke-linejoin:round;stroke-miterlimit:2;"><path id="_1" serif:id="1" d="M-0,717.153c-0,0 103.594,-128.099 202.5,-118.983c71.082,6.552 89.425,83.155 89.93,129.527c0.56,51.292 45.26,100.144 113.65,105.651c72.863,5.867 146.25,-53.295 149.04,-102.716c1.45,-25.678 -19.258,-48.065 -20.52,-66.464c-3.24,-47.252 15.306,-261.885 63.18,-257.022c29.544,3.001 26.436,217.829 27,277.938c0.448,47.702 10.78,81.166 43.74,87.378c27.01,5.09 39.461,-24.425 91.26,-15.803c58.272,9.7 76.711,144.711 56.7,198.461c-23.616,63.435 -63.763,100.857 -20.52,210.08c15.547,39.268 72.657,57.552 111.78,144.546c80.864,179.811 172.26,610.254 172.26,610.254l-0,-1920l-1080,0l-0,717.153Z" style="fill:#00244c;"/></svg>