<?xml version="1.0" encoding="UTF-8" standalone="no"?><!DOCTYPE svg PUBLIC "-//W3C//DTD SVG 1.1//EN" "http://www.w3.org/Graphics/SVG/1.1/DTD/svg11.dtd"><svg width="100%" height="100%" viewBox="0 0 2000 4500" version="1.1" xmlns="http://www.w3.org/2000/svg" xmlns:xlink="http://www.w3.org/1999/xlink" xml:space="preserve" xmlns:serif="http://www.serif.com/" style="fill-rule:evenodd;clip-rule:evenodd;stroke-linejoin:round;stroke-miterlimit:2;"><g><path id="_11" serif:id="11" d="M0,543.068c0,0 235.841,-240.682 419,-221.068c131.633,14.096 270.455,56.957 363.538,55.686c206.313,-2.818 251.852,-25.31 335.462,-119.686c157.187,-177.426 471.531,-99.671 551,-59c305.712,156.457 -72.196,566.207 27,660c79.954,75.599 131.423,13.722 147.347,82.273c24.87,107.061 10.71,464.08 -26.347,579.727c-43.734,136.484 -110.815,192.5 -30.735,427.5c28.79,84.488 81.849,82.402 119.735,279.5c74.748,388.875 94,465.907 94,465.907l0,-1984.7l0,-707.209l-2000,0l0,541.068Z" style="fill:#0070b4;fill-opacity:0.2;"/></g></svg>