<?xml version="1.0" encoding="UTF-8" standalone="no"?><!DOCTYPE svg PUBLIC "-//W3C//DTD SVG 1.1//EN" "http://www.w3.org/Graphics/SVG/1.1/DTD/svg11.dtd"><svg width="100%" height="100%" viewBox="0 0 1080 1187" version="1.1" xmlns="http://www.w3.org/2000/svg" xmlns:xlink="http://www.w3.org/1999/xlink" xml:space="preserve" xmlns:serif="http://www.serif.com/" style="fill-rule:evenodd;clip-rule:evenodd;stroke-linejoin:round;stroke-miterlimit:2;"><path id="_10" serif:id="10" d="M-0,205.464c-0,-0 138.694,-113.723 237.6,-104.607c71.082,6.552 177.366,27.402 227.63,26.811c111.41,-1.309 161.354,-13.125 223.27,-37.501c116.201,-45.746 205.487,-35.635 248.4,-16.732c165.084,72.718 -47.086,258.048 6.48,301.641c43.175,35.137 52.474,-36.298 81.728,56.366c34.603,109.61 3.719,241.863 -17.468,291.056c-26.901,62.459 -41.48,67.393 -24.697,121.772c12.374,40.095 57.031,68.848 69.517,161.511c15.524,115.207 27.54,180.755 27.54,180.755l-0,-1185.61l-1080,-0l-0,204.534Z" style="fill:#0076aa;"/></svg>