<?xml version="1.0" encoding="UTF-8" standalone="no"?><!DOCTYPE svg PUBLIC "-//W3C//DTD SVG 1.1//EN" "http://www.w3.org/Graphics/SVG/1.1/DTD/svg11.dtd"><svg width="100%" height="100%" viewBox="0 0 2000 4500" version="1.1" xmlns="http://www.w3.org/2000/svg" xmlns:xlink="http://www.w3.org/1999/xlink" xml:space="preserve" xmlns:serif="http://www.serif.com/" style="fill-rule:evenodd;clip-rule:evenodd;stroke-linejoin:round;stroke-miterlimit:2;"><g><path id="_13" serif:id="13" d="M0,442.068c0,0 256.841,-244.682 440,-225.068c131.633,14.096 328.455,58.957 421.538,57.686c206.313,-2.818 298.802,-28.241 413.462,-80.686c215.187,-98.426 380.531,-76.671 460,-36c305.712,156.457 -87.196,555.207 12,649c79.954,75.599 97.174,-78.097 151.347,121.273c64.082,235.834 6.889,520.386 -32.347,626.227c-49.817,134.383 -76.815,145 -45.735,262c22.915,86.267 105.612,148.13 128.735,347.5c28.748,247.875 51,388.907 51,388.907l0,-1843.7l0,-707.209l-2000,0l0,440.068Z" style="fill:#1a7196;fill-opacity:0.2;"/></g></svg>