<?xml version="1.0" encoding="UTF-8" standalone="no"?><!DOCTYPE svg PUBLIC "-//W3C//DTD SVG 1.1//EN" "http://www.w3.org/Graphics/SVG/1.1/DTD/svg11.dtd"><svg width="100%" height="100%" viewBox="0 0 1080 1863" version="1.1" xmlns="http://www.w3.org/2000/svg" xmlns:xlink="http://www.w3.org/1999/xlink" xml:space="preserve" xmlns:serif="http://www.serif.com/" style="fill-rule:evenodd;clip-rule:evenodd;stroke-linejoin:round;stroke-miterlimit:2;"><path id="_2" serif:id="2" d="M-0,659.985c-0,0 141.934,-111.367 240.84,-102.251c71.082,6.552 58.105,54.804 58.61,101.176c0.56,51.292 38.24,111.763 106.63,117.27c72.863,5.867 146.25,-53.295 149.04,-102.716c1.45,-25.678 0.182,-62.473 -1.08,-80.871c-3.24,-47.253 66.11,-271.942 76.68,-231.46c18.744,71.788 18.876,203.421 12.42,248.192c-6.826,47.341 -7.58,99.757 25.38,105.969c27.01,5.09 39.461,-24.425 91.26,-15.802c58.272,9.7 84.497,146.897 64.486,200.647c-23.616,63.434 -45.089,97.741 -1.846,206.963c15.547,39.268 52.677,62.665 91.8,149.659c80.864,179.811 165.78,606.071 165.78,606.071l-0,-1862.83l-1080,0l-0,659.985Z" style="fill:#002d57;"/></svg>