<?xml version="1.0" encoding="UTF-8" standalone="no"?><!DOCTYPE svg PUBLIC "-//W3C//DTD SVG 1.1//EN" "http://www.w3.org/Graphics/SVG/1.1/DTD/svg11.dtd"><svg width="100%" height="100%" viewBox="0 0 2000 4500" version="1.1" xmlns="http://www.w3.org/2000/svg" xmlns:xlink="http://www.w3.org/1999/xlink" xml:space="preserve" xmlns:serif="http://www.serif.com/" style="fill-rule:evenodd;clip-rule:evenodd;stroke-linejoin:round;stroke-miterlimit:2;"><g><path id="_3" serif:id="3" d="M0,1420c0,0 262.841,-239.614 446,-220c131.633,14.096 107.601,117.913 108.538,217.686c1.036,110.359 70.813,240.465 197.462,252.314c134.931,12.623 270.833,-114.667 276,-221c2.684,-55.248 0.336,-134.415 -2,-174c-6,-101.667 122.426,-585.099 142,-498c34.712,154.457 34.955,437.673 23,534c-12.641,101.857 -14.038,214.635 47,228c50.018,10.952 73.076,-52.552 169,-34c107.912,20.87 156.476,316.058 119.419,431.704c-43.734,136.485 -83.498,210.296 -3.419,445.296c28.79,84.488 97.55,134.826 170,322c149.748,386.875 307,1304 307,1304l0,-4008l-2000,0l0,1420Z" style="fill:#12304f;fill-opacity:0.2;"/></g></svg>