<?xml version="1.0" encoding="UTF-8" standalone="no"?><!DOCTYPE svg PUBLIC "-//W3C//DTD SVG 1.1//EN" "http://www.w3.org/Graphics/SVG/1.1/DTD/svg11.dtd"><svg width="100%" height="100%" viewBox="0 0 2000 4500" version="1.1" xmlns="http://www.w3.org/2000/svg" xmlns:xlink="http://www.w3.org/1999/xlink" xml:space="preserve" xmlns:serif="http://www.serif.com/" style="fill-rule:evenodd;clip-rule:evenodd;stroke-linejoin:round;stroke-miterlimit:2;"><g><path id="_4" serif:id="4" d="M0,1309c0,0 294.841,-282.614 478,-263c131.633,14.096 43.601,119.913 44.538,219.686c1.036,110.359 107.813,220.465 234.462,232.314c134.931,12.623 265.391,-86.138 336.179,-371.501c20.409,-82.271 121.808,-384.129 158.779,-302.873c50.712,111.458 44.997,274.047 -0.958,386.374c-38.865,94.996 -50.038,215.635 11,229c50.018,10.952 66.076,-48.552 162,-30c107.912,20.87 125.057,296.353 88,412c-43.734,136.484 -140.119,165.663 -60.04,400.663c28.791,84.488 163.59,177.163 236.04,364.337c149.748,386.875 312,1311 312,1311l0,-3897l-2000,0l0,1309Z" style="fill:#123756;fill-opacity:0.2;"/></g></svg>