<?xml version="1.0" encoding="UTF-8" standalone="no"?><!DOCTYPE svg PUBLIC "-//W3C//DTD SVG 1.1//EN" "http://www.w3.org/Graphics/SVG/1.1/DTD/svg11.dtd"><svg width="100%" height="100%" viewBox="0 0 2000 4500" version="1.1" xmlns="http://www.w3.org/2000/svg" xmlns:xlink="http://www.w3.org/1999/xlink" xml:space="preserve" xmlns:serif="http://www.serif.com/" style="fill-rule:evenodd;clip-rule:evenodd;stroke-linejoin:round;stroke-miterlimit:2;"><g><path id="_5" serif:id="5" d="M0,1180c0,0 191.841,-275.614 375,-256c131.633,14.096 164.344,152.975 192.538,248.686c31.036,105.359 57.813,184.465 184.462,196.314c134.931,12.623 270.833,-53.667 276,-160c2.684,-55.248 77.726,-203.391 86.178,-242.133c20,-91.667 60.166,-228.33 148.822,-217.867c54.712,6.457 86.289,110.545 81.334,280.871c-2.985,102.596 -113.356,277.517 -61.334,312.129c45.018,29.952 67.076,-44.552 163,-26c107.912,20.87 103.057,260.353 66,376c-43.734,136.484 -118.079,217 -38,452c28.79,84.488 149.55,108.826 222,296c149.748,386.875 304,1328 304,1328l0,-3768l-2000,0l0,1180Z" style="fill:#8dcdff;fill-opacity:0.02;"/></g></svg>