<?xml version="1.0" encoding="UTF-8" standalone="no"?><!DOCTYPE svg PUBLIC "-//W3C//DTD SVG 1.1//EN" "http://www.w3.org/Graphics/SVG/1.1/DTD/svg11.dtd"><svg width="100%" height="100%" viewBox="0 0 1080 1752" version="1.1" xmlns="http://www.w3.org/2000/svg" xmlns:xlink="http://www.w3.org/1999/xlink" xml:space="preserve" xmlns:serif="http://www.serif.com/" style="fill-rule:evenodd;clip-rule:evenodd;stroke-linejoin:round;stroke-miterlimit:2;"><path id="_4" serif:id="4" d="M-0,548.439c-0,-0 103.594,-128.1 202.5,-118.984c71.082,6.552 88.746,71.1 103.97,115.584c16.76,48.969 31.22,85.736 99.61,91.243c72.863,5.867 146.25,-24.943 149.04,-74.365c1.45,-25.678 41.972,-94.531 46.536,-112.538c10.8,-42.605 32.49,-106.123 80.364,-101.26c29.544,3.001 46.596,51.379 43.92,130.543c-1.611,47.684 -61.212,128.984 -33.12,145.071c24.31,13.921 36.221,-20.707 88.02,-12.084c58.272,9.699 55.651,121.006 35.64,174.756c-23.616,63.435 -63.763,100.857 -20.52,210.08c15.547,39.268 80.757,50.58 119.88,137.575c80.864,179.811 164.16,617.225 164.16,617.225l-0,-1751.29l-1080,0l-0,548.439Z" style="fill:#00406c;"/></svg>