<?xml version="1.0" encoding="UTF-8" standalone="no"?><!DOCTYPE svg PUBLIC "-//W3C//DTD SVG 1.1//EN" "http://www.w3.org/Graphics/SVG/1.1/DTD/svg11.dtd"><svg width="100%" height="100%" viewBox="0 0 2000 4500" version="1.1" xmlns="http://www.w3.org/2000/svg" xmlns:xlink="http://www.w3.org/1999/xlink" xml:space="preserve" xmlns:serif="http://www.serif.com/" style="fill-rule:evenodd;clip-rule:evenodd;stroke-linejoin:round;stroke-miterlimit:2;"><g><path id="_7" serif:id="7" d="M0,962c0,0 191.841,-275.614 375,-256c131.633,14.096 192.601,46.913 228.538,146.686c37.4,103.833 55.813,157.465 182.462,169.314c134.931,12.623 194.183,-64.504 263,-161c151.382,-212.27 306.54,-390.494 360,-319c43.712,58.457 53.567,121.179 48.771,267.482c-9.886,301.567 -141.8,384.796 -65.771,402.518c65.943,15.371 97.076,-43.552 193,-25c107.912,20.87 41.057,252.353 4,368c-43.734,136.484 -65.079,242 -22,364c29.72,84.165 123.55,96.826 196,284c149.748,386.875 237,1248.19 237,1248.19l0,-3451.2l-2000,0l0,962Z" style="fill:#2370a7;fill-opacity:0.16;"/></g></svg>