<?xml version="1.0" encoding="UTF-8" standalone="no"?><!DOCTYPE svg PUBLIC "-//W3C//DTD SVG 1.1//EN" "http://www.w3.org/Graphics/SVG/1.1/DTD/svg11.dtd"><svg width="100%" height="100%" viewBox="0 0 2000 4500" version="1.1" xmlns="http://www.w3.org/2000/svg" xmlns:xlink="http://www.w3.org/1999/xlink" xml:space="preserve" xmlns:serif="http://www.serif.com/" style="fill-rule:evenodd;clip-rule:evenodd;stroke-linejoin:round;stroke-miterlimit:2;"><g><path id="_8" serif:id="8" d="M0,859c0,0 191.841,-275.614 375,-256c131.633,14.096 163.042,36.557 227.538,103.686c168.313,175.182 303.852,132.69 387.462,38.314c157.187,-177.426 395.531,-317.671 475,-277c305.712,156.457 -111.848,575.664 2,651c74.954,49.599 138.423,-70.278 175.347,35.273c36.293,103.747 28.71,211.08 -8.347,326.727c-43.734,136.484 -157.815,168 -77.735,403c28.79,84.488 52.285,62.826 124.735,250c149.748,386.875 319,1313 319,1313l0,-2737.79l0,-707.209l-2000,0l0,857Z" style="fill:#245f8a;fill-opacity:0.2;"/></g></svg>