<?xml version="1.0" encoding="UTF-8" standalone="no"?><!DOCTYPE svg PUBLIC "-//W3C//DTD SVG 1.1//EN" "http://www.w3.org/Graphics/SVG/1.1/DTD/svg11.dtd"><svg width="100%" height="100%" viewBox="0 0 2000 4500" version="1.1" xmlns="http://www.w3.org/2000/svg" xmlns:xlink="http://www.w3.org/1999/xlink" xml:space="preserve" xmlns:serif="http://www.serif.com/" style="fill-rule:evenodd;clip-rule:evenodd;stroke-linejoin:round;stroke-miterlimit:2;"><g><path id="_9" serif:id="9" d="M0,728c0,0 184.841,-228.614 368,-209c131.633,14.096 175.45,31.006 253.538,81.686c171.313,111.182 261.852,135.69 345.462,41.314c157.187,-177.426 493.531,-353.671 573,-313c305.712,156.457 -104.848,590.664 9,666c74.954,49.599 126.423,1.722 163.347,107.273c36.293,103.747 -1.29,270.08 -38.347,385.727c-43.734,136.484 -94.465,246.579 -61.735,370c30.651,115.581 69.13,96.353 141.58,283.527c149.748,386.875 246.155,1112.47 246.155,1112.47l0,-2544.79l0,-707.209l-2000,0l0,726Z" style="fill:#22617f;fill-opacity:0.2;"/></g></svg>