<?xml version="1.0" encoding="UTF-8" standalone="no"?><!DOCTYPE svg PUBLIC "-//W3C//DTD SVG 1.1//EN" "http://www.w3.org/Graphics/SVG/1.1/DTD/svg11.dtd"><svg width="100%" height="100%" viewBox="0 0 2000 4500" version="1.1" xmlns="http://www.w3.org/2000/svg" xmlns:xlink="http://www.w3.org/1999/xlink" xml:space="preserve" xmlns:serif="http://www.serif.com/" style="fill-rule:evenodd;clip-rule:evenodd;stroke-linejoin:round;stroke-miterlimit:2;"><g><path id="_10" serif:id="10" d="M0,632.525c0,0 247.841,-216.139 431,-196.525c131.633,14.096 219.211,80.167 309.538,102.686c209.313,52.182 339.711,-108.291 438.462,-186.686c183.187,-145.426 318.531,-123.671 398,-83c305.712,156.457 -47.848,569.664 66,645c74.954,49.599 119.423,113.722 156.347,219.273c36.293,103.747 -32.29,305.08 -69.347,420.727c-43.734,136.484 -55.815,194 -32.735,330c14.934,88 59.285,116.826 131.735,304c149.748,386.875 171,919 171,919l0,-2397.79l0,-707.209l-2000,0l0,630.525Z" style="fill:#00699f;fill-opacity:0.2;"/></g></svg>