<?xml version="1.0" encoding="UTF-8" standalone="no"?><!DOCTYPE svg PUBLIC "-//W3C//DTD SVG 1.1//EN" "http://www.w3.org/Graphics/SVG/1.1/DTD/svg11.dtd"><svg width="100%" height="100%" viewBox="0 0 2000 4500" version="1.1" xmlns="http://www.w3.org/2000/svg" xmlns:xlink="http://www.w3.org/1999/xlink" xml:space="preserve" xmlns:serif="http://www.serif.com/" style="fill-rule:evenodd;clip-rule:evenodd;stroke-linejoin:round;stroke-miterlimit:2;"><path id="_1" serif:id="1" d="M0,1651c0,0 202.841,-300.614 386,-281c131.633,14.096 173.247,175.487 166,275c-7.964,109.359 68.351,263.151 195,275c134.931,12.623 291.833,-149.667 297,-256c2.684,-55.248 -27.667,-126.333 -44,-160c-51.667,-107.333 -0.656,-612.463 88,-602c54.712,6.457 41.955,543.673 43,673c0.829,102.635 5.962,210.635 67,224c50.018,10.952 74.076,-59.552 170,-41c107.912,20.87 139.057,186.353 144,297c6.396,143.177 -145.833,346.5 -89,561c25.696,96.982 108.654,151.094 175,246c209.572,299.789 402,1544 402,1544l0,-4406l-2000,0l0,1651Z" style="fill:url(#_Linear1);"/><defs><linearGradient id="_Linear1" x1="0" y1="0" x2="1" y2="0" gradientUnits="userSpaceOnUse" gradientTransform="matrix(2000,0,0,4406,-2.27374e-13,2203)"><stop offset="0" style="stop-color:#0079a9;stop-opacity:1"/><stop offset="1" style="stop-color:#122041;stop-opacity:1"/></linearGradient></defs></svg>