<?xml version="1.0" encoding="utf-8"?>
<!-- Generator: Adobe Illustrator 22.0.0, SVG Export Plug-In . SVG Version: 6.00 Build 0)  -->
<svg version="1.1" xmlns="http://www.w3.org/2000/svg" xmlns:xlink="http://www.w3.org/1999/xlink" x="0px" y="0px"
	 viewBox="0 0 148 105.8" style="enable-background:new 0 0 148 105.8;" xml:space="preserve">
<style type="text/css">
	.st0{fill:#1B4E9B;}
	.st1{fill-rule:evenodd;clip-rule:evenodd;fill:#FFFFFF;}
	.st2{fill-rule:evenodd;clip-rule:evenodd;fill:#231F20;}
	.st3{fill-rule:evenodd;clip-rule:evenodd;fill:#242528;}
	.st4{fill:#00467F;}
	.st5{fill:#F99D31;}
	.st6{fill:#FF7100;}
	.st7{fill-rule:evenodd;clip-rule:evenodd;fill:#FF7100;}
	.st8{fill:none;stroke:#FFFFFF;stroke-width:0.4607;stroke-miterlimit:3.8637;}
	.st9{fill:#FFFFFF;}
	.st10{fill-rule:evenodd;clip-rule:evenodd;}
</style>
<g id="Warstwa_1">
</g>
<g id="Warstwa_2">
</g>
<g id="Warstwa_5">
</g>
<g id="Warstwa_4">
</g>
<g id="Warstwa_3">
	<path id="path12_1_" d="M0,0v22.6v22.6h13.4h13.4l10.9,9.6l10.9,9.6v11.8v11.8l25.5,0l25.5,0l0-11.8l0-11.8l10.8-9.6l10.8-9.6h13.4
		H148V22.6V0h-25.5H97l0,11.8l0,11.8l-10.8,9.5l-10.8,9.5H74h-1.4l-10.8-9.5l-10.8-9.5l0-11.8l0-11.8H25.5H0z M2.4,2.4h23.1h23.1
		v20.2v20.2H25.5H2.4V22.6V2.4z M99.4,2.4h23.1h23.1v20.2v20.2h-23.1H99.4V22.6V2.4z M14.3,9.7v3.4v3.4h0.4H15l0.1-0.5
		c0.3-1.4,0.9-2.6,1.7-3.5c0.5-0.6,1.1-0.9,1.9-1.1c0.7-0.2,1.2-0.2,2.7-0.2h1.3l0,9.7c0,9.3,0,10.8-0.1,11.4c-0.1,0.5-0.5,1-1,1.3
		c-0.5,0.2-0.7,0.3-1.6,0.3l-0.9,0v0.4v0.4h6.6h6.6v-0.4v-0.4h-0.7c-0.5,0-0.8,0-1-0.1c-0.7-0.1-1.4-0.6-1.6-1
		c-0.2-0.5-0.2,0.1-0.2-11.2l0-10.4l1.7,0c1.5,0,1.7,0,2.1,0.1c1.2,0.3,2.4,1.2,3,2.4c0.3,0.5,0.6,1.5,0.9,2.4l0.1,0.4l0.3,0l0.3,0
		l0-3.4l0-3.4H25.7H14.3z M140,10.1l-5.2,0l-5.2,0l-3.4,8c-1.8,4.4-3.4,8.1-3.4,8.2l-0.1,0.2l-3.6-8.2l-3.6-8.2l-5.2,0l-5.2,0l0,0.3
		l0,0.3l0.8,0c0.9,0,1.2,0.1,1.7,0.3c0.4,0.2,0.7,0.5,0.8,0.8c0.2,0.5,0.2,0.2,0.2,10.3l0,9.6l-0.1,0.4c-0.3,0.9-0.6,1.3-1.3,1.7
		c-0.5,0.2-0.8,0.3-1.5,0.4l-0.6,0.1v0.3V35h4.4h4.4v-0.3c0-0.4,0.1-0.4-0.7-0.4c-0.6,0-1.2-0.2-1.6-0.4c-0.2-0.1-0.4-0.2-0.6-0.5
		c-0.4-0.3-0.5-0.6-0.7-1.1c-0.1-0.2-0.1-0.6-0.1-10c0-8.6,0-9.7,0.1-9.6c0,0.1,2.2,5.1,4.9,11.2l4.8,11h0.2h0.2l4.8-11.3l4.8-11.3
		l0,9.6c0,6.3,0,9.8,0,10.1c-0.1,0.6-0.1,0.9-0.4,1.2c-0.3,0.4-0.6,0.6-1.2,0.8c-0.3,0.1-1.1,0.1-1.6,0.1l-0.3,0v0.3V35h6.6h6.6
		v-0.3v-0.3l-0.7,0c-0.8,0-1.3-0.1-1.6-0.3c-0.6-0.3-1-0.7-1.1-1.3c-0.1-0.3-0.1-1-0.1-10.1c0-8.1,0-9.8,0.1-10.1
		c0.1-0.8,0.7-1.3,1.5-1.5c0.3-0.1,0.5-0.1,1.1-0.1l0.8,0v-0.4V10.1z M50.9,45.1h23h23v20.2v20.2H74h-23V65.3V45.1z M83.6,52.9
		l-10.6,0l-10.6,0l0,0.3l0,0.3h0.6c1.1,0,1.7,0.1,2.2,0.5c0.3,0.2,0.5,0.5,0.7,0.8c0.1,0.2,0.1,0.4,0.1,1c0.1,1.2,0,18.9,0,19.3
		c-0.2,1.3-1,1.8-3,1.8h-0.5v0.3v0.3h11h11l0.6-3.9c0.3-2.1,0.6-3.9,0.6-4c0,0-0.1-0.1-0.4-0.1h-0.4l-0.1,0.3
		c-0.3,1.1-0.9,2.3-1.6,3.2c-0.4,0.5-1,1.1-1.5,1.5c-0.7,0.5-1.7,1-2.7,1.2c-0.9,0.2-1.4,0.3-3.1,0.3c-1.8,0-2.2,0-2.6-0.2
		c-0.3-0.1-0.6-0.4-0.7-0.6c-0.2-0.4-0.3-1.3-0.3-6l0-3.6l0.3,0c0.2,0,0.5,0,0.7,0c0.7,0,1.4,0.2,1.9,0.5c0.4,0.2,0.9,0.7,1.2,1.2
		c0.6,0.9,1,2.1,1.2,3.5c0,0.2,0.1,0.4,0.1,0.5l0,0.1h0.4h0.4v-6.5v-6.5h-0.4h-0.4l0,0.1c0,0.1-0.1,0.4-0.1,0.7
		c-0.2,1.1-0.4,2-0.8,2.8c-0.8,1.5-2,2.2-3.9,2.2l-0.5,0v-5v-5l2.4,0c2.8,0,3.4,0.1,4.3,0.4c1.1,0.4,2.1,1,2.7,1.8
		c0.6,0.7,1,1.8,1.3,3.3l0.1,0.4l0.4,0l0.4,0v-3.7V52.9z M72.6,94.2L72.6,94.2c-0.1,0-0.3,0-0.4,0c-1.1,0.1-1.9,0.5-2.6,1.2
		c-0.6,0.7-1,1.5-1.1,2.7c-0.1,1,0,1.9,0.3,2.7c0.5,1.3,1.6,2.2,2.9,2.5c0.4,0.1,1.4,0.1,1.8,0c1.2-0.2,2.1-1,2.6-2.2
		c0.1-0.2,0.2-0.4,0.2-0.5l0-0.1l-0.8-0.3c-0.5-0.1-0.9-0.3-0.9-0.3c0,0-0.1,0.1-0.1,0.2s-0.1,0.4-0.2,0.5c-0.4,0.7-0.9,1.1-1.7,1.1
		c-0.6,0-1-0.2-1.4-0.5c-0.6-0.5-0.8-1.4-0.7-2.8c0-1.1,0.2-1.8,0.7-2.2c0.4-0.4,0.8-0.6,1.5-0.6c0.7,0,1.2,0.2,1.5,0.7
		c0.1,0.2,0.3,0.6,0.3,0.7c0,0,0,0,0,0c0,0,1.8-0.4,1.8-0.4c0,0-0.2-0.6-0.4-0.9c-0.2-0.4-0.8-1-1.1-1.2c-0.6-0.3-1.3-0.5-2-0.5
		C72.6,94.2,72.6,94.2,72.6,94.2L72.6,94.2z M1.9,94.4v4.5c0,2.4,0,4.5,0,4.5c0,0,1.6,0,3.4,0l3.4,0v-0.8v-0.8l-2.5,0l-2.5,0v-1.2
		v-1.2H6h2.2v-0.8v-0.8H6H3.7v-1v-1h2.4h2.4v-0.8v-0.8H5.2H1.9z M10.5,94.4v4.5v4.5h0.9h0.9v-4.5v-4.5h-0.9H10.5z M54.5,94.4v0.8V96
		h0.9h0.9v-0.8v-0.8h-0.9H54.5z M30.7,94.6c0,0-0.4,0.2-0.9,0.5L29,95.5v0.6v0.6h-0.4h-0.4v0.7v0.7h0.4H29l0,1.7
		c0,1.8,0,2.4,0.2,2.7c0.1,0.4,0.5,0.6,0.9,0.8v0c0.4,0.1,1.7,0,1.9-0.2c0,0,0-0.8-0.1-1.2l0-0.1l-0.3,0.1c-0.4,0.1-0.6,0.1-0.8-0.1
		l-0.1-0.1V100v-1.8h0.6h0.6v-0.7v-0.7h-0.6h-0.6v-1.1C30.7,94.9,30.7,94.6,30.7,94.6z M138.3,94.6c0,0-0.4,0.2-0.9,0.5l-0.8,0.5
		l0,0.6l0,0.6h-0.4h-0.4v0.7v0.7h0.4h0.4l0,1.7c0,0.9,0,1.9,0,2.1c0.1,0.8,0.4,1.2,1.1,1.4c0.4,0.1,1.7,0,1.9-0.2c0,0,0-0.2,0-0.7
		c0-0.4-0.1-0.6-0.1-0.7s-0.1,0-0.2,0.1c-0.1,0-0.3,0.1-0.5,0.1c-0.2,0-0.3,0-0.4-0.1l-0.1-0.1V100v-1.8h0.6h0.6v-0.7v-0.7H139h-0.6
		v-1.1C138.4,94.8,138.4,94.6,138.3,94.6L138.3,94.6z M89.5,96.7c-0.7,0-1.2,0.2-1.7,0.7l-0.3,0.3l0-0.4l0-0.4l-0.8,0l-0.8,0v3.3
		v3.3h0.9h0.9v-1.9c0-1.9,0-2.4,0.2-2.7c0.2-0.4,0.6-0.7,1.1-0.7c0.4,0,0.6,0.1,0.7,0.4l0.1,0.3l0,2.3l0,2.3h0.9h0.9v-1.7
		c0-2.4,0.1-2.8,0.4-3.2c0.5-0.6,1.4-0.5,1.6,0.2c0,0.1,0.1,0.7,0.1,2.5l0,2.3h0.9h0.9l0-2.4c0-2.6,0-2.8-0.3-3.3
		c-0.3-0.5-0.8-0.8-1.3-0.9c-0.3-0.1-1,0-1.3,0.1c-0.3,0.1-0.7,0.3-1,0.6c-0.2,0.2-0.3,0.2-0.3,0.2c-0.1-0.2-0.5-0.6-0.7-0.7
		C90.3,96.8,89.9,96.7,89.5,96.7L89.5,96.7z M123.8,96.7c-0.8,0-1.5,0.3-2,0.8c-0.3,0.3-0.4,0.4-0.5,0.7c-0.5,1-0.5,2.2-0.2,3.2
		c0.4,1.1,1.2,1.8,2.3,1.9c0.1,0,0.4,0,0.7,0c0.7,0,1-0.1,1.5-0.3c0.3-0.2,0.8-0.7,1-1c0.2-0.3,0.3-0.5,0.2-0.6c0,0-1.5-0.3-1.6-0.3
		c-0.1,0-0.1,0.1-0.2,0.3c-0.1,0.3-0.2,0.3-0.4,0.4c-0.2,0.1-0.2,0.1-0.6,0.1c-0.3,0-0.4,0-0.6-0.1c-0.4-0.2-0.7-0.6-0.8-1.2l0-0.2
		h2.2h2.2l0-0.1c0-0.3-0.1-1.1-0.2-1.5c-0.1-0.5-0.4-1.1-0.7-1.4C125.5,97,124.7,96.7,123.8,96.7L123.8,96.7z M36.4,96.7
		c-0.5,0-0.9,0.2-1.2,0.7l-0.2,0.3v-0.4v-0.4h-0.8h-0.8v3.3v3.3h0.9H35l0-1.3c0-2.6,0.1-3.3,0.6-3.6c0.2-0.1,0.2-0.1,0.5-0.1
		c0.3,0,0.4,0,0.6,0.1c0.1,0.1,0.2,0.1,0.3,0.1s0.1-0.3,0.3-0.7c0.1-0.4,0.2-0.7,0.3-0.7c0-0.1,0-0.1-0.2-0.2
		C37,96.7,36.7,96.7,36.4,96.7L36.4,96.7z M50.3,96.7L50.3,96.7c-0.7,0-1.3,0.2-1.8,0.7l-0.3,0.3v-0.4v-0.4h-0.8h-0.8v3.3v3.3h0.9
		h0.9l0-2.1c0-2,0-2.1,0.1-2.3c0.2-0.6,0.7-0.9,1.2-0.9c0.5,0,0.8,0.2,0.9,0.6c0.1,0.2,0.1,1.1,0.1,3l0,1.7h0.9h0.9l0-2.2
		c0-2.2,0-2.8-0.2-3.2C52,97.2,51.3,96.7,50.3,96.7L50.3,96.7z M132.3,96.7L132.3,96.7c-0.7,0-1.3,0.2-1.8,0.7l-0.3,0.3v-0.4v-0.4
		h-0.8h-0.8v3.3v3.3h0.9h0.9l0-1.8c0-1,0-2,0-2.1c0.1-0.7,0.3-1,0.7-1.2c0.2-0.1,0.3-0.1,0.6-0.1c0.3,0,0.6,0.1,0.8,0.3
		c0.3,0.3,0.3,0.7,0.3,3.2l0,1.8h0.9h0.9l0-2.5c0-1.8,0-2.5-0.1-2.7C134.2,97.2,133.4,96.7,132.3,96.7L132.3,96.7z M101,96.7
		L101,96.7c-0.2,0-0.4,0-0.6,0.1c-0.5,0.1-1,0.5-1.3,0.8L99,97.7v-0.5v-0.5h-0.8h-0.8v4.5v4.5h0.9h0.9v-1.6v-1.6l0.3,0.3
		c0.5,0.4,1,0.6,1.6,0.6c0.7,0,1.2-0.2,1.8-0.8c0.6-0.6,0.8-1.2,0.9-2.2c0.1-0.9,0-1.7-0.4-2.4c-0.3-0.7-1-1.3-1.7-1.4
		C101.4,96.7,101.2,96.7,101,96.7L101,96.7z M16.8,96.7L16.8,96.7c-0.2,0-0.4,0-0.6,0.1c-0.5,0.1-1,0.4-1.4,0.7
		c-0.6,0.6-0.9,1.3-1,2.3c-0.1,1.3,0.4,2.6,1.3,3.1c0.3,0.2,0.7,0.4,1.1,0.4c0.4,0.1,1.2,0.1,1.6,0c0.8-0.2,1.5-0.7,1.9-1.4
		c0.2-0.3,0.2-0.5,0.1-0.5c0,0-0.4-0.1-0.8-0.1c-0.4-0.1-0.8-0.1-0.8-0.1c-0.1,0-0.1,0-0.1,0.2c-0.1,0.3-0.3,0.5-0.5,0.6
		c-0.2,0.1-0.3,0.1-0.6,0.1c-0.7,0-1.2-0.5-1.3-1.3l0-0.3h2.2h2.2l0-0.5c-0.1-1.8-0.8-2.8-2.1-3.3C17.6,96.7,17.1,96.7,16.8,96.7
		L16.8,96.7z M117.1,96.7L117.1,96.7c-0.1,0-0.1,0-0.2,0c-0.7,0-1.2,0.3-1.7,0.8l-0.2,0.2l0-0.4l0-0.4l-0.8,0l-0.8,0v3.3v3.3h0.9
		h0.9l0-1.5c0-1.7,0-2.6,0.2-2.9c0.1-0.3,0.4-0.7,0.8-0.8c0.6-0.2,1.1,0,1.4,0.4c0.1,0.3,0.2,0.7,0.2,2.8l0,2h0.9h0.9l0-2.5
		c0-2.4,0-2.5-0.1-2.8C118.9,97.2,118.1,96.7,117.1,96.7L117.1,96.7z M81,96.7c-0.1,0-0.1,0-0.2,0c-1,0-1.6,0.3-2.2,0.9
		c-0.3,0.3-0.4,0.4-0.6,0.8c-0.3,0.7-0.4,0.9-0.4,1.6c0,0.7,0.1,1.1,0.3,1.6c0.4,0.9,1.2,1.5,2.3,1.7c0.4,0.1,1.3,0.1,1.7-0.1
		c1.1-0.3,2-1.2,2.2-2.4c0.1-0.4,0.1-1.2,0-1.6c-0.2-1.1-1-2-2-2.4C81.9,96.8,81.5,96.7,81,96.7z M143.4,96.7c-0.5,0-0.9,0-1.1,0.1
		c-0.4,0.1-0.8,0.3-1.1,0.6c-0.9,0.8-0.8,2.2,0.2,2.8c0.3,0.2,1.2,0.5,2.5,0.8c0.5,0.1,0.7,0.2,0.8,0.4c0.1,0.2,0,0.5-0.2,0.6
		c-0.3,0.2-0.6,0.2-1,0.2c-0.4,0-0.5,0-0.7-0.1c-0.3-0.1-0.5-0.4-0.6-0.7c0-0.1-0.1-0.2-0.1-0.2c0,0-0.4,0.1-0.9,0.1l-0.8,0.1l0,0.1
		c0.1,0.3,0.3,0.8,0.6,1c0.4,0.4,0.9,0.7,1.6,0.8c0.5,0.1,1.6,0.1,2-0.1c0.5-0.1,0.8-0.3,1.2-0.6c0.8-0.8,0.8-2,0.1-2.6
		c-0.4-0.4-0.9-0.6-2.2-0.9c-1-0.2-1.2-0.3-1.4-0.5c-0.1-0.1-0.1-0.2-0.1-0.3c0.1-0.3,0.4-0.4,1.1-0.4c0.6,0,0.9,0.1,1.1,0.5
		c0.1,0.1,0.1,0.2,0.1,0.2c0,0,0.4-0.1,0.8-0.1c0.4-0.1,0.8-0.1,0.8-0.1c0,0,0-0.1-0.1-0.2c-0.3-0.7-0.8-1.2-1.6-1.4
		C144.3,96.7,143.9,96.7,143.4,96.7z M61.1,96.7c-0.4,0-0.8,0-1,0.1c-0.8,0.2-1.5,0.7-1.8,1.5c-0.3,0.6-0.4,1-0.4,1.8
		c0,0.8,0.1,1.2,0.4,1.8c0.4,0.8,1.1,1.3,1.9,1.5c0.4,0.1,1.5,0.1,1.8,0c0.8-0.2,1.4-0.7,1.7-1.4c0.1-0.3,0.3-0.8,0.3-0.8
		c0,0-1.5-0.3-1.6-0.3c0,0-0.1,0.1-0.1,0.2c-0.2,0.7-0.5,0.9-1.2,1c-0.4,0-0.7-0.1-0.9-0.4c-0.3-0.4-0.5-0.9-0.4-1.8
		c0-0.7,0.1-1,0.4-1.3c0.4-0.5,1.2-0.6,1.7-0.2c0.2,0.1,0.4,0.5,0.4,0.7c0,0.1,0,0.1,0.1,0.1c0,0,1.2-0.2,1.6-0.3
		c0.1,0,0.1-0.1-0.1-0.7c-0.3-0.7-0.9-1.1-1.6-1.3C61.9,96.7,61.5,96.7,61.1,96.7L61.1,96.7z M108.3,96.7c-0.6,0-0.7,0-1,0.1
		c-1,0.3-1.7,0.9-2.1,1.9c-0.2,0.5-0.3,0.9-0.2,1.6c0,0.6,0.1,1.1,0.4,1.6c0.4,0.8,1.2,1.4,2.2,1.6c0.4,0.1,1.1,0.1,1.5,0
		c1.1-0.2,2-1,2.4-2.2c0.1-0.4,0.1-0.4,0.1-1.1c0-0.7,0-0.8-0.1-1.1c-0.2-0.6-0.4-1-0.8-1.4c-0.3-0.3-0.4-0.4-0.8-0.6
		C109.4,96.8,109.1,96.7,108.3,96.7L108.3,96.7z M41.5,96.7c-0.8,0-1,0-1.6,0.3c-0.3,0.2-0.5,0.3-0.7,0.5c-0.8,0.9-1.2,2-0.9,3.4
		c0.1,0.6,0.5,1.3,0.9,1.6c0.4,0.4,1,0.6,1.6,0.8c0.4,0.1,1.1,0.1,1.5,0c1.2-0.3,2.2-1.2,2.5-2.4c0.1-0.5,0.1-1.4,0-1.9
		c-0.3-1.2-1.2-2-2.3-2.3C42.3,96.7,42.1,96.7,41.5,96.7L41.5,96.7z M24.2,96.7c-0.5,0-0.6,0-0.8,0.1c-1,0.3-1.7,1-2,2
		c-0.2,0.9-0.2,2,0.1,2.8c0.4,0.9,1.1,1.5,2.1,1.8c0.4,0.1,1.4,0.1,1.8,0c0.8-0.2,1.4-0.7,1.7-1.5c0.2-0.3,0.3-0.7,0.3-0.8
		c0,0-1.6-0.3-1.7-0.3c0,0-0.1,0.1-0.1,0.1c0,0.2-0.2,0.6-0.4,0.8c-0.2,0.2-0.5,0.3-0.9,0.3c-0.6,0-1-0.3-1.2-0.9
		c-0.1-0.2-0.1-0.4-0.1-1.1c0-0.6,0-0.8,0.1-1c0.2-0.5,0.5-0.8,0.9-0.9c0.7-0.2,1.3,0.1,1.4,0.7c0,0.1,0.1,0.2,0.1,0.2
		c0,0,1.2-0.2,1.6-0.2c0.1,0,0.1-0.1-0.1-0.6c-0.3-0.7-0.8-1.1-1.5-1.3c-0.3-0.1-0.4-0.1-1.1-0.1C24.4,96.7,24.3,96.7,24.2,96.7
		L24.2,96.7z M54.5,96.8v3.3v3.3h0.9h0.9v-3.3v-3.3h-0.9H54.5z M123.9,98c0.5,0,0.9,0.2,1.1,0.7c0.1,0.2,0.2,0.6,0.2,0.8
		c0,0-0.6,0-1.3,0h-1.3l0-0.2c0-0.4,0.1-0.6,0.4-0.9c0.2-0.2,0.3-0.3,0.4-0.3C123.6,98,123.8,98,123.9,98z M16.9,98
		c0.7,0,1.2,0.5,1.2,1.2l0,0.2h-1.3h-1.3v-0.1c0-0.2,0.1-0.5,0.2-0.7C16,98.3,16.4,98,16.9,98z M100.6,98.1c0.4,0,0.7,0.1,0.9,0.4
		c0.4,0.4,0.5,0.8,0.5,1.6c0,1.1-0.2,1.6-0.8,1.9c-0.2,0.1-0.3,0.1-0.5,0.1c-0.3,0-0.5,0-0.7-0.2c-0.2-0.1-0.5-0.4-0.6-0.6
		c-0.2-0.4-0.3-1.5-0.2-2.1C99.4,98.5,99.9,98.1,100.6,98.1z M41.6,98.1c0.7,0,1.2,0.5,1.4,1.2c0.1,0.3,0.1,1.1,0,1.5
		c0,0.1-0.1,0.3-0.2,0.4c-0.2,0.4-0.6,0.7-1,0.8c-0.3,0.1-0.4,0.1-0.6,0c-0.6-0.1-1-0.5-1.2-1.2c0-0.2-0.1-0.4-0.1-0.7
		c0-0.7,0.2-1.2,0.5-1.6c0.2-0.2,0.4-0.3,0.8-0.4C41.4,98.1,41.5,98.1,41.6,98.1L41.6,98.1z M108.3,98.1c0.6,0,1.1,0.3,1.4,0.8
		c0.3,0.6,0.3,1.7,0,2.2c-0.2,0.4-0.5,0.7-0.9,0.8c-0.6,0.2-1.1,0-1.6-0.4c-0.3-0.3-0.4-0.6-0.4-1.1c-0.1-0.4,0-1,0.1-1.4
		c0.1-0.3,0.5-0.7,0.7-0.8C107.9,98.1,108.1,98.1,108.3,98.1z M81,98.1c0.8,0,1.3,0.5,1.5,1.3c0.1,0.3,0.1,1,0,1.3
		c-0.1,0.6-0.5,1-0.9,1.2c-0.6,0.2-1.2,0.1-1.6-0.3c-0.2-0.2-0.3-0.4-0.4-0.7c-0.2-0.5-0.2-1.3,0-1.8c0.1-0.3,0.5-0.7,0.8-0.8
		C80.6,98.1,80.7,98.1,81,98.1z"/>
</g>
</svg>
