<?xml version="1.0" encoding="utf-8"?>
<!-- Generator: Adobe Illustrator 22.0.0, SVG Export Plug-In . SVG Version: 6.00 Build 0)  -->
<svg version="1.1" xmlns="http://www.w3.org/2000/svg" xmlns:xlink="http://www.w3.org/1999/xlink" x="0px" y="0px"
	 viewBox="0 0 203.7 41.6" style="enable-background:new 0 0 203.7 41.6;" xml:space="preserve">
<style type="text/css">
	.st0{fill:#1B4E9B;}
	.st1{fill-rule:evenodd;clip-rule:evenodd;fill:#FFFFFF;}
	.st2{fill-rule:evenodd;clip-rule:evenodd;fill:#231F20;}
	.st3{fill-rule:evenodd;clip-rule:evenodd;fill:#242528;}
	.st4{fill:#00467F;}
	.st5{fill:#F99D31;}
	.st6{fill:#FF7100;}
	.st7{fill-rule:evenodd;clip-rule:evenodd;fill:#FF7100;}
	.st8{fill:none;stroke:#FFFFFF;stroke-width:0.4607;stroke-miterlimit:3.8637;}
	.st9{fill:#FFFFFF;}
	.st10{fill-rule:evenodd;clip-rule:evenodd;}
</style>
<g id="Warstwa_1">
</g>
<g id="Warstwa_2">
</g>
<g id="Warstwa_5">
</g>
<g id="Warstwa_4">
</g>
<g id="Warstwa_3">
	<polygon class="st6" points="61,0 55.5,41.6 79.7,41.6 81,31.6 68.1,31.6 72.3,0 61,0 	"/>
	<path class="st7" d="M103.5,0L83,41.6h12.5l3.4-7.2h13.9l2.1,7.2h11.8L115.8,0H103.5L103.5,0z M102.8,25.7c1.1-2.7,2.1-5.4,3.1-8.1
		c0.9-2.4,1.6-4.8,2.5-7.3l2.3,15.4H102.8L102.8,25.7z"/>
	<path class="st7" d="M135.4,0L130,41.6h11.3l1.8-13.6h5.2c4.5,0,8.9,0,12.5-3.1c4.6-4,4.8-10.4,4.8-12c0-1.8-0.3-3.3-0.4-3.9
		c-0.4-1.5-1.4-5.2-5.3-7.4C156.8-0.3,153,0,152,0H135.4L135.4,0z M145.6,8.7h3.4c1.2,0,5.6-0.4,5.6,4.4c0,2.4-1,4.8-3.4,5.6
		c-0.7,0.2-1.3,0.4-2.9,0.4h-4.1L145.6,8.7L145.6,8.7z"/>
	<path class="st7" d="M173.4,0L168,41.6h11.3l1.8-13.6h5.2c4.5,0,8.9,0,12.5-3.1c4.6-4,4.8-10.4,4.8-12c0-1.8-0.3-3.3-0.4-3.9
		c-0.4-1.5-1.4-5.2-5.3-7.4C194.8-0.3,191,0,190,0H173.4L173.4,0z M183.6,8.7h3.4c1.2,0,5.6-0.4,5.6,4.4c0,2.4-1,4.8-3.4,5.6
		c-0.7,0.2-1.3,0.4-2.9,0.4h-4.1L183.6,8.7L183.6,8.7z"/>
	<path d="M0,20.8C0,9.3,9.3,0,20.8,0c11.5,0,20.8,9.3,20.8,20.8c0,11.5-9.3,20.8-20.8,20.8C9.3,41.6,0,32.3,0,20.8L0,20.8z"/>
	<path class="st8" d="M15,9.5c0-3.2,2.6-5.8,5.8-5.8s5.8,2.6,5.8,5.8c0,3.2-2.6,5.8-5.8,5.8S15,12.8,15,9.5L15,9.5z"/>
	<path class="st9" d="M8.1,23c-3.1-1-4.8-4.3-3.8-7.4c1-3.1,4.3-4.7,7.4-3.8c3.1,1,4.8,4.3,3.8,7.4C14.5,22.4,11.2,24,8.1,23L8.1,23
		z"/>
	<path class="st9" d="M18.8,33.5c-1.9,2.6-5.6,3.2-8.2,1.3c-2.6-1.9-3.2-5.5-1.3-8.2c1.9-2.6,5.6-3.2,8.2-1.3
		C20.1,27.2,20.7,30.9,18.8,33.5L18.8,33.5z"/>
	<path class="st9" d="M31.9,26.6c1.9,2.6,1.3,6.3-1.3,8.2c-2.6,1.9-6.3,1.3-8.2-1.3c-1.9-2.6-1.3-6.3,1.3-8.2
		C26.4,23.4,30,24,31.9,26.6L31.9,26.6z"/>
	<path class="st9" d="M29.5,12c3.1-1,6.4,0.7,7.4,3.8c1,3.1-0.7,6.4-3.8,7.4c-3.1,1-6.4-0.7-7.4-3.8C24.7,16.2,26.4,12.9,29.5,12
		L29.5,12z"/>
	<path class="st6" d="M15,9.5c0-3.2,2.6-5.8,5.8-5.8s5.8,2.6,5.8,5.8c0,3.2-2.6,5.8-5.8,5.8S15,12.8,15,9.5L15,9.5z"/>
</g>
</svg>
