<?xml version="1.0" encoding="utf-8"?>
<!-- Generator: Adobe Illustrator 22.0.0, SVG Export Plug-In . SVG Version: 6.00 Build 0)  -->
<svg version="1.1" xmlns="http://www.w3.org/2000/svg" xmlns:xlink="http://www.w3.org/1999/xlink" x="0px" y="0px"
	 viewBox="0 0 50.3 52.7" style="enable-background:new 0 0 50.3 52.7;" xml:space="preserve">
<style type="text/css">
	.st0{fill:#56ACB2;}
	.st1{fill:#FFFFFF;}
</style>
<g id="Warstwa_2">
	<path class="st0" d="M211.3,70.3H88.5c-6.6,0-12-5.4-12-12v-84.8c0-6.6,5.4-12,12-12h122.8c6.6,0,12,5.4,12,12v84.8
		C223.3,64.9,217.9,70.3,211.3,70.3z"/>
	<image style="overflow:visible;" width="51" height="51" xlink:href="instagram.png"  transform="matrix(1 0 0 1 53.1665 0.466)">
	</image>
</g>
<g id="youtube">
	<path id="Path_22" class="st1" d="M7.4,51.5H43c4.1,0,7.4-3.3,7.4-7.4V7.8c0-4.1-3.3-7.4-7.4-7.4H7.4C3.3,0.5,0,3.8,0,7.8v36.3
		C0,48.2,3.3,51.5,7.4,51.5z M2.9,7.8c0-2.4,2-4.4,4.4-4.4H43c2.4,0,4.4,2,4.4,4.4v36.3c0,2.4-2,4.4-4.4,4.4H7.4
		c-2.4,0-4.4-2-4.4-4.4L2.9,7.8z"/>
	<path id="Path_23" class="st1" d="M14.1,14.1v24.1c0,0.7,0.8,1.1,1.4,0.8l21.3-12.2c0.6-0.4,0.6-1.3,0-1.6L15.4,13.3
		C14.8,13,14.1,13.4,14.1,14.1z M18.7,18.9l11.1,6.2c0.8,0.4,0.8,1.5,0,1.9l-11.1,6.4c-0.7,0.4-1.7-0.1-1.7-1V19.9
		C17.1,19,18,18.5,18.7,18.9z"/>
</g>
</svg>
