<?xml version="1.0" encoding="utf-8"?>
<!-- Generator: Adobe Illustrator 22.0.0, SVG Export Plug-In . SVG Version: 6.00 Build 0)  -->
<svg version="1.1" id="Warstwa_1" xmlns="http://www.w3.org/2000/svg" xmlns:xlink="http://www.w3.org/1999/xlink" x="0px" y="0px"
	 viewBox="0 0 308 308" style="enable-background:new 0 0 308 308;" xml:space="preserve">
<style type="text/css">
	.st0{fill:#132142;}
	.st1{fill:none;stroke:#000000;stroke-width:10;stroke-miterlimit:10;}
	.st2{fill:none;stroke:#000000;stroke-width:8;stroke-miterlimit:10;}
	.st3{display:none;fill:#FFFFFF;}
	.st4{fill:url(#SVGID_1_);}
	.st5{fill:url(#SVGID_2_);}
	.st6{fill:none;stroke:url(#SVGID_3_);stroke-width:7;stroke-miterlimit:10;}
	.st7{opacity:0.43;fill:none;stroke:#132142;stroke-width:7;stroke-miterlimit:10;}
	.st8{fill:none;stroke:#000000;stroke-width:8;stroke-linecap:round;stroke-miterlimit:10;}
	.st9{fill:none;stroke:#FFFFFF;stroke-width:8;stroke-miterlimit:10;}
	.st10{fill:none;stroke:#FFFFFF;stroke-width:5;stroke-miterlimit:10;}
	.st11{stroke:#000000;stroke-miterlimit:10;}
	.st12{fill:none;stroke:#000000;stroke-width:7;stroke-miterlimit:10;}
	.st13{stroke:#000000;stroke-width:3;stroke-miterlimit:10;}
</style>
<path class="st1" d="M271.3,303H36.7C19.2,303,5,288.8,5,271.3V36.7C5,19.2,19.2,5,36.7,5h234.6C288.8,5,303,19.2,303,36.7v234.6
	C303,288.8,288.8,303,271.3,303z"/>
<g>
	<path d="M30.6,210.6l20.2,23.7l20.2-23.7h9.3l-25,28.8l24.2,28h-9.3l-19.5-22.9l-19.5,22.9H22l24.2-28l-25-28.8H30.6z"/>
	<path d="M104.4,268.2c-3.9,0-7.8-0.5-11.6-1.6c-3.8-1-7.1-2.5-9.8-4.5l3.6-4.7c2.9,1.9,5.7,3.3,8.6,4.2c2.9,0.9,5.9,1.4,9.1,1.4
		c3.6,0,6.4-0.6,8.5-1.8c2.1-1.2,3.1-2.9,3.1-5.1c0-1-0.3-1.9-0.8-2.6c-0.6-0.7-1.4-1.3-2.5-1.9c-1.1-0.5-2.6-1-4.3-1.4
		c-1.7-0.4-3.8-0.9-6.1-1.4c-2.9-0.6-5.5-1.3-7.6-1.8c-2.1-0.6-3.9-1.3-5.2-2.1c-1.4-0.8-2.4-1.8-3-2.9c-0.6-1.1-0.9-2.5-0.9-4.2
		c0-2.1,0.5-3.9,1.5-5.6c1-1.6,2.3-3,4-4.1c1.7-1.1,3.7-1.9,5.9-2.5c2.3-0.6,4.7-0.8,7.3-0.8c3.7,0,7.1,0.5,10.3,1.5
		c3.2,1,5.9,2.3,8,4l-3.7,4.2c-2.1-1.5-4.4-2.7-6.9-3.5c-2.6-0.8-5.2-1.2-7.9-1.2c-3,0-5.5,0.5-7.6,1.6c-2.1,1.1-3.1,2.8-3.1,5.2
		c0,1,0.2,1.8,0.6,2.4c0.4,0.6,1.1,1.2,2,1.7c0.9,0.5,2.1,0.9,3.6,1.3c1.5,0.4,3.2,0.8,5.3,1.2c3.2,0.6,6.1,1.3,8.5,2
		c2.4,0.7,4.4,1.5,6,2.4c1.6,0.9,2.8,2,3.6,3.2c0.8,1.2,1.2,2.7,1.2,4.5c0,3.9-1.7,7-5.2,9.3C115,267.1,110.3,268.2,104.4,268.2z"/>
	<path d="M155.1,268.2c-3.7,0-7.1-0.6-10.1-1.7c-3.1-1.1-5.7-2.7-7.9-4.7c-2.2-2-3.9-4.3-5.1-6.9s-1.8-5.4-1.8-8.4
		c0-2.9,0.6-5.7,1.8-8.3c1.2-2.6,2.9-4.9,5.1-6.9c2.2-2,4.9-3.5,7.9-4.7c3.1-1.1,6.4-1.7,10.1-1.7c3.7,0,7,0.6,10.1,1.8
		c3,1.2,5.6,2.7,7.7,4.7c2.1,1.9,3.8,4.2,4.9,6.8c1.2,2.6,1.7,5.3,1.7,8c0,0.6,0,1.1,0,1.6c0,0.5-0.1,0.9-0.1,1.1h-40.5
		c0.2,2.1,0.8,4,1.7,5.7c0.9,1.7,2.2,3.2,3.7,4.4c1.5,1.2,3.2,2.2,5.1,2.9c1.9,0.7,3.9,1,6,1c1.5,0,3-0.2,4.4-0.5
		c1.4-0.3,2.8-0.8,4-1.4c1.2-0.6,2.4-1.3,3.3-2.2c1-0.9,1.7-1.8,2.2-2.9l7.1,1.7c-0.8,1.5-1.9,3-3.3,4.2c-1.4,1.3-3,2.4-4.9,3.3
		c-1.8,0.9-3.9,1.7-6.1,2.2C159.9,267.9,157.6,268.2,155.1,268.2z M171.9,243.7c-0.2-2-0.8-3.8-1.7-5.5c-1-1.7-2.2-3.1-3.7-4.3
		c-1.5-1.2-3.2-2.1-5.1-2.8c-1.9-0.7-4-1-6.2-1c-2.2,0-4.2,0.3-6.2,1c-1.9,0.7-3.6,1.6-5.1,2.8c-1.5,1.2-2.7,2.6-3.6,4.3
		c-0.9,1.7-1.5,3.5-1.6,5.4H171.9z"/>
	<path d="M231.2,267.4H223V244c0-4.5-0.8-7.7-2.4-9.8c-1.6-2-4-3-7.3-3c-1.7,0-3.4,0.3-5.1,0.8c-1.7,0.6-3.3,1.3-4.8,2.3
		c-1.5,1-2.8,2.1-3.9,3.4c-1.1,1.3-2,2.8-2.5,4.4v25.2h-8.2v-41.8h7.5v9c1.9-2.9,4.7-5.3,8.4-7c3.7-1.8,7.6-2.6,11.9-2.6
		c2.8,0,5.1,0.4,7,1.3c1.9,0.9,3.4,2.1,4.5,3.7c1.1,1.6,1.9,3.4,2.4,5.6c0.5,2.1,0.7,4.5,0.7,7V267.4z"/>
	<path d="M261.2,268.2c-3.9,0-7.8-0.5-11.6-1.6c-3.8-1-7.1-2.5-9.8-4.5l3.6-4.7c2.9,1.9,5.7,3.3,8.6,4.2c2.9,0.9,5.9,1.4,9.1,1.4
		c3.6,0,6.4-0.6,8.5-1.8c2.1-1.2,3.1-2.9,3.1-5.1c0-1-0.3-1.9-0.8-2.6c-0.6-0.7-1.4-1.3-2.5-1.9c-1.1-0.5-2.6-1-4.3-1.4
		c-1.7-0.4-3.8-0.9-6.1-1.4c-2.9-0.6-5.5-1.3-7.6-1.8c-2.1-0.6-3.9-1.3-5.2-2.1c-1.4-0.8-2.4-1.8-3-2.9c-0.6-1.1-0.9-2.5-0.9-4.2
		c0-2.1,0.5-3.9,1.5-5.6c1-1.6,2.3-3,4-4.1c1.7-1.1,3.7-1.9,5.9-2.5c2.3-0.6,4.7-0.8,7.3-0.8c3.7,0,7.1,0.5,10.3,1.5
		c3.2,1,5.9,2.3,8,4l-3.7,4.2c-2.1-1.5-4.4-2.7-6.9-3.5c-2.6-0.8-5.2-1.2-7.9-1.2c-3,0-5.5,0.5-7.6,1.6c-2.1,1.1-3.1,2.8-3.1,5.2
		c0,1,0.2,1.8,0.6,2.4c0.4,0.6,1.1,1.2,2,1.7c0.9,0.5,2.1,0.9,3.6,1.3c1.5,0.4,3.2,0.8,5.3,1.2c3.2,0.6,6.1,1.3,8.5,2
		c2.4,0.7,4.4,1.5,6,2.4c1.6,0.9,2.8,2,3.6,3.2c0.8,1.2,1.2,2.7,1.2,4.5c0,3.9-1.7,7-5.2,9.3C271.8,267.1,267.1,268.2,261.2,268.2z"
		/>
</g>
<g>
	<path d="M68.7,129.3c-1.4,1.6-1.3,3.9,0.3,5.3c6.4,5.7,10,13.9,10,22.5s-3.6,16.8-10,22.5c-1,0.9-1.5,2.3-1.2,3.6
		c0.3,1.3,1.3,2.4,2.6,2.8c1.3,0.4,2.7,0.1,3.7-0.8c8-7.2,12.5-17.4,12.5-28.1S82,136.2,74.1,129C72.5,127.6,70.1,127.7,68.7,129.3z
		"/>
	<path d="M78.9,118c-1.4,1.6-1.3,3.9,0.3,5.3c9.6,8.6,15,20.9,15,33.7s-5.5,25.1-15,33.7c-1.1,0.9-1.6,2.3-1.3,3.7
		c0.3,1.4,1.3,2.5,2.6,2.9c1.3,0.4,2.8,0,3.8-0.9c11.1-10,17.5-24.3,17.5-39.3c0-15-6.4-29.3-17.5-39.3
		C82.6,116.3,80.3,116.5,78.9,118z"/>
	<path d="M58.6,173.7c0.7,0.7,1.6,1.2,2.6,1.2c1,0.1,2-0.3,2.7-1c4.8-4.3,7.5-10.4,7.5-16.9s-2.7-12.6-7.5-16.9
		c-1.6-1.4-3.9-1.3-5.3,0.3c-1.4,1.6-1.3,3.9,0.3,5.3c3.2,2.9,5,7,5,11.3c0,4.3-1.8,8.4-5,11.3C57.3,169.7,57.2,172.1,58.6,173.7z"
		/>
	<path d="M235.3,129c-8,7.2-12.5,17.4-12.5,28.1s4.6,20.9,12.5,28.1c1,0.9,2.4,1.3,3.7,0.8c1.3-0.4,2.3-1.5,2.6-2.8
		c0.3-1.3-0.2-2.7-1.2-3.6c-6.4-5.7-10-13.9-10-22.5s3.6-16.8,10-22.5c1.5-1.4,1.6-3.8,0.2-5.3C239.2,127.8,236.8,127.6,235.3,129z"
		/>
	<path d="M225.1,117.8c-11.1,10-17.5,24.3-17.5,39.3c0,15,6.4,29.3,17.5,39.3c1.6,1.3,3.9,1.2,5.3-0.3c1.4-1.5,1.3-3.9-0.2-5.3
		c-9.6-8.6-15-20.9-15-33.7c0-12.9,5.5-25.1,15-33.7c1.5-1.4,1.6-3.8,0.2-5.3C229,116.6,226.7,116.4,225.1,117.8z"/>
	<path d="M250.7,140.5c-0.7-0.7-1.6-1.2-2.6-1.2c-1-0.1-2,0.3-2.7,1c-4.8,4.3-7.5,10.4-7.5,16.9s2.7,12.6,7.5,16.9
		c1.6,1.4,3.9,1.3,5.3-0.3c1.4-1.6,1.3-3.9-0.3-5.3c-3.2-2.9-5-7-5-11.3c0-4.3,1.8-8.4,5-11.3C252,144.4,252.1,142,250.7,140.5z"/>
</g>
<path d="M268.1,90.2c-0.7-5.7-5.5-10-11.3-10c-4.8,0-9.1,3-10.7,7.6h-12.7c-1.6-4.5-5.9-7.6-10.7-7.6s-9.1,3-10.7,7.6h-20.3
	c-1.6-4.5-5.9-7.6-10.7-7.6c-4.8,0-9.1,3-10.7,7.6h-12V76.1c11.6-2,19.8-12.5,18.8-24.3C176.3,40,166.5,31,154.7,31
	s-21.6,9-22.6,20.8c-1,11.8,7.2,22.3,18.8,24.3v11.7h-12c-1.6-4.5-5.9-7.6-10.6-7.6c-4.8,0-9.1,3-10.7,7.6H97.2
	c-1.6-4.5-5.9-7.6-10.6-7.6c-4.8,0-9.1,3-10.7,7.6H63.2c-1.8-5.2-7.2-8.3-12.6-7.4c-5.4,0.9-9.4,5.7-9.4,11.2c0,5.5,4,10.2,9.4,11.2
	c5.4,0.9,10.8-2.2,12.6-7.4h12.7c1.6,4.5,5.9,7.6,10.7,7.6c4.8,0,9.1-3,10.6-7.6h20.3c1.6,4.5,5.9,7.6,10.7,7.6
	c4.8,0,9.1-3,10.6-7.6h12v8.3c-4.5,1.6-7.6,5.9-7.6,10.7c0,4.8,3,9.1,7.6,10.7v12.7c-4.5,1.6-7.5,5.9-7.6,10.7
	c0,1.9,0.5,3.8,1.5,5.5L132.4,168c-1.3-0.5-2.8-0.8-4.2-0.8c-5.5,0-10.2,4-11.2,9.4c-0.9,5.4,2.2,10.8,7.4,12.6h7.6
	c4.5-1.6,7.5-5.9,7.6-10.7c0-1.9-0.5-3.8-1.5-5.5l12.5-14.2c2.7,1.1,5.7,1.1,8.4,0l12.4,14.2c-1,1.7-1.5,3.6-1.5,5.5
	c0,4.8,3,9.1,7.6,10.7h7.6c3.9-1.3,6.8-4.7,7.5-8.7c0.7-4.1-0.8-8.2-4-10.8c-3.2-2.6-7.6-3.2-11.4-1.6l-12.5-14.2
	c1-1.7,1.5-3.6,1.5-5.5c0-4.8-3-9.1-7.6-10.7v-12.7c4.5-1.6,7.6-5.9,7.6-10.7c0-4.8-3-9.1-7.6-10.7v-8.3h12
	c1.6,4.5,5.9,7.6,10.7,7.6c4.8,0,9.1-3,10.7-7.6h20.3c1.6,4.5,5.9,7.6,10.7,7.6s9.1-3,10.7-7.6h12.7c1.9,5.4,7.6,8.5,13.2,7.2
	C265,101.2,268.7,95.9,268.1,90.2z M52.6,95.3c-2.1,0-3.8-1.7-3.8-3.8c0-2.1,1.7-3.8,3.8-3.8c2.1,0,3.8,1.7,3.8,3.8
	C56.3,93.6,54.6,95.3,52.6,95.3z M86.6,95.3c-2.1,0-3.8-1.7-3.8-3.8c0-2.1,1.7-3.8,3.8-3.8c2.1,0,3.8,1.7,3.8,3.8
	C90.4,93.6,88.7,95.3,86.6,95.3z M128.2,95.3c-2.1,0-3.8-1.7-3.8-3.8c0-2.1,1.7-3.8,3.8-3.8c2.1,0,3.8,1.7,3.8,3.8
	C132,93.6,130.3,95.3,128.2,95.3z M128.2,182.3c-2.1,0-3.8-1.7-3.8-3.8c0-2.1,1.7-3.8,3.8-3.8c2.1,0,3.8,1.7,3.8,3.8
	C132,180.6,130.3,182.3,128.2,182.3z M181.1,174.7c2.1,0,3.8,1.7,3.8,3.8c0,2.1-1.7,3.8-3.8,3.8c-2.1,0-3.8-1.7-3.8-3.8
	C177.4,176.4,179.1,174.7,181.1,174.7z M154.7,152.1c-2.1,0-3.8-1.7-3.8-3.8c0-2.1,1.7-3.8,3.8-3.8c2.1,0,3.8,1.7,3.8,3.8
	C158.5,150.4,156.8,152.1,154.7,152.1z M154.7,118c-2.1,0-3.8-1.7-3.8-3.8c0-2.1,1.7-3.8,3.8-3.8c2.1,0,3.8,1.7,3.8,3.8
	C158.5,116.3,156.8,118,154.7,118z M154.7,68.8c-8.4,0-15.1-6.8-15.1-15.1c0-8.4,6.8-15.1,15.1-15.1s15.1,6.8,15.1,15.1
	C169.8,62.1,163,68.8,154.7,68.8z M181.1,95.3c-2.1,0-3.8-1.7-3.8-3.8c0-2.1,1.7-3.8,3.8-3.8c2.1,0,3.8,1.7,3.8,3.8
	C184.9,93.6,183.2,95.3,181.1,95.3z M222.7,95.3c-2.1,0-3.8-1.7-3.8-3.8c0-2.1,1.7-3.8,3.8-3.8c2.1,0,3.8,1.7,3.8,3.8
	C226.5,93.6,224.8,95.3,222.7,95.3z M256.8,95.3c-2.1,0-3.8-1.7-3.8-3.8c0-2.1,1.7-3.8,3.8-3.8c2.1,0,3.8,1.7,3.8,3.8
	C260.6,93.6,258.9,95.3,256.8,95.3z"/>
</svg>
