<?xml version="1.0" encoding="utf-8"?>
<!-- Generator: Adobe Illustrator 22.0.0, SVG Export Plug-In . SVG Version: 6.00 Build 0)  -->
<svg version="1.1" id="Warstwa_1" xmlns="http://www.w3.org/2000/svg" xmlns:xlink="http://www.w3.org/1999/xlink" x="0px" y="0px"
	 viewBox="0 0 308 308" style="enable-background:new 0 0 308 308;" xml:space="preserve">
<style type="text/css">
	.st0{fill:#132142;}
	.st1{fill:none;stroke:#000000;stroke-width:10;stroke-miterlimit:10;}
	.st2{fill:none;stroke:#000000;stroke-width:8;stroke-miterlimit:10;}
	.st3{display:none;fill:#FFFFFF;}
	.st4{fill:url(#SVGID_1_);}
	.st5{fill:url(#SVGID_2_);}
	.st6{fill:none;stroke:url(#SVGID_3_);stroke-width:7;stroke-miterlimit:10;}
	.st7{opacity:0.43;fill:none;stroke:#132142;stroke-width:7;stroke-miterlimit:10;}
	.st8{fill:none;stroke:#000000;stroke-width:8;stroke-linecap:round;stroke-miterlimit:10;}
	.st9{fill:none;stroke:#FFFFFF;stroke-width:8;stroke-miterlimit:10;}
	.st10{fill:none;stroke:#FFFFFF;stroke-width:5;stroke-miterlimit:10;}
	.st11{stroke:#000000;stroke-miterlimit:10;}
	.st12{fill:none;stroke:#000000;stroke-width:7;stroke-miterlimit:10;}
	.st13{stroke:#000000;stroke-width:3;stroke-miterlimit:10;}
</style>
<g id="surface1_1_">
	<path d="M111.9,251.1l-23.5-40.8c3.6-5.3,5.5-11.7,5.5-18.1c0-0.9-0.1-1.9-0.1-2.8l70.1-40.5c1.7,0.5,3.5,0.8,5.3,0.8
		c5.1,0,9.9-2,13.6-5.5c0,0,2.9-2,4.5-6.8c2.4-7.3,0.9-12.1,0.9-12.1c-0.8-3.2-2.4-6.2-4.7-8.6l3.2-12.1l12.7,3.4
		c1.7,0.5,3.5-0.6,4-2.3l3.4-12.6c0.5-1.7-0.6-3.5-2.3-4c0,0,0,0,0,0l-22.1-5.9c-5.2-1.4-10.6,1.7-12,6.9l-5.6,21
		c-7.6,1.8-13.4,8-14.7,15.7l-68.6,39.6c-14.2-11.1-34.8-8.5-45.9,5.7c-11.1,14.2-8.5,34.8,5.7,45.9c5.1,4,11.4,6.4,17.9,6.8
		l15.2,26.3H28.5v26.2h196.2v-26.2H111.9z M176.5,91.8c0.5-1.7,2.3-2.8,4-2.3l19,5.1l-1.7,6.3l-12.7-3.4c-1.7-0.5-3.5,0.6-4,2.3
		c0,0,0,0,0,0l-3.4,12.7c-0.3-0.2-0.7-0.2-1-0.4c-0.5-0.2-1-0.4-1.4-0.6c-0.6-0.2-1.2-0.3-1.8-0.5c-0.5-0.1-1-0.2-1.5-0.3
		c-0.2,0-0.4-0.1-0.6-0.1L176.5,91.8z M167.7,117.1c0.6-0.1,1.2-0.1,1.8-0.1c0.6,0,1.2,0.1,1.8,0.2c0.2,0,0.3,0.1,0.5,0.1
		c0.6,0.1,1.2,0.3,1.7,0.5c0.3,0.1,0.6,0.3,0.9,0.4c0.4,0.2,0.8,0.4,1.2,0.6c0.7,0.4,1.4,0.9,2,1.4h0c2.5,2.2,4.1,5.2,4.5,8.5
		c0.1,0.5,0.1,1,0.1,1.5c0,7.2-5.8,13.1-13,13.1c-1.6,0-3.2-0.3-4.6-0.8c-5.1-1.9-8.5-6.8-8.5-12.2c0-0.2,0-0.4,0-0.6
		c0-0.1,0-0.1,0-0.2l0.4-2.5C157.9,121.6,162.3,117.7,167.7,117.1L167.7,117.1z M150,134.3c0.1,0.3,0.2,0.5,0.2,0.7
		c0.2,0.6,0.3,1.2,0.6,1.8c0.1,0.4,0.3,0.8,0.5,1.2c0.3,0.6,0.6,1.2,0.9,1.7c0.2,0.4,0.4,0.7,0.6,1.1c0.4,0.6,0.8,1.1,1.2,1.6
		c0.2,0.3,0.4,0.6,0.7,0.8c0.6,0.6,1.2,1.2,1.8,1.7c0.1,0.1,0.3,0.3,0.4,0.4l-64.4,37.2c0-0.1-0.1-0.2-0.1-0.4
		c-0.2-0.7-0.5-1.4-0.7-2c-0.1-0.3-0.2-0.6-0.3-0.8c-0.4-0.9-0.8-1.9-1.3-2.8c-0.1-0.2-0.2-0.3-0.3-0.4c-0.4-0.7-0.9-1.5-1.3-2.2
		c-0.2-0.3-0.4-0.6-0.6-0.8c-0.4-0.6-0.8-1.1-1.2-1.6c-0.1-0.1-0.2-0.3-0.3-0.4L150,134.3z M35,192.3c0-14.4,11.7-26.2,26.2-26.2
		c6.5,0,12.7,2.4,17.5,6.7c4.5,4,7.4,9.4,8.3,15.3c0.2,1.4,0.3,2.7,0.3,4.1c0,14.5-11.8,26.2-26.3,26.2c0,0-0.1,0-0.1,0
		C46.6,218.2,35.1,206.6,35,192.3z M66.4,224.6c0.7-0.1,1.4-0.3,2.1-0.4l0.3-0.1c1.1-0.3,2.1-0.6,3.2-0.9c0.3-0.1,0.5-0.2,0.8-0.3
		c0.9-0.3,1.8-0.7,2.7-1.2c0.1-0.1,0.2-0.1,0.3-0.2c1-0.5,1.9-1,2.8-1.6c0.2-0.2,0.5-0.3,0.7-0.5c0.8-0.5,1.6-1.1,2.3-1.7
		c0.1-0.1,0.2-0.2,0.4-0.3c0.7-0.6,1.4-1.2,2-1.8l20.4,35.4H81.7L66.4,224.6z M218.2,270.7H35v-13.1h183.1V270.7z"/>
	<path d="M61.2,211.9c10.8,0,19.6-8.8,19.6-19.6c0-1-0.1-2.1-0.2-3.1c-1.7-10.7-11.8-18-22.5-16.3c-10.7,1.7-18,11.8-16.3,22.5
		c1.5,9.4,9.6,16.4,19.1,16.5H61.2z M48.1,192.3c0-7.2,5.9-13.1,13.1-13.1c3.2,0,6.3,1.2,8.7,3.4c2.2,2,3.7,4.7,4.2,7.6
		c0.1,0.7,0.2,1.4,0.2,2.1c0,7.2-5.9,13-13.1,13.1h-0.2C53.8,205.2,48.1,199.4,48.1,192.3z"/>
	<path class="st3" d="M169.1,139.9c5.4,0,9.8-4.4,9.8-9.8c0-5.4-4.4-9.8-9.8-9.8c-5.4,0-9.8,4.4-9.8,9.8
		C159.3,135.5,163.7,139.9,169.1,139.9z M169.1,126.8c1.8,0,3.3,1.5,3.3,3.3c0,1.8-1.5,3.3-3.3,3.3c-1.8,0-3.3-1.5-3.3-3.3
		C165.9,128.3,167.3,126.8,169.1,126.8z"/>
	<g>
		<g>
			<path d="M179.4,144.4c3.8,5.3,7.6,10.6,11.4,15.8c0.8,1.1,2,1.8,3.4,1.4c8-2.2,15.9-4.4,23.9-6.6c3.7-1,2.1-6.8-1.6-5.8
				c-8,2.2-15.9,4.4-23.9,6.6c1.1,0.5,2.3,0.9,3.4,1.4c-3.8-5.3-7.6-10.6-11.4-15.8C182.3,138.3,177.1,141.3,179.4,144.4
				L179.4,144.4z"/>
		</g>
	</g>
	<g>
		<g>
			<path d="M188.3,128.1c2.1-1.6,4.2-3.2,6.2-4.8c1.4-1.1,2.9-2.2,4.3-3.3c0.2-0.1,1.3-0.8,1.4-1.1c0.3-0.9,1.9,0.4-0.9,0
				c5.4,0.8,11,0.9,16.4,1.3c3.8,0.3,3.8-5.7,0-6c-2.9-0.2-5.8-0.5-8.7-0.7c-2.5-0.2-5.7-1.1-8.1-0.6c-2.4,0.5-4.7,3.1-6.6,4.5
				c-2.3,1.8-4.7,3.6-7,5.4C182.2,125.3,185.2,130.5,188.3,128.1L188.3,128.1z"/>
		</g>
	</g>
</g>
<g>
	<linearGradient id="SVGID_1_" gradientUnits="userSpaceOnUse" x1="188.6063" y1="136.8537" x2="188.6063" y2="81.5314">
		<stop  offset="5.585490e-02" style="stop-color:#132142"/>
		<stop  offset="0.6946" style="stop-color:#FFFFFF;stop-opacity:0.9108"/>
		<stop  offset="1" style="stop-color:#FFFFFF;stop-opacity:0"/>
	</linearGradient>
	<path class="st4" d="M113.5,85.7c-2.1,1.8-4,3.6-5.9,5.6c-1.8,1.9-3.6,4-5,6.1c-1.4,2.2-2.7,4.4-3.4,6.7c-0.7,2.3-0.7,4.6,0.1,6.5
		c0.7,1.9,2.2,3.6,4.1,5c1.9,1.4,4.1,2.5,6.4,3.4c4.7,1.8,9.8,3,14.9,4c10.3,1.8,20.9,2.7,31.6,3.2c5.3,0.3,10.7,0.4,16,0.5
		c5.3,0.1,10.7,0.2,16.1,0.1c10.7,0,21.4-0.2,32.1-0.7c10.6-0.5,21.3-1.4,31.6-3.2c5.2-0.9,10.2-2.1,15-3.9c2.3-0.9,4.6-2,6.5-3.3
		c1.9-1.3,3.5-3,4.4-4.9c0.9-1.9,1-4.2,0.4-6.5c-0.6-2.3-1.8-4.6-3.2-6.8c-1.4-2.2-3.1-4.3-4.9-6.2c-1.8-2-3.8-3.8-5.8-5.6
		c4.7,2.7,9.2,6,12.9,10.2c1.9,2.1,3.5,4.5,4.6,7.3c0.5,1.4,0.9,2.9,1,4.5c0.1,1.6-0.1,3.3-0.6,4.8c-1,3.2-3.1,5.7-5.4,7.7
		c-2.3,2-4.9,3.5-7.4,4.8c-5.2,2.6-10.6,4.2-16,5.6c-5.4,1.3-10.8,2.4-16.3,3.1c-5.4,0.8-10.9,1.4-16.4,1.8
		c-10.9,0.9-21.8,1.2-32.7,1.2c-5.4,0-10.9-0.1-16.3-0.3c-5.4-0.2-10.9-0.5-16.4-0.9c-5.5-0.5-10.9-1-16.4-1.8
		c-5.4-0.8-10.9-1.8-16.3-3.1c-5.4-1.4-10.8-3.1-16-5.7c-2.6-1.3-5.1-2.9-7.4-4.9c-2.3-2.1-4.3-4.8-5.1-8c-0.4-1.6-0.5-3.3-0.3-4.9
		c0.2-1.6,0.7-3.1,1.3-4.5c1.2-2.7,3-5.1,4.9-7.1C104.2,91.6,108.7,88.3,113.5,85.7z"/>
</g>
<g>
	<linearGradient id="SVGID_2_" gradientUnits="userSpaceOnUse" x1="161.0477" y1="117.1411" x2="220.3344" y2="117.1411">
		<stop  offset="5.585512e-02" style="stop-color:#132142"/>
		<stop  offset="0.7054" style="stop-color:#FFFFFF;stop-opacity:0.7"/>
		<stop  offset="1" style="stop-color:#FFFFFF;stop-opacity:0"/>
	</linearGradient>
	<path class="st5" d="M209.5,41.1c-1.8-2-3.8-3.9-5.8-5.6c-2-1.8-4.1-3.4-6.3-4.8c-2.2-1.4-4.5-2.5-6.9-3.1
		c-2.3-0.6-4.6-0.5-6.5,0.3c-1.9,0.8-3.5,2.4-4.8,4.3c-1.3,1.9-2.3,4.2-3.1,6.6c-1.6,4.8-2.6,9.9-3.3,15.1
		c-1.3,10.4-1.7,21-1.8,31.7c0,5.3,0,10.7,0.2,16c0.1,5.3,0.3,10.7,0.6,16.1c0.5,10.7,1.1,21.4,2.1,32c1,10.6,2.3,21.2,4.5,31.4
		c1.1,5.1,2.6,10.1,4.6,14.8c1,2.3,2.2,4.5,3.6,6.4c1.4,1.9,3.1,3.4,5.1,4.2c1.9,0.8,4.2,0.8,6.5,0.2c2.3-0.7,4.5-2,6.7-3.5
		c2.1-1.5,4.1-3.3,6-5.2c1.9-1.9,3.7-3.9,5.4-6.1c-2.5,4.8-5.6,9.4-9.6,13.3c-2,2-4.3,3.7-7.1,5c-1.4,0.6-2.9,1.1-4.5,1.2
		c-1.6,0.2-3.3,0.1-4.9-0.4c-3.2-0.9-5.9-2.9-7.9-5.1c-2.1-2.2-3.7-4.7-5.1-7.2c-2.8-5.1-4.7-10.4-6.3-15.7
		c-1.6-5.3-2.8-10.7-3.8-16.1c-1-5.4-1.8-10.8-2.5-16.3c-1.4-10.9-2.2-21.7-2.7-32.6c-0.2-5.4-0.4-10.9-0.5-16.3
		c0-5.5,0-10.9,0.2-16.4c0.2-5.5,0.5-10.9,1.1-16.4c0.5-5.5,1.3-11,2.4-16.4c1.1-5.5,2.6-10.9,5-16.2c1.2-2.6,2.6-5.2,4.6-7.6
		c1.9-2.3,4.6-4.5,7.8-5.5c1.6-0.5,3.3-0.6,4.9-0.5c1.6,0.1,3.1,0.5,4.5,1.1c2.8,1.1,5.2,2.7,7.3,4.6
		C203.2,32.1,206.6,36.4,209.5,41.1z"/>
</g>
<linearGradient id="SVGID_3_" gradientUnits="userSpaceOnUse" x1="-2049.9919" y1="-7085.6738" x2="-1891.4003" y2="-7085.6738" gradientTransform="matrix(0 1 -1 0 -6894.3735 2086.3433)">
	<stop  offset="0" style="stop-color:#FFFFFF;stop-opacity:0"/>
	<stop  offset="0.5315" style="stop-color:#132142"/>
</linearGradient>
<circle class="st6" cx="191.3" cy="115.6" r="75.8"/>
<path class="st1" d="M271.3,303H36.7C19.2,303,5,288.8,5,271.3V36.7C5,19.2,19.2,5,36.7,5h234.6C288.8,5,303,19.2,303,36.7v234.6
	C303,288.8,288.8,303,271.3,303z"/>
</svg>
