<?xml version="1.0" encoding="utf-8"?>
<!-- Generator: Adobe Illustrator 22.0.0, SVG Export Plug-In . SVG Version: 6.00 Build 0)  -->
<svg version="1.1" id="Warstwa_1" xmlns="http://www.w3.org/2000/svg" xmlns:xlink="http://www.w3.org/1999/xlink" x="0px" y="0px"
	 viewBox="0 0 308 308" style="enable-background:new 0 0 308 308;" xml:space="preserve">
<style type="text/css">
	.st0{fill:#132142;}
	.st1{fill:none;stroke:#000000;stroke-width:10;stroke-miterlimit:10;}
	.st2{fill:none;stroke:#000000;stroke-width:8;stroke-miterlimit:10;}
	.st3{display:none;fill:#FFFFFF;}
	.st4{fill:url(#SVGID_1_);}
	.st5{fill:url(#SVGID_2_);}
	.st6{fill:none;stroke:url(#SVGID_3_);stroke-width:7;stroke-miterlimit:10;}
	.st7{opacity:0.43;fill:none;stroke:#132142;stroke-width:7;stroke-miterlimit:10;}
	.st8{fill:none;stroke:#000000;stroke-width:8;stroke-linecap:round;stroke-miterlimit:10;}
	.st9{fill:none;stroke:#FFFFFF;stroke-width:8;stroke-miterlimit:10;}
	.st10{fill:none;stroke:#FFFFFF;stroke-width:5;stroke-miterlimit:10;}
	.st11{stroke:#000000;stroke-miterlimit:10;}
	.st12{fill:none;stroke:#000000;stroke-width:7;stroke-miterlimit:10;}
	.st13{stroke:#000000;stroke-width:3;stroke-miterlimit:10;}
</style>
<g id="surface1_2_">
	<path d="M111,225.8l-23.8-41.3c3.6-5.4,5.6-11.8,5.6-18.3c0-0.9-0.1-1.9-0.1-2.9l71-41c1.7,0.5,3.5,0.8,5.3,0.8
		c5.1,0,10-2,13.8-5.5c0,0,2.9-2,4.5-6.8c2.5-7.4,0.9-12.3,0.9-12.3c-0.8-3.3-2.4-6.3-4.7-8.8l3.3-12.2l12.8,3.4
		c1.8,0.5,3.6-0.6,4.1-2.3l3.4-12.8c0.5-1.8-0.6-3.6-2.3-4.1c0,0,0,0,0,0l-22.4-6c-5.3-1.4-10.7,1.7-12.2,7l-5.7,21.2
		c-7.7,1.8-13.6,8.1-14.9,15.9l-69.5,40.1c-14.4-11.2-35.2-8.6-46.4,5.8c-11.2,14.4-8.6,35.2,5.8,46.4c5.2,4.1,11.5,6.5,18.1,6.9
		l15.4,26.6H26.5v26.5h198.7v-26.5H111z M176.4,64.6c0.5-1.8,2.3-2.8,4-2.3l19.2,5.1l-1.7,6.4l-12.8-3.5c-1.8-0.5-3.6,0.6-4.1,2.3
		c0,0,0,0,0,0l-3.4,12.8c-0.3-0.2-0.7-0.2-1-0.4c-0.5-0.2-1-0.4-1.5-0.6c-0.6-0.2-1.2-0.3-1.8-0.5c-0.5-0.1-1-0.2-1.5-0.3
		c-0.2,0-0.4-0.1-0.6-0.1L176.4,64.6z M167.5,90.2c0.6-0.1,1.2-0.1,1.8-0.1c0.6,0,1.2,0.1,1.8,0.2c0.2,0,0.3,0.1,0.5,0.1
		c0.6,0.1,1.2,0.3,1.8,0.5c0.3,0.1,0.6,0.3,1,0.4c0.4,0.2,0.8,0.4,1.2,0.6c0.7,0.4,1.4,0.9,2,1.4h0c2.5,2.2,4.2,5.3,4.5,8.6
		c0.1,0.5,0.1,1,0.1,1.5c0,7.3-5.9,13.2-13.2,13.2c-1.6,0-3.2-0.3-4.7-0.9c-5.2-1.9-8.6-6.9-8.6-12.4c0-0.2,0-0.4,0-0.6
		c0-0.1,0-0.1,0-0.2l0.4-2.5C157.5,94.7,162,90.8,167.5,90.2L167.5,90.2z M149.5,107.6c0.1,0.3,0.2,0.5,0.2,0.8
		c0.2,0.6,0.3,1.2,0.6,1.8c0.1,0.4,0.3,0.8,0.5,1.2c0.3,0.6,0.6,1.2,0.9,1.7c0.2,0.4,0.4,0.7,0.6,1.1c0.4,0.6,0.8,1.1,1.2,1.7
		c0.2,0.3,0.4,0.6,0.7,0.8c0.6,0.6,1.2,1.2,1.8,1.8c0.1,0.1,0.3,0.3,0.4,0.4l-65.2,37.7c0-0.1-0.1-0.3-0.1-0.4
		c-0.2-0.7-0.5-1.4-0.8-2.1c-0.1-0.3-0.2-0.6-0.3-0.8c-0.4-1-0.9-1.9-1.3-2.8c-0.1-0.2-0.2-0.3-0.3-0.5c-0.4-0.7-0.9-1.5-1.4-2.2
		c-0.2-0.3-0.4-0.6-0.6-0.9c-0.4-0.6-0.8-1.1-1.3-1.7c-0.1-0.1-0.2-0.3-0.3-0.4L149.5,107.6z M33.1,166.2
		c0-14.6,11.9-26.5,26.5-26.5c6.6,0,12.9,2.4,17.7,6.8c4.5,4.1,7.5,9.5,8.4,15.5c0.2,1.4,0.3,2.7,0.3,4.1c0,14.7-12,26.5-26.6,26.5
		c0,0-0.1,0-0.1,0C44.8,192.5,33.2,180.7,33.1,166.2z M64.8,198.9c0.7-0.1,1.4-0.3,2.1-0.4l0.3-0.1c1.1-0.3,2.1-0.6,3.2-0.9
		c0.3-0.1,0.5-0.2,0.8-0.3c0.9-0.3,1.9-0.7,2.8-1.2c0.1-0.1,0.2-0.1,0.3-0.2c1-0.5,1.9-1,2.9-1.6c0.2-0.2,0.5-0.3,0.7-0.5
		c0.8-0.5,1.6-1.1,2.4-1.7c0.1-0.1,0.3-0.2,0.4-0.3c0.7-0.6,1.4-1.2,2-1.8l20.7,35.8H80.4L64.8,198.9z M218.6,245.7H33.1v-13.2
		h185.4V245.7z"/>
	<path d="M59.6,186.1c11,0,19.8-8.9,19.9-19.9c0-1-0.1-2.1-0.3-3.1c-1.7-10.8-11.9-18.2-22.7-16.5c-10.8,1.7-18.2,11.9-16.5,22.7
		c1.5,9.5,9.7,16.6,19.3,16.7H59.6z M46.4,166.2c0-7.3,5.9-13.2,13.2-13.2c3.3,0,6.4,1.2,8.9,3.4c2.2,2,3.7,4.7,4.2,7.7
		c0.1,0.7,0.2,1.4,0.2,2.1c0,7.3-5.9,13.2-13.2,13.2h-0.2C52.1,179.4,46.4,173.5,46.4,166.2z"/>
	<path class="st3" d="M168.9,113.2c5.5,0,9.9-4.4,9.9-9.9c0-5.5-4.4-9.9-9.9-9.9c-5.5,0-9.9,4.4-9.9,9.9
		C159,108.8,163.4,113.2,168.9,113.2z M168.9,100c1.8,0,3.3,1.5,3.3,3.3c0,1.8-1.5,3.3-3.3,3.3c-1.8,0-3.3-1.5-3.3-3.3
		C165.6,101.5,167.1,100,168.9,100z"/>
	<g>
		<g>
			<path d="M181.9,119.2c6.6,0,13.2,0,19.7-0.1c1,0,2.1-0.6,2.6-1.5c3.8-7.4,7.6-14.7,11.4-22.1c1.8-3.4-3.4-6.5-5.2-3
				c-3.8,7.4-7.6,14.7-11.4,22.1c0.9-0.5,1.7-1,2.6-1.5c-6.6,0-13.2,0-19.7,0.1C178,113.3,178,119.3,181.9,119.2L181.9,119.2z"/>
		</g>
	</g>
	<g>
		<g>
			<path d="M186.6,98.1c2.1-1.3,4.2-2.5,6.3-3.8c0.9-0.6,1.9-1.1,2.8-1.7c-1.2,0.8-1.5,0.1,0.3,0.4c4.9,0.8,10.1,0.8,15.1,1.2
				c3.8,0.3,3.8-5.7,0-6c-5.2-0.4-10.6-1.4-15.8-1.3c-4.1,0.1-8.2,3.9-11.7,6C180.3,94.9,183.3,100.1,186.6,98.1L186.6,98.1z"/>
		</g>
	</g>
</g>
<polygon class="st7" points="213.7,96.3 156,196.3 271.4,196.3 "/>
<g>
	<path d="M177.2,166.7c0,11-4.1,17-11.2,17c-6.3,0-10.6-5.9-10.7-16.6c0-10.8,4.7-16.8,11.2-16.8
		C173.4,150.4,177.2,156.5,177.2,166.7z M159.7,167.2c0,8.4,2.6,13.1,6.5,13.1c4.5,0,6.6-5.2,6.6-13.4c0-7.9-2-13.1-6.5-13.1
		C162.5,153.8,159.7,158.4,159.7,167.2z"/>
	<path d="M179.8,189.3c1.1-2.9,2.4-8.2,3-11.8l4.9-0.5c-1.1,4.2-3.3,9.7-4.7,12L179.8,189.3z"/>
	<path d="M210.7,154.6h-12.3l-1.2,8.3c0.7-0.1,1.4-0.2,2.6-0.2c2.5,0,5,0.5,6.9,1.7c2.5,1.4,4.6,4.2,4.6,8.3c0,6.3-5,11-12,11
		c-3.5,0-6.5-1-8-2l1.1-3.3c1.3,0.8,4,1.8,6.9,1.8c4.1,0,7.6-2.7,7.6-7c0-4.2-2.8-7.1-9.3-7.1c-1.8,0-3.3,0.2-4.5,0.3l2.1-15.5h15.4
		V154.6z"/>
	<path d="M233.1,170.2L233.1,170.2c0.7-0.8,1.5-1.9,2.2-2.7l7-8.3h5.3l-9.3,9.9l10.6,14.1h-5.3l-8.3-11.5l-2.2,2.5v9h-4.3V148h4.3
		V170.2z"/>
	<path d="M272.7,159.2c-0.1,1.7-0.2,3.7-0.2,6.6v13.9c0,5.5-1.1,8.9-3.4,11c-2.3,2.2-5.7,2.9-8.7,2.9c-2.9,0-6-0.7-8-2l1.1-3.3
		c1.6,1,4.1,1.9,7,1.9c4.5,0,7.7-2.3,7.7-8.4v-2.7h-0.1c-1.3,2.2-3.9,4-7.6,4c-5.9,0-10.2-5.1-10.2-11.7c0-8.1,5.3-12.7,10.8-12.7
		c4.2,0,6.4,2.2,7.5,4.2h0.1l0.2-3.6H272.7z M268.2,168.6c0-0.7,0-1.4-0.2-2c-0.8-2.5-2.9-4.6-6.1-4.6c-4.2,0-7.1,3.5-7.1,9.1
		c0,4.7,2.4,8.6,7.1,8.6c2.7,0,5.1-1.7,6-4.5c0.2-0.7,0.3-1.6,0.3-2.3V168.6z"/>
</g>
<path class="st1" d="M271.3,303.1H36.7C19.2,303.1,5,288.9,5,271.4V36.8C5,19.3,19.2,5.1,36.7,5.1h234.6c17.5,0,31.7,14.2,31.7,31.7
	v234.6C303,288.9,288.8,303.1,271.3,303.1z"/>
</svg>
