<?xml version="1.0" encoding="utf-8"?>
<!-- Generator: Adobe Illustrator 22.0.0, SVG Export Plug-In . SVG Version: 6.00 Build 0)  -->
<svg version="1.1" id="Warstwa_1" xmlns="http://www.w3.org/2000/svg" xmlns:xlink="http://www.w3.org/1999/xlink" x="0px" y="0px"
	 viewBox="0 0 308 308" style="enable-background:new 0 0 308 308;" xml:space="preserve">
<style type="text/css">
	.st0{fill:#132142;}
	.st1{fill:none;stroke:#000000;stroke-width:10;stroke-miterlimit:10;}
	.st2{fill:none;stroke:#000000;stroke-width:8;stroke-miterlimit:10;}
	.st3{display:none;fill:#FFFFFF;}
	.st4{fill:url(#SVGID_1_);}
	.st5{fill:url(#SVGID_2_);}
	.st6{fill:none;stroke:url(#SVGID_3_);stroke-width:7;stroke-miterlimit:10;}
	.st7{opacity:0.43;fill:none;stroke:#132142;stroke-width:7;stroke-miterlimit:10;}
	.st8{fill:none;stroke:#000000;stroke-width:8;stroke-linecap:round;stroke-miterlimit:10;}
	.st9{fill:none;stroke:#FFFFFF;stroke-width:8;stroke-miterlimit:10;}
	.st10{fill:none;stroke:#FFFFFF;stroke-width:5;stroke-miterlimit:10;}
	.st11{stroke:#000000;stroke-miterlimit:10;}
	.st12{fill:none;stroke:#000000;stroke-width:7;stroke-miterlimit:10;}
	.st13{stroke:#000000;stroke-width:3;stroke-miterlimit:10;}
</style>
<g>
	<g>
		<path d="M252.6,189.6c6.5-6,10.4-10.7,13.1-15.7c3.2-5.9,4.7-12.4,4.7-20.4c0-0.6,0-1.3,0-2.1c0-1.4-1.2-2.5-2.5-2.5
			c0,0-0.1,0-0.1,0c-1.4,0-2.5,1.2-2.4,2.6c0,0.7,0,1.4,0,1.9c0,14.7-5.5,22.4-16.2,32.4c-11.7,10.9-12.7,24.6-12.8,26.3
			c-2,13.8-10.9,19.5-18,20.1c-8.4,0.8-15.6-4.3-18.5-13c-3.6-10.9-15.1-59.1-9.2-82.2c3.2-12.6,13.6-21.4,27.9-23.6
			c13.7-2.1,31.7,2.6,41,17.7c0.7,1.2,2.3,1.6,3.5,0.8c1.2-0.7,1.6-2.3,0.8-3.5c-4.7-7.6-11.7-13.5-20.4-17.1
			c-8-3.3-17.1-4.3-25.7-3c-7.6,1.2-14.5,4.1-20,8.5c-6,4.8-10.1,11.3-12,18.8c-3.3,12.9-1.4,32.5,0.8,46.7
			c2.7,17.3,6.6,32.4,8.5,38.3c1.8,5.5,5.2,10,9.6,12.9c3.6,2.4,7.8,3.6,12.1,3.6c0.7,0,1.3,0,2-0.1c5.4-0.5,10.5-3,14.4-7
			c4.3-4.4,7.1-10.5,8.1-17.6c0-0.1,0-0.2,0-0.3C241.5,212.4,241.9,199.6,252.6,189.6L252.6,189.6z"/>
		<path d="M238.8,174.8c-5.7,5.3-9.6,11.9-12.8,17.7c-2.9,5.2-6.6,7.9-10.1,7.2c-3.9-0.7-7-5.1-7.9-11.2c-0.2-1.4-1.5-2.3-2.9-2.1
			c-1.4,0.2-2.3,1.5-2.1,2.9c1.2,8.3,5.9,14.4,12,15.5c0.7,0.1,1.3,0.2,2,0.2c5.1,0,9.9-3.5,13.5-10c3-5.4,6.6-11.7,11.8-16.4
			c8.1-7.5,13-12.9,13-25c0-13.4-6.3-23.3-17.6-27.9c-4.7-1.9-10.1-2.7-15.3-2.3c-5.7,0.4-10.8,2.3-14.7,5.4c-3.6,2.8-6,6.5-7.1,11
			c-0.9,3.8-0.7,7,0.8,10.3c2.8,6.2,8.3,5.6,12.4,5.1c0.6-0.1,1.2-0.1,1.7-0.2c2.4-0.2,4.7,0.8,6.1,2.7c1.1,1.5,1.6,3.3,1.4,5.1
			c-0.2,1.8-1.2,3.5-2.7,4.6c-1.1,0.8-1.3,2.4-0.5,3.5c0.8,1.1,2.4,1.3,3.5,0.5c2.6-1.9,4.2-4.8,4.6-7.9c0.4-3.2-0.4-6.3-2.4-8.9
			c-2.5-3.3-6.5-5-10.6-4.7c-0.6,0.1-1.3,0.1-1.9,0.2c-4.4,0.5-6.1,0.4-7.2-2.1c-1-2.2-1.2-4.4-0.5-7.1c0.8-3.4,2.6-6,5.3-8.2
			c6.2-4.8,16.5-5.8,25-2.4c11.9,4.8,14.4,15.3,14.4,23.2C250.2,163.3,246.7,167.5,238.8,174.8L238.8,174.8z"/>
		<path d="M264.4,142.1L264.4,142.1c0.5,0.5,1.1,0.7,1.8,0.7c0.6,0,1.3-0.2,1.8-0.7c1-1,1-2.6,0-3.6c-1-1-2.6-1-3.6,0
			C263.4,139.5,263.4,141.2,264.4,142.1z"/>
	</g>
</g>
<path class="st1" d="M271.3,303H36.7C19.2,303,5,288.8,5,271.3V36.7C5,19.2,19.2,5,36.7,5h234.6C288.8,5,303,19.2,303,36.7v234.6
	C303,288.8,288.8,303,271.3,303z"/>
<path d="M37.2,122.3c-1.6,0-2.8,1.9-2.8,4.3v92.2c0,2.4,1.3,4.3,2.8,4.3s2.8-1.9,2.8-4.3v-92.2C40,124.3,38.7,122.3,37.2,122.3z"/>
<path d="M101.2,114.5c-1.6,0-2.8,1.9-2.8,4.3v97.4c0,2.4,1.3,4.3,2.8,4.3c1.6,0,2.8-1.9,2.8-4.3v-97.4
	C104,116.4,102.7,114.5,101.2,114.5z"/>
<path d="M131.2,114.5c-1.6,0-2.8,1.9-2.8,4.3v97.4c0,2.4,1.3,4.3,2.8,4.3s2.8-1.9,2.8-4.3v-97.4C134,116.4,132.7,114.5,131.2,114.5z
	"/>
<path d="M54.9,82c-1.7,0-3.1,1.9-3.1,4.3L51,242.2c0,2.4,1.4,4.3,3.1,4.4c1.7,0,3.1-1.9,3.1-4.3L58,86.4C58,84,56.6,82,54.9,82z"/>
<path d="M69.3,155.3c-1.5,0-2.7,1.9-2.7,4.3v17.3c0,2.4,1.2,4.3,2.7,4.3s2.7-1.9,2.7-4.3v-17.3C72,157.2,70.8,155.3,69.3,155.3z"/>
<path d="M158.3,155.3c-1.5,0-2.7,1.9-2.7,4.3v17.3c0,2.4,1.2,4.3,2.7,4.3c1.5,0,2.7-1.9,2.7-4.3v-17.3
	C161,157.2,159.8,155.3,158.3,155.3z"/>
<path d="M84.9,145.6c-1.7,0-3.1,1.9-3.1,4.3v35.2c0,2.4,1.4,4.3,3.1,4.3c1.7,0,3.1-1.9,3.1-4.3v-35.2
	C88,147.5,86.6,145.6,84.9,145.6z"/>
<path d="M145.9,145.6c-1.7,0-3.1,1.9-3.1,4.3v35.2c0,2.4,1.4,4.3,3.1,4.3c1.7,0,3.1-1.9,3.1-4.3v-35.2
	C149,147.5,147.6,145.6,145.9,145.6z"/>
<path d="M116.9,82c-1.7,0-3.1,1.9-3.1,4.3L113,242.2c0,2.4,1.4,4.3,3.1,4.4c1.7,0,3.1-1.9,3.1-4.3L120,86.4
	C120,84,118.6,82,116.9,82z"/>
<path class="st2" d="M4,68c0,0,15.9-25,37-25c19,0,12,25,39,25s14-23,43-23s18,23,42,23s18-28,45-28s22,28,43,28s18-28,37-28
	c17,0,12,0,12,0"/>
</svg>
