<?xml version="1.0" encoding="utf-8"?>
<!-- Generator: Adobe Illustrator 22.0.0, SVG Export Plug-In . SVG Version: 6.00 Build 0)  -->
<svg version="1.1" id="Warstwa_1" xmlns="http://www.w3.org/2000/svg" xmlns:xlink="http://www.w3.org/1999/xlink" x="0px" y="0px"
	 viewBox="0 0 308 308" style="enable-background:new 0 0 308 308;" xml:space="preserve">
<style type="text/css">
	.st0{fill:#132142;}
	.st1{fill:none;stroke:#000000;stroke-width:10;stroke-miterlimit:10;}
	.st2{fill:none;stroke:#000000;stroke-width:8;stroke-miterlimit:10;}
	.st3{display:none;fill:#FFFFFF;}
	.st4{fill:url(#SVGID_1_);}
	.st5{fill:url(#SVGID_2_);}
	.st6{fill:none;stroke:url(#SVGID_3_);stroke-width:7;stroke-miterlimit:10;}
	.st7{opacity:0.43;fill:none;stroke:#132142;stroke-width:7;stroke-miterlimit:10;}
	.st8{fill:none;stroke:#000000;stroke-width:8;stroke-linecap:round;stroke-miterlimit:10;}
	.st9{fill:none;stroke:#FFFFFF;stroke-width:8;stroke-miterlimit:10;}
	.st10{fill:none;stroke:#FFFFFF;stroke-width:5;stroke-miterlimit:10;}
	.st11{stroke:#000000;stroke-miterlimit:10;}
	.st12{fill:none;stroke:#000000;stroke-width:7;stroke-miterlimit:10;}
	.st13{stroke:#000000;stroke-width:3;stroke-miterlimit:10;}
</style>
<g id="outline_2_">
	<path d="M154,17C78.3,17,17,78.3,17,154s61.3,137,137,137s137-61.3,137-137C290.9,78.4,229.6,17.1,154,17z M154,281.9
		c-70.6,0-127.9-57.2-127.9-127.9S83.4,26.1,154,26.1S281.9,83.4,281.9,154C281.8,224.6,224.6,281.8,154,281.9z"/>
	<path d="M154,35.3C88.4,35.3,35.3,88.4,35.3,154S88.4,272.7,154,272.7S272.7,219.6,272.7,154C272.7,88.5,219.5,35.3,154,35.3z
		 M263.5,149.4h-23c-0.9-17.8-7.3-35-18.4-49l7.9-6.9l-6-6.9l-7.9,6.9c-5-5.1-10.6-9.6-16.7-13.3l11-20.1
		C242,79.1,261.9,112.7,263.5,149.4z M108.3,94.6c0,5-4.1,9.1-9.1,9.1s-9.1-4.1-9.1-9.1s4.1-9.1,9.1-9.1S108.3,89.6,108.3,94.6z
		 M89.9,110.3c2.8,1.7,6,2.6,9.3,2.6c10.1,0,18.3-8.2,18.3-18.3c0-2.8-0.7-5.5-1.9-8c10.4-5.9,22-9.4,33.9-10.1V104
		c-24.1,2.2-43.2,21.3-45.4,45.4H76.6C77.3,135.4,82,121.9,89.9,110.3z M176.8,186c0-5,4.1-9.1,9.1-9.1c5,0,9.1,4.1,9.1,9.1
		c0,5-4.1,9.1-9.1,9.1C180.9,195.1,176.8,191,176.8,186z M192.3,168.9c-9.3-3.6-19.8,1.1-23.4,10.4c-1.6,4.2-1.6,8.8,0,13
		c-3.3,1.3-6.8,2.2-10.3,2.5v-36.3h36.3C194.5,162.1,193.6,165.6,192.3,168.9z M158.6,136.1v-22.9c3.8,0.4,7.5,1.4,11,2.8
		L158.6,136.1z M177.5,120.4c1.5,1,2.8,2.1,4.1,3.3l-11.4,10L177.5,120.4z M149.4,149.4h-36.3c2.2-19.1,17.2-34.1,36.3-36.3V149.4z
		 M149.4,158.6v36.3c-19.1-2.2-34.1-17.2-36.3-36.3H149.4z M180.4,149.4l13.6-4.9c0.4,1.6,0.7,3.2,0.9,4.9H180.4z M175.1,141.6
		l12.6-11.1c1.2,1.7,2.2,3.5,3.2,5.4L175.1,141.6z M188.6,117.7c-2.1-2-4.3-3.8-6.6-5.4l13.1-24c5.2,3.2,9.9,7,14.2,11.3
		L188.6,117.7z M173.9,107.9c-4.9-2.1-10.1-3.4-15.4-3.9V76.6c9.9,0.6,19.5,3,28.5,7.3L173.9,107.9z M158.6,67.5v-23
		c15.2,0.6,30.2,4.5,43.8,11.3l-11,20.1C181.1,70.9,170,68.1,158.6,67.5z M104,158.6c2.2,24.1,21.3,43.2,45.4,45.4v27.4
		c-39.2-2.3-70.5-33.6-72.8-72.8H104z M158.6,204c5.4-0.5,10.7-1.9,15.7-4.1c7.6,6.5,19.1,5.6,25.6-2c5.8-6.8,5.8-16.8,0-23.6
		c2.2-5,3.6-10.3,4.1-15.7h27.4c-2.3,39.2-33.6,70.5-72.9,72.9V204z M204,149.4c-0.3-2.7-0.7-5.3-1.4-7.9l16.9-6l-3.1-8.6l-16.9,6
		c-1.4-2.9-3-5.7-4.9-8.4l20.7-18.1c9.6,12.4,15.2,27.3,16.1,43H204z M149.4,44.5v22.9c-14.1,0.7-27.8,4.9-39.9,12.2
		c-8.2-5.8-19.6-3.7-25.3,4.5c-4.1,5.8-4.4,13.5-0.8,19.6c-9.6,13.4-15.2,29.3-16,45.8H44.5C46.9,92.5,92.5,46.9,149.4,44.5z
		 M44.5,158.6h23c2.4,44.2,37.7,79.6,82,82v23C92.5,261.1,46.9,215.5,44.5,158.6z M158.6,263.5v-23c44.2-2.4,79.6-37.7,82-82h23
		C261.1,215.5,215.5,261.1,158.6,263.5z"/>
	<rect x="94.6" y="181.4" width="9.1" height="9.1"/>
	<rect x="208.8" y="227.1" width="9.1" height="9.1"/>
	<rect x="172.3" y="53.5" width="9.1" height="9.1"/>
</g>
<path class="st1" d="M271.3,303H36.7C19.2,303,5,288.8,5,271.3V36.7C5,19.2,19.2,5,36.7,5h234.6C288.8,5,303,19.2,303,36.7v234.6
	C303,288.8,288.8,303,271.3,303z"/>
<g>
	<g>
		<path d="M15.7,232.2c2.6,12.5,7.8,25.6,16,35.6c9,11,23.5,18.9,37.1,22.6c5.6,1.5,8-7.2,2.4-8.7C59,278.4,46,271.3,38,261.4
			c-7.1-8.8-11.4-20.6-13.7-31.6C23.2,224.1,14.5,226.5,15.7,232.2L15.7,232.2z"/>
	</g>
</g>
<g>
	<g>
		<path d="M281.7,229.8c-2.3,11-6.6,22.8-13.7,31.6c-7.9,9.9-21,17-33.2,20.3c-5.6,1.5-3.2,10.2,2.4,8.7
			c13.7-3.7,28.1-11.6,37.1-22.6c8.2-9.9,13.4-23,16-35.6C291.5,226.5,282.8,224.1,281.7,229.8L281.7,229.8z"/>
	</g>
</g>
<g>
	<g>
		<path d="M24.3,77.2c2.3-11,6.6-22.8,13.7-31.6c7.9-9.9,21-17,33.2-20.3c5.6-1.5,3.2-10.2-2.4-8.7c-13.7,3.7-28.1,11.6-37.1,22.6
			c-8.2,9.9-13.4,23-16,35.6C14.5,80.5,23.2,82.9,24.3,77.2L24.3,77.2z"/>
	</g>
</g>
<g>
	<g>
		<path d="M290.3,74.8c-2.6-12.5-7.8-25.6-16-35.6c-9-11-23.5-18.9-37.1-22.6c-5.6-1.5-8,7.2-2.4,8.7C247,28.6,260,35.7,268,45.6
			c7.1,8.8,11.4,20.6,13.7,31.6C282.8,82.9,291.5,80.5,290.3,74.8L290.3,74.8z"/>
	</g>
</g>
</svg>
