<?xml version="1.0" encoding="UTF-8" standalone="no"?>
<!DOCTYPE svg PUBLIC "-//W3C//DTD SVG 1.1//EN" "http://www.w3.org/Graphics/SVG/1.1/DTD/svg11.dtd">
<svg width="100%" height="100%" viewBox="0 0 309 308" version="1.1" xmlns="http://www.w3.org/2000/svg" xmlns:xlink="http://www.w3.org/1999/xlink" xml:space="preserve" xmlns:serif="http://www.serif.com/" style="fill-rule:evenodd;clip-rule:evenodd;stroke-miterlimit:10;">
    <g>
        <g>
            <path d="M271.7,303L37,303C19.5,303 5.3,288.8 5.3,271.3L5.3,36.7C5.3,19.2 19.5,5 37,5L271.6,5C289.1,5 303.3,19.2 303.3,36.7L303.3,271.3C303.3,288.8 289.2,303 271.7,303Z" style="fill:none;fill-rule:nonzero;stroke:black;stroke-width:10px;"/>
            <g>
                <path d="M37.3,160.6L50.7,181.8L64.1,160.6L79.4,160.6L58.1,191.8L78.7,222.2L63.5,222.2L50.8,201.8L38,222.2L22.5,222.2L43.1,191.8L21.8,160.6L37.3,160.6Z" style="fill-rule:nonzero;"/>
                <path d="M96.7,223C94.4,223 92.3,222.6 90.4,221.9C88.5,221.2 86.8,220.2 85.4,218.9C84,217.6 82.9,216.1 82.1,214.3C81.3,212.5 80.9,210.6 80.9,208.5C80.9,206.2 81.4,204.2 82.3,202.3C83.3,200.5 84.6,198.9 86.3,197.5C88,196.2 90.1,195.1 92.5,194.4C94.9,193.6 97.5,193.3 100.4,193.3C102.3,193.3 104.2,193.5 105.9,193.8C107.7,194.1 109.3,194.6 110.6,195.2L110.6,193.1C110.6,187.8 107.6,185.2 101.5,185.2C99,185.2 96.6,185.6 94.4,186.5C92.1,187.3 89.8,188.6 87.3,190.3L83.2,181.6C86.2,179.6 89.3,178.2 92.6,177.2C95.8,176.2 99.3,175.7 102.9,175.7C109.8,175.7 115.1,177.3 118.9,180.6C122.7,183.8 124.5,188.6 124.5,194.8L124.5,206.5C124.5,207.9 124.7,208.9 125.2,209.4C125.6,210 126.4,210.3 127.5,210.4L127.5,222.1C126.3,222.4 125.2,222.6 124.2,222.7C123.2,222.8 122.3,222.8 121.5,222.8C118.9,222.8 116.9,222.3 115.6,221.3C114.3,220.3 113.4,218.9 113.1,217L112.8,214.9C110.8,217.5 108.4,219.5 105.6,220.9C102.8,222.3 99.8,223 96.7,223ZM100.8,213C102.3,213 103.8,212.7 105.2,212.2C106.6,211.7 107.8,211 108.7,210.1C110,209.1 110.7,208 110.7,206.8L110.7,202.5C109.5,202 108.2,201.7 106.8,201.4C105.4,201.1 104.1,201 102.9,201C100.4,201 98.3,201.6 96.6,202.7C95,203.9 94.1,205.4 94.1,207.2C94.1,208.9 94.7,210.3 96,211.3C97.2,212.5 98.8,213 100.8,213Z" style="fill-rule:nonzero;"/>
                <path d="M145.3,222.2L129.2,176.7L143.5,176.7L153.5,211.1L163.6,176.7L176.5,176.7L160.5,222.2L145.3,222.2Z" style="fill-rule:nonzero;"/>
                <path d="M181.8,171.4L181.8,158.8L195.7,158.8L195.7,171.4L181.8,171.4ZM181.8,222.2L181.8,176.7L195.7,176.7L195.7,222.2L181.8,222.2Z" style="fill-rule:nonzero;"/>
                <path d="M227,223C223.2,223 219.8,222.4 216.7,221.1C213.6,219.8 211.1,218.2 209,216C206.9,213.9 205.3,211.4 204.2,208.6C203.1,205.8 202.6,202.9 202.6,199.8C202.6,196.5 203.1,193.4 204.2,190.5C205.3,187.6 206.9,185 209,182.8C211.1,180.6 213.6,178.9 216.7,177.6C219.7,176.3 223.2,175.7 227.1,175.7C231,175.7 234.4,176.3 237.4,177.6C240.4,178.9 242.9,180.6 245,182.8C247.1,185 248.7,187.5 249.7,190.3C250.8,193.1 251.3,196.1 251.3,199.2C251.3,200 251.3,200.8 251.2,201.6C251.1,202.4 251.1,203.1 250.9,203.6L217.3,203.6C217.5,206.7 218.6,209 220.6,210.6C222.6,212.2 224.9,213 227.4,213C229.4,213 231.4,212.5 233.3,211.5C235.2,210.5 236.4,209.2 237.1,207.5L248.9,210.8C247.1,214.4 244.3,217.3 240.6,219.6C236.8,221.9 232.3,223 227,223ZM236.7,195.1C236.4,192.2 235.4,189.9 233.6,188.2C231.8,186.5 229.6,185.7 226.9,185.7C224.2,185.7 221.9,186.6 220.2,188.3C218.4,190 217.4,192.3 217.1,195.1L236.7,195.1Z" style="fill-rule:nonzero;"/>
                <path d="M286.6,188.5C283.2,188.6 280.2,189.1 277.5,190.1C274.8,191.1 272.8,192.7 271.6,194.8L271.6,222.1L257.7,222.1L257.7,176.6L270.4,176.6L270.4,185.8C272,182.7 274,180.3 276.4,178.6C278.9,176.9 281.5,176 284.2,175.9L285.6,175.9C285.9,175.9 286.2,175.9 286.5,176L286.5,188.5L286.6,188.5Z" style="fill-rule:nonzero;"/>
            </g>
            <g id="g2100_2_">
                <g id="g2096_2_" transform="matrix(1,0,0,1,0,-11.5404)">
                    <path id="path14_3_" d="M285.6,142.8L285.6,142L286.1,142C286.4,142 286.7,142 286.7,142.3C286.7,142.6 286.5,142.7 286.2,142.7L285.6,142.7L285.6,142.8ZM285.6,143.3L285.9,143.3L286.6,144.6L287.4,144.6L286.6,143.3C287,143.3 287.4,143.1 287.4,142.5C287.4,141.8 286.9,141.6 286.1,141.6L284.9,141.6L284.9,144.7L285.6,144.7L285.6,143.3ZM289,143.1C289,141.3 287.6,140.2 286,140.2C284.4,140.2 283,141.3 283,143.1C283,144.9 284.4,146 286,146C287.6,146 289,144.9 289,143.1M288.2,143.1C288.2,144.4 287.2,145.3 286.1,145.3C284.9,145.3 284,144.4 284,143.1C284,141.8 285,140.9 286.1,140.9C287.2,140.9 288.2,141.7 288.2,143.1" style="fill-rule:nonzero;"/>
                    <path id="path16_2_" d="M179.9,112.4L179.9,144.9L189.1,144.9L189.1,112.4L179.9,112.4ZM107.7,112.3L107.7,144.9L117,144.9L117,120.2L124.2,120.2C126.6,120.2 128.3,120.8 129.4,122C130.8,123.5 131.4,126 131.4,130.6L131.4,144.9L140.4,144.9L140.4,126.9C140.4,114.1 132.2,112.3 124.2,112.3L107.7,112.3ZM194.6,112.4L194.6,144.9L209.5,144.9C217.4,144.9 220,143.6 222.8,140.6C224.8,138.5 226.1,134 226.1,129C226.1,124.4 225,120.4 223.1,117.8C219.7,113.3 214.8,112.4 207.5,112.4L194.6,112.4ZM203.7,119.5L207.6,119.5C213.3,119.5 217,122.1 217,128.7C217,135.4 213.3,137.9 207.6,137.9L203.7,137.9L203.7,119.5ZM166.6,112.4L158.9,138.1L151.6,112.4L141.7,112.4L152.2,144.9L165.4,144.9L176,112.4L166.6,112.4ZM230.4,144.9L239.6,144.9L239.6,112.4L230.4,112.4L230.4,144.9ZM256.1,112.4L243.3,144.9L252.3,144.9L254.3,139.2L269.4,139.2L271.3,144.9L281.1,144.9L268.2,112.4L256.1,112.4ZM262,118.4L267.5,133.6L256.2,133.6L262,118.4Z" style="fill-rule:nonzero;"/>
                </g>
                <path id="path2045_2_" d="M48.9,107.3L48.9,102.7C49.3,102.7 49.8,102.6 50.3,102.6C63,102.2 71.3,113.5 71.3,113.5C71.3,113.5 62.3,126 52.7,126C51.3,126 50.1,125.8 49,125.4L49,111.3C53.9,111.9 54.9,114.1 57.9,119L64.5,113.4C64.5,113.4 59.7,107.1 51.6,107.1C50.6,107.1 49.8,107.2 48.9,107.3M48.9,92L48.9,98.9C49.4,98.9 49.8,98.8 50.3,98.8C67.9,98.2 79.4,113.3 79.4,113.3C79.4,113.3 66.2,129.3 52.5,129.3C51.2,129.3 50.1,129.2 49,129L49,133.3C49.9,133.4 50.9,133.5 52,133.5C64.8,133.5 74,127 83,119.2C84.5,120.4 90.6,123.3 91.8,124.5C83.3,131.6 63.4,137.4 52.2,137.4C51.1,137.4 50.1,137.3 49.1,137.2L49.1,143.2L97.7,143.2L97.7,92L48.9,92ZM48.9,125.3L48.9,129C37.1,126.9 33.8,114.6 33.8,114.6C33.8,114.6 39.5,108.3 48.9,107.3L48.9,111.3C44,110.7 40.1,115.3 40.1,115.3C40.1,115.3 42.3,123.1 48.9,125.3M27.9,114C27.9,114 34.9,103.7 48.9,102.6L48.9,98.8C33.4,100.1 20,113.3 20,113.3C20,113.3 27.6,135.3 48.9,137.3L48.9,133.3C33.3,131.3 27.9,114 27.9,114" style="fill-rule:nonzero;"/>
            </g>
        </g>
    </g>
</svg>
