<?xml version="1.0" encoding="utf-8"?>
<!-- Generator: Adobe Illustrator 25.0.0, SVG Export Plug-In . SVG Version: 6.00 Build 0)  -->
<svg version="1.1" id="Layer_1" xmlns="http://www.w3.org/2000/svg" xmlns:xlink="http://www.w3.org/1999/xlink" x="0px" y="0px"
	 viewBox="0 0 1080 1080" style="enable-background:new 0 0 1080 1080;" xml:space="preserve">
<style type="text/css">
	.st0{opacity:0.51;fill:#EECBAB;}
</style>
<path class="st0" d="M100.66,511.01c-0.75,18.03-11.27,34.2-27.75,41.55c-5.82,2.59-12.34,5.51-19.65,8.8
	c-89.47,40.23,0,35.79,0,35.79h776.78c235.77,0,254.95,0.6,226.3-9.47c-64.59-22.71-261.48-40.69-283.13-74.73
	c-41.89-65.85-92.94-27.09-135.78-68.07c-70.31-67.25-105.89-17.32-127.15-46.2c-19.71-26.78-75.99-107.82-179.14-86.77
	c-86.05,17.56-107.9,65.48-120.56,98.06c-6.11,15.73-20.07,27.05-36.71,29.88C146.87,444.44,102.69,462.16,100.66,511.01z"/>
</svg>
