<?xml version="1.0" encoding="utf-8"?>
<!-- Generator: Adobe Illustrator 25.0.0, SVG Export Plug-In . SVG Version: 6.00 Build 0)  -->
<svg version="1.1" id="Layer_1" xmlns="http://www.w3.org/2000/svg" xmlns:xlink="http://www.w3.org/1999/xlink" x="0px" y="0px"
	 viewBox="0 0 1080 1080" style="enable-background:new 0 0 1080 1080;" xml:space="preserve">
<style type="text/css">
	.st0{opacity:0.51;fill:#EECBAB;}
</style>
<path class="st0" d="M143.56,611.36l824.82,12.12c73.43,1.38,143.13-7.08-9.2-31.5c-49.98-8.02-57.67-27.05-50.27-60.78
	c2.7-12.32,0.22-25.25-4.29-37.02c-8.8-22.92-30.23-51.28-82.36-47.61c-86.03,6.06-52.1-71.49-135.71-72.7
	s-89.19-58.27-139.35-60.59c-53.32-2.46-87.27,25.5-93.3,55.74c-6.84,34.28-50.89,44.83-50.89,44.83s-93.89,19.34-55.74,66.64
	c22.06,27.36-17.92,28.36-40.09,25.95c-19.32-2.1-38.85-1.76-57.95,1.82c-32.67,6.13-62.14,22.86-75.55,52.2
	C152.53,606.77-142.54,617.42,143.56,611.36z"/>
</svg>
