<?xml version="1.0" encoding="UTF-8" standalone="no"?><!DOCTYPE svg PUBLIC "-//W3C//DTD SVG 1.1//EN" "http://www.w3.org/Graphics/SVG/1.1/DTD/svg11.dtd"><svg width="100%" height="100%" viewBox="0 0 149 111" version="1.1" xmlns="http://www.w3.org/2000/svg" xmlns:xlink="http://www.w3.org/1999/xlink" xml:space="preserve" xmlns:serif="http://www.serif.com/" style="fill-rule:evenodd;clip-rule:evenodd;stroke-linejoin:round;stroke-miterlimit:2;"><circle cx="74.5" cy="55.5" r="55.5" style="fill-opacity:0;"/><path d="M50.762,58.026l-8.619,0l-2.228,-7.949l-3.046,-1.263l-6.836,4.235l-7.653,-7.133l4.236,-6.836l-0.818,-3.268l-7.876,-1.635l0,-9.955l8.174,-1.859l1.783,-3.046l-4.905,-7.503l7.431,-7.355l6.39,4.829l3.342,-1.339l2.378,-7.949l7.875,0l2.378,7.949l3.344,1.339l6.388,-4.829l7.431,7.355l-4.829,7.503l1.783,3.046l8.172,1.859l0,9.955l-7.876,1.561l-0.816,3.342l4.234,6.836l-7.653,7.207l-6.834,-4.235l-3.046,1.263l-2.304,7.875Zm-6.984,-2.079l5.349,0l2.081,-7.357l5.052,-2.079l6.316,3.937l5.2,-4.83l-3.789,-6.092l1.411,-5.498l7.431,-1.486l0,-6.537l-7.281,-1.783l-2.898,-4.979l4.605,-7.133l-4.903,-4.829l-5.87,4.459l-5.497,-2.23l-2.154,-7.355l-4.681,0l-2.155,7.355l-5.498,2.23l-5.87,-4.459l-4.903,4.829l4.606,7.133l-2.897,4.979l-7.355,1.707l0,6.539l7.429,1.486l1.411,5.498l-3.789,6.092l5.201,4.83l6.315,-3.937l5.053,2.079l2.08,7.431Z" style="fill:#fff;fill-rule:nonzero;"/><path d="M46.453,39.6c-5.87,0 -10.625,-4.755 -10.625,-10.624c0,-5.869 4.755,-10.624 10.625,-10.624c5.869,0 10.624,4.755 10.624,10.624c0,5.869 -4.755,10.624 -10.624,10.624Zm0,-19.02c-4.681,0 -8.47,3.79 -8.47,8.471c0,4.68 3.789,8.47 8.47,8.47c4.68,0 8.47,-3.79 8.47,-8.47c0,-4.681 -3.79,-8.471 -8.47,-8.471Z" style="fill:#fff;fill-rule:nonzero;"/><path d="M66.587,111l-8.396,-2.08l-0.222,-8.247l-2.675,-2.006l-7.652,2.378l-5.722,-8.842l5.722,-5.572l0,-3.418l-7.207,-3.492l2.452,-9.658l8.321,0.148l2.452,-2.526l-2.824,-8.47l8.99,-5.275l5.052,6.242l3.642,-0.521l4.235,-7.132l7.651,1.931l0.372,8.396l2.972,2.155l7.429,-3.122l5.424,8.916l-6.538,6.094l0.966,3.416l7.431,3.791l-2.453,9.658l-8.024,-0.372l-1.635,2.972l2.378,7.653l-9.213,5.126l-5.572,-5.72l-3.269,0.446l-4.087,7.131Zm-6.24,-3.789l5.201,1.337l3.788,-6.612l5.424,-0.817l5.201,5.35l6.241,-3.418l-2.155,-6.835l2.675,-4.979l7.579,0.372l1.559,-6.315l-6.76,-3.492l-1.561,-5.573l6.167,-5.794l-3.566,-5.87l-6.836,2.898l-4.681,-3.493l-0.297,-7.653l-4.532,-1.114l-3.937,6.612l-5.87,0.818l-4.607,-5.795l-5.87,3.492l2.676,8.024l-4.013,4.16l-7.577,-0.148l-1.561,6.315l6.835,3.269l0,5.646l-5.126,4.979l3.863,6.018l7.133,-2.229l4.383,3.268l0.224,7.579Z" style="fill:#fff;fill-rule:nonzero;"/><path d="M69.485,92.352c-0.891,0 -1.709,-0.075 -2.6,-0.297c-2.75,-0.669 -5.053,-2.378 -6.538,-4.829c-1.487,-2.452 -1.858,-5.276 -1.189,-8.025c0.668,-2.748 2.377,-5.052 4.829,-6.538c2.452,-1.486 5.275,-1.858 8.024,-1.189c2.749,0.67 5.053,2.377 6.538,4.83c1.487,2.452 1.857,5.274 1.189,8.024c-0.669,2.749 -2.378,5.052 -4.83,6.538c-1.635,1.041 -3.492,1.486 -5.423,1.486Zm0,-19.02c-1.486,0 -2.972,0.371 -4.309,1.189c-1.932,1.189 -3.344,2.971 -3.864,5.2c-0.519,2.155 -0.223,4.459 0.966,6.39c1.189,1.932 2.972,3.269 5.201,3.863c2.228,0.52 4.457,0.224 6.389,-0.965c1.933,-1.189 3.27,-2.972 3.864,-5.201c0.52,-2.156 0.222,-4.458 -0.966,-6.39c-1.189,-1.932 -2.972,-3.269 -5.2,-3.863c-0.67,-0.148 -1.413,-0.223 -2.081,-0.223Z" style="fill:#fff;fill-rule:nonzero;"/><path d="M102.993,64.713l-3.566,-7.429l-3.269,-0.743l-5.944,5.274l-8.841,-5.646l2.972,-7.43l-1.412,-3.121l-8.025,-0.222l-1.709,-9.807l7.727,-3.27l1.189,-3.343l-6.018,-6.537l6.018,-8.546l7.133,3.641l3.12,-1.932l0.966,-8.171l7.728,-1.339l3.64,7.431l3.566,0.742l5.498,-5.869l8.544,5.943l-3.492,8.248l2.229,2.674l8.322,0.446l1.709,9.807l-7.43,2.898l-0.297,3.344l5.275,5.943l-6.316,8.396l-7.429,-2.972l-2.824,1.783l-0.817,8.172l-8.247,1.635Zm-7.429,-10.475l5.349,1.189l3.343,6.908l5.275,-0.89l0.743,-7.579l4.607,-2.898l6.909,2.75l4.31,-5.648l-4.755,-5.349l0.445,-5.646l7.058,-2.75l-1.114,-6.389l-7.578,-0.372l-3.714,-4.457l3.268,-7.801l-5.646,-3.938l-5.053,5.423l-5.796,-1.263l-3.416,-6.91l-4.607,0.818l-0.891,7.653l-4.979,3.12l-6.612,-3.344l-3.937,5.574l5.72,6.24l-2.006,5.424l-6.984,2.972l1.114,6.39l7.728,0.074l2.303,5.126l-2.675,6.612l5.943,3.864l5.648,-4.903Z" style="fill:#1f9baa;fill-rule:nonzero;"/><path d="M102.176,45.99c-2.155,0 -4.235,-0.668 -6.092,-1.931c-2.303,-1.635 -3.864,-4.087 -4.31,-6.836c-1.039,-5.72 2.823,-11.218 8.619,-12.259c2.822,-0.52 5.572,0.149 7.875,1.784c2.304,1.633 3.863,4.086 4.309,6.834c0.521,2.824 -0.148,5.572 -1.783,7.876c-1.635,2.303 -4.086,3.864 -6.835,4.31c-0.52,0.148 -1.188,0.222 -1.783,0.222Zm0.074,-19.02c-0.52,0 -0.966,0.074 -1.486,0.148c-2.228,0.372 -4.161,1.635 -5.424,3.492c-1.263,1.858 -1.783,4.087 -1.411,6.316c0.372,2.228 1.635,4.161 3.492,5.424c1.857,1.263 4.087,1.783 6.315,1.411c2.229,-0.371 4.16,-1.635 5.423,-3.492c1.263,-1.857 1.783,-4.085 1.413,-6.315c-0.372,-2.229 -1.635,-4.16 -3.492,-5.423c-1.487,-1.041 -3.121,-1.561 -4.83,-1.561Z" style="fill:#1f9baa;fill-rule:nonzero;"/></svg>