<?xml version="1.0" encoding="UTF-8" standalone="no"?><!DOCTYPE svg PUBLIC "-//W3C//DTD SVG 1.1//EN" "http://www.w3.org/Graphics/SVG/1.1/DTD/svg11.dtd"><svg width="100%" height="100%" viewBox="0 0 149 111" version="1.1" xmlns="http://www.w3.org/2000/svg" xmlns:xlink="http://www.w3.org/1999/xlink" xml:space="preserve" xmlns:serif="http://www.serif.com/" style="fill-rule:evenodd;clip-rule:evenodd;stroke-linejoin:round;stroke-miterlimit:2;"><circle cx="74.5" cy="55.5" r="55.5" style="fill-opacity:0;"/><path d="M108.335,22.604c-1.301,0 -2.673,-0.505 -3.683,-1.516c-2.022,-2.022 -2.022,-5.344 0,-7.366c2.022,-2.023 5.344,-2.023 7.366,0c2.021,2.022 2.021,5.344 0,7.366c-1.012,1.011 -2.383,1.516 -3.683,1.516Zm0,-8.378c-0.795,0 -1.59,0.291 -2.239,0.94c-1.227,1.227 -1.227,3.249 0,4.478c1.227,1.227 3.25,1.227 4.477,0c1.228,-1.229 1.228,-3.251 0,-4.478c-0.649,-0.649 -1.444,-0.94 -2.238,-0.94Z" style="fill:#fff;fill-rule:nonzero;"/><path d="M104.629,19.617l-12.256,12.256l1.43,1.43l12.256,-12.256l-1.43,-1.43Z" style="fill:#fff;"/><path d="M89.99,40.299c-1.372,0 -2.671,-0.506 -3.682,-1.518c-1.011,-1.01 -1.516,-2.311 -1.516,-3.683c0,-1.372 0.505,-2.671 1.516,-3.683c2.021,-2.022 5.344,-2.022 7.367,0c2.022,2.022 2.022,5.344 0,7.366c-0.94,0.94 -2.312,1.518 -3.685,1.518Zm0,-8.378c-0.793,0 -1.587,0.289 -2.238,0.938c-0.578,0.578 -0.939,1.373 -0.939,2.239c0,0.867 0.361,1.661 0.939,2.239c1.228,1.155 3.25,1.155 4.477,0c1.229,-1.227 1.229,-3.25 0,-4.478c-0.577,-0.649 -1.444,-0.938 -2.239,-0.938Z" style="fill:#fff;fill-rule:nonzero;"/><path d="M76.053,27.587l-18.85,-18.848l1.444,-1.445l17.406,17.405l5.705,-5.705l1.444,1.444l-7.149,7.149Z" style="fill:#1f9baa;fill-rule:nonzero;"/><path d="M84.141,22.243c-1.299,0 -2.672,-0.506 -3.683,-1.516c-1.011,-1.011 -1.516,-2.312 -1.516,-3.683c0,-1.372 0.505,-2.673 1.516,-3.684c1.95,-1.95 5.417,-1.95 7.367,0c2.022,2.023 2.022,5.344 0,7.367c-1.012,1.01 -2.384,1.516 -3.684,1.516Zm0,-8.305c-0.867,0 -1.66,0.362 -2.239,0.939c-0.578,0.578 -0.939,1.373 -0.939,2.239c0,0.867 0.361,1.661 0.939,2.239c1.228,1.227 3.25,1.227 4.477,0c1.229,-1.229 1.229,-3.251 0,-4.478c-0.577,-0.651 -1.371,-0.939 -2.238,-0.939Z" style="fill:#1f9baa;fill-rule:nonzero;"/><path d="M55.47,10.4c-1.372,0 -2.672,-0.506 -3.683,-1.518c-1.011,-1.01 -1.517,-2.31 -1.517,-3.683c0,-1.372 0.506,-2.671 1.517,-3.683c2.022,-2.021 5.344,-2.021 7.366,0c2.022,2.022 2.022,5.344 0,7.366c-1.01,1.012 -2.31,1.518 -3.683,1.518Zm0,-8.306c-0.794,0 -1.589,0.289 -2.238,0.938c-0.578,0.579 -0.939,1.373 -0.939,2.239c0,0.868 0.361,1.661 0.939,2.239c1.227,1.157 3.25,1.157 4.477,0c1.227,-1.227 1.227,-3.249 0,-4.478c-0.649,-0.649 -1.444,-0.938 -2.239,-0.938Z" style="fill:#1f9baa;fill-rule:nonzero;"/><path d="M63.92,50.337c-1.299,0 -2.672,-0.506 -3.683,-1.517c-1.012,-1.011 -1.516,-2.311 -1.516,-3.683c0,-1.372 0.504,-2.673 1.516,-3.683c1.95,-1.95 5.416,-1.95 7.366,0c2.023,2.022 2.023,5.344 0,7.366c-1.011,1.011 -2.383,1.517 -3.683,1.517Zm0,-8.377c-0.867,0 -1.661,0.36 -2.239,0.938c-0.578,0.578 -0.938,1.372 -0.938,2.239c0,0.866 0.36,1.661 0.938,2.239c1.228,1.227 3.25,1.227 4.477,0c1.229,-1.228 1.229,-3.251 0,-4.478c-0.649,-0.578 -1.444,-0.938 -2.238,-0.938Z" style="fill:#fff;fill-rule:nonzero;"/><path d="M66.304,66.947l-39.866,-40.154l1.444,-1.445l38.422,38.711l15.671,-15.672l-9.967,-9.895l-4.405,4.406l-1.445,-1.444l5.85,-5.922l12.855,12.855l-18.559,18.56Z" style="fill:#fff;fill-rule:nonzero;"/><path d="M23.55,28.021c-1.301,0 -2.673,-0.506 -3.683,-1.517c-2.023,-2.022 -2.023,-5.344 0,-7.366c2.021,-2.022 5.344,-2.022 7.366,0c2.021,2.022 2.021,5.344 0,7.366c-1.012,1.011 -2.311,1.517 -3.683,1.517Zm0,-8.305c-0.795,0 -1.59,0.288 -2.239,0.938c-1.229,1.228 -1.229,3.25 0,4.477c1.227,1.229 3.25,1.229 4.477,0c1.228,-1.227 1.228,-3.249 0,-4.477c-0.649,-0.65 -1.444,-0.938 -2.238,-0.938Z" style="fill:#fff;fill-rule:nonzero;"/><path d="M105.919,39.247l-57.857,57.857l1.429,1.431l57.857,-57.858l-1.429,-1.43Z" style="fill:#fff;"/><path d="M109.418,42.753c-1.3,0 -2.673,-0.505 -3.683,-1.516c-2.023,-2.022 -2.023,-5.344 0,-7.366c2.022,-2.023 5.344,-2.023 7.366,0c2.022,2.022 2.022,5.344 0,7.366c-1.011,1.011 -2.311,1.516 -3.683,1.516Zm0,-8.304c-0.794,0 -1.589,0.288 -2.239,0.938c-1.228,1.227 -1.228,3.25 0,4.478c1.228,1.228 3.249,1.228 4.478,0c1.227,-1.228 1.227,-3.251 0,-4.478c-0.578,-0.65 -1.372,-0.938 -2.239,-0.938Z" style="fill:#fff;fill-rule:nonzero;"/><path d="M44.348,106.234c-1.299,0 -2.671,-0.505 -3.683,-1.516c-2.022,-2.022 -2.022,-5.345 0,-7.366c2.022,-2.024 5.344,-2.024 7.366,0c2.023,2.021 2.023,5.344 0,7.366c-1.01,1.011 -2.382,1.516 -3.683,1.516Zm0,-8.378c-0.794,0 -1.588,0.289 -2.239,0.94c-1.227,1.227 -1.227,3.249 0,4.477c1.229,1.228 3.251,1.228 4.478,0c1.229,-1.228 1.229,-3.25 0,-4.477c-0.65,-0.578 -1.444,-0.94 -2.239,-0.94Z" style="fill:#fff;fill-rule:nonzero;"/><path d="M83.153,64.84l-1.431,1.43l10.98,10.979l1.429,-1.431l-10.978,-10.978Z" style="fill:#fff;"/><path d="M96.635,84.28c-1.3,0 -2.671,-0.506 -3.683,-1.518c-1.012,-1.01 -1.516,-2.31 -1.516,-3.683c0,-1.372 0.504,-2.671 1.516,-3.683c1.95,-1.95 5.416,-1.95 7.366,0c1.012,1.012 1.517,2.311 1.517,3.683c0,1.373 -0.505,2.673 -1.517,3.683c-1.01,1.012 -2.311,1.518 -3.683,1.518Zm0,-8.378c-0.867,0 -1.661,0.361 -2.239,0.939c-0.577,0.577 -0.938,1.372 -0.938,2.238c0,0.867 0.361,1.661 0.938,2.239c1.229,1.229 3.251,1.229 4.478,0c0.577,-0.578 0.938,-1.372 0.938,-2.239c0,-0.866 -0.361,-1.661 -0.938,-2.238c-0.578,-0.578 -1.373,-0.939 -2.239,-0.939Z" style="fill:#fff;fill-rule:nonzero;"/><path d="M34.455,54.547l-1.43,1.43l15.575,15.575l1.43,-1.431l-15.575,-15.574Z" style="fill:#1f9baa;"/><path d="M31.061,56.62c-1.373,0 -2.673,-0.506 -3.683,-1.516c-2.024,-2.024 -2.024,-5.346 0,-7.368c2.021,-2.022 5.344,-2.022 7.366,0c1.011,1.012 1.516,2.312 1.516,3.683c0,1.373 -0.505,2.673 -1.516,3.685c-1.012,1.01 -2.311,1.516 -3.683,1.516Zm0,-8.306c-0.795,0 -1.59,0.289 -2.239,0.94c-1.229,1.227 -1.229,3.249 0,4.477c1.155,1.156 3.249,1.156 4.477,0c0.578,-0.577 0.939,-1.372 0.939,-2.239c0,-0.866 -0.361,-1.661 -0.939,-2.238c-0.65,-0.651 -1.444,-0.94 -2.238,-0.94Z" style="fill:#1f9baa;fill-rule:nonzero;"/><path d="M52.148,79.73c-1.3,0 -2.671,-0.506 -3.683,-1.517c-2.022,-2.022 -2.022,-5.344 0,-7.366c2.022,-2.022 5.344,-2.022 7.366,0c2.023,2.022 2.023,5.344 0,7.366c-1.01,1.011 -2.311,1.517 -3.683,1.517Zm0,-8.305c-0.795,0 -1.589,0.288 -2.239,0.938c-1.227,1.228 -1.227,3.25 0,4.478c1.227,1.228 3.251,1.228 4.478,0c1.227,-1.228 1.227,-3.25 0,-4.478c-0.578,-0.65 -1.372,-0.938 -2.239,-0.938Z" style="fill:#1f9baa;fill-rule:nonzero;"/><path d="M125.45,83.051c-1.3,0 -2.671,-0.504 -3.683,-1.516c-2.021,-2.022 -2.021,-5.344 0,-7.366c2.022,-2.023 5.345,-2.023 7.366,0c2.023,2.022 2.023,5.344 0,7.366c-1.01,1.012 -2.382,1.516 -3.683,1.516Zm-2.238,-2.96c1.227,1.227 3.25,1.227 4.477,0c1.229,-1.227 1.229,-3.25 0,-4.478c-1.227,-1.227 -3.25,-1.227 -4.477,0c-1.228,1.228 -1.228,3.251 0,4.478Z" style="fill:#fff;fill-rule:nonzero;"/><path d="M110.937,61.929l-1.43,1.43l12.256,12.256l1.43,-1.43l-12.256,-12.256Z" style="fill:#fff;"/><path d="M107.757,64.708c-1.3,0 -2.673,-0.506 -3.683,-1.517c-2.023,-2.022 -2.023,-5.344 0,-7.366c2.022,-2.022 5.344,-2.022 7.366,0c2.022,2.022 2.022,5.344 0,7.366c-1.012,1.011 -2.383,1.517 -3.683,1.517Zm-2.239,-2.961c1.227,1.228 3.249,1.228 4.478,0c1.227,-1.228 1.227,-3.249 0,-4.478c-1.229,-1.227 -3.251,-1.227 -4.478,0c-1.228,1.229 -1.228,3.25 0,4.478Z" style="fill:#fff;fill-rule:nonzero;"/><path d="M68.831,102.623c-1.3,0 -2.673,-0.505 -3.683,-1.517c-2.023,-2.021 -2.023,-5.344 0,-7.365c1.95,-1.95 5.416,-1.95 7.366,0c1.012,1.01 1.516,2.31 1.516,3.683c0,1.372 -0.504,2.671 -1.516,3.682c-1.011,1.012 -2.311,1.517 -3.683,1.517Zm0.072,-8.378c-0.866,0 -1.661,0.362 -2.239,0.94c-1.227,1.227 -1.227,3.249 0,4.477c1.227,1.228 3.251,1.228 4.478,0c0.577,-0.577 0.938,-1.372 0.938,-2.238c0,-0.867 -0.361,-1.662 -0.938,-2.239c-0.65,-0.578 -1.444,-0.94 -2.239,-0.94Z" style="fill:#1f9baa;fill-rule:nonzero;"/><path d="M97.43,103.417l-16.61,-16.538l-8.306,8.306l-1.444,-1.444l9.75,-9.75l18.054,17.982l-1.444,1.444Z" style="fill:#1f9baa;fill-rule:nonzero;"/><path d="M99.957,111c-1.372,0 -2.672,-0.504 -3.683,-1.516c-1.011,-1.012 -1.517,-2.311 -1.517,-3.683c0,-1.372 0.506,-2.673 1.517,-3.683c2.022,-2.023 5.344,-2.023 7.366,0c2.022,2.022 2.022,5.344 0,7.366c-0.938,0.938 -2.239,1.516 -3.683,1.516Zm0,-8.377c-0.794,0 -1.589,0.288 -2.239,0.939c-0.577,0.578 -0.938,1.373 -0.938,2.239c0,0.867 0.361,1.661 0.938,2.239c1.228,1.155 3.251,1.155 4.478,0c1.227,-1.229 1.227,-3.251 0,-4.478c-0.578,-0.651 -1.372,-0.939 -2.239,-0.939Z" style="fill:#1f9baa;fill-rule:nonzero;"/></svg>