<?xml version="1.0" encoding="UTF-8" standalone="no"?><!DOCTYPE svg PUBLIC "-//W3C//DTD SVG 1.1//EN" "http://www.w3.org/Graphics/SVG/1.1/DTD/svg11.dtd"><svg width="100%" height="100%" viewBox="0 0 1080 1812" version="1.1" xmlns="http://www.w3.org/2000/svg" xmlns:xlink="http://www.w3.org/1999/xlink" xml:space="preserve" xmlns:serif="http://www.serif.com/" style="fill-rule:evenodd;clip-rule:evenodd;stroke-linejoin:round;stroke-miterlimit:2;"><path id="_3" serif:id="3" d="M-0,608.395c-0,0 159.214,-131.353 258.12,-122.237c71.082,6.552 23.545,55.733 24.05,102.105c0.56,51.293 58.22,102.468 126.61,107.975c72.863,5.867 143.311,-40.035 181.537,-172.665c11.02,-38.238 65.776,-178.535 85.74,-140.769c27.385,51.803 24.299,127.371 -0.517,179.578c-20.987,44.152 -27.02,100.223 5.94,106.434c27.01,5.09 35.681,-22.565 87.48,-13.943c58.272,9.7 67.531,137.739 47.52,191.489c-23.616,63.435 -75.664,76.996 -32.421,186.219c15.546,39.268 88.338,82.342 127.461,169.336c80.864,179.812 168.48,609.325 168.48,609.325l-0,-1811.24l-1080,0l-0,608.395Z" style="fill:#003761;"/></svg>