<?xml version="1.0" encoding="UTF-8" standalone="no"?><!DOCTYPE svg PUBLIC "-//W3C//DTD SVG 1.1//EN" "http://www.w3.org/Graphics/SVG/1.1/DTD/svg11.dtd"><svg width="100%" height="100%" viewBox="0 0 1080 1605" version="1.1" xmlns="http://www.w3.org/2000/svg" xmlns:xlink="http://www.w3.org/1999/xlink" xml:space="preserve" xmlns:serif="http://www.serif.com/" style="fill-rule:evenodd;clip-rule:evenodd;stroke-linejoin:round;stroke-miterlimit:2;"><path id="_6" serif:id="6" d="M-0,447.117c-0,-0 103.594,-128.099 202.5,-118.983c71.082,6.551 104.005,21.804 123.41,68.176c20.196,48.26 30.14,73.187 98.53,78.694c72.863,5.867 104.859,-29.981 142.02,-74.83c81.747,-98.658 165.531,-181.493 194.4,-148.264c23.604,27.17 28.926,56.321 26.336,124.32c-5.338,140.161 -76.572,178.845 -35.516,187.082c35.609,7.144 52.421,-20.242 104.22,-11.62c58.272,9.7 22.171,117.289 2.16,171.039c-23.616,63.434 -35.143,112.476 -11.88,169.179c16.049,39.118 66.717,45.003 105.84,131.997c80.864,179.811 127.98,580.134 127.98,580.134l0,-1604.04l-1080,0l-0,447.117Z" style="fill:#005280;"/></svg>