<?xml version="1.0" encoding="UTF-8" standalone="no"?><!DOCTYPE svg PUBLIC "-//W3C//DTD SVG 1.1//EN" "http://www.w3.org/Graphics/SVG/1.1/DTD/svg11.dtd"><svg width="100%" height="100%" viewBox="0 0 1080 1603" version="1.1" xmlns="http://www.w3.org/2000/svg" xmlns:xlink="http://www.w3.org/1999/xlink" xml:space="preserve" xmlns:serif="http://www.serif.com/" style="fill-rule:evenodd;clip-rule:evenodd;stroke-linejoin:round;stroke-miterlimit:2;"><path id="_7" serif:id="7" d="M-0,399.245c-0,-0 103.594,-128.1 202.5,-118.984c71.082,6.552 88.042,16.991 122.87,48.191c90.89,81.422 164.081,61.672 209.23,17.808c84.881,-82.464 213.587,-147.646 256.5,-128.744c165.084,72.718 -60.398,267.556 1.08,302.571c40.475,23.053 74.749,-32.664 94.688,16.394c19.598,48.22 15.503,98.106 -4.508,151.856c-23.616,63.435 -85.22,78.083 -41.977,187.306c15.547,39.268 28.234,29.2 67.357,116.194c80.864,179.812 172.26,610.255 172.26,610.255l-0,-1601.16l-1080,-0l-0,398.315Z" style="fill:#005c8b;"/></svg>