<?xml version="1.0" encoding="UTF-8" standalone="no"?>
<!DOCTYPE svg PUBLIC "-//W3C//DTD SVG 1.1//EN" "http://www.w3.org/Graphics/SVG/1.1/DTD/svg11.dtd">
<svg width="100%" height="100%" viewBox="0 0 1927 123" version="1.1" xmlns="http://www.w3.org/2000/svg" xmlns:xlink="http://www.w3.org/1999/xlink" xml:space="preserve" xmlns:serif="http://www.serif.com/" style="fill-rule:evenodd;clip-rule:evenodd;stroke-linejoin:round;stroke-miterlimit:2;">
    <clipPath id="_clip1">
        <rect id="Subtraction_7" x="0" y="0" width="1926.21" height="152.6"/>
    </clipPath>
    <g clip-path="url(#_clip1)">
        <path d="M0,222.584L0,27.848L0.044,27.848C2.044,27.905 20.197,28.456 42.307,30.093C56,31.1 68.551,32.33 79.606,33.734C91.118,35.074 102.541,37.1 113.812,39.8C132.39,44.563 151.224,48.269 170.222,50.9C189.535,53.589 209.009,54.964 228.509,55.016C231.036,55.016 233.695,54.988 236.409,54.934C253.435,54.579 282.152,45.256 315.404,34.461L315.453,34.446L315.475,34.446C339.164,26.756 366.015,18.046 392.497,11.379C422.917,3.721 448.027,0 469.266,0C479.089,0.037 488.901,0.677 498.646,1.917C508.04,3.07 517.971,4.732 529.008,7C549.563,11.223 570.203,16.76 592.055,22.622L592.068,22.622L592.092,22.628L592.108,22.628C638.274,35.011 686.008,47.816 733.63,47.816C734.606,47.816 735.717,47.809 737.13,47.793C787.174,47.124 815.681,40.42 840.83,34.504L840.849,34.499L840.864,34.499C851.27,32.051 861.099,29.738 871.723,28.026C883.386,26.135 895.184,25.2 907,25.231C907.988,25.231 909.093,25.238 910.283,25.253C915.126,25.317 930.325,28.853 951.362,33.738L951.42,33.738C988.293,42.305 1044.02,55.253 1101.58,63.301C1117.22,65.536 1133,66.672 1148.8,66.7C1192.96,66.7 1228.9,57.493 1266.97,47.745L1266.99,47.74L1267.04,47.728L1267.05,47.728L1267.07,47.722L1267.08,47.722C1286.08,42.857 1305.73,37.822 1327.21,33.754C1332.86,32.516 1338.63,31.945 1344.41,32.054C1361.39,32.054 1383.39,35.541 1408.87,39.578L1408.92,39.578L1409.04,39.596L1409.07,39.601L1409.1,39.601L1409.17,39.613C1425.3,42.167 1443.56,45.061 1462.61,47.345C1482.54,49.831 1502.59,51.29 1522.68,51.717C1523.56,51.733 1524.51,51.741 1525.51,51.741C1532.54,51.718 1539.57,51.333 1546.56,50.586C1553.29,49.892 1560.36,48.897 1568.18,47.542C1582.82,45.013 1597.78,41.617 1612.25,38.332L1612.29,38.324L1612.37,38.324L1612.6,38.271L1612.61,38.271L1612.65,38.261L1612.68,38.255L1612.74,38.24L1612.76,38.24C1627.18,34.967 1642.1,31.582 1656.56,29.074C1664.34,27.724 1671.36,26.733 1677.99,26.045C1684.9,25.302 1691.85,24.919 1698.8,24.896C1702.52,24.896 1706.16,25.022 1709.61,25.271C1738.5,27.389 1767.23,31.373 1795.62,37.196C1818.7,41.907 1841.8,47.825 1864.28,54.786C1884.27,60.981 1900.04,66.867 1909.75,70.715C1920.24,74.869 1926.16,77.629 1926.21,77.653L1926.21,216.229L0,222.584ZM1040.61,69.868L1040.65,69.878C1042.88,70.378 1063.2,74.913 1087.88,79.361C1103.2,82.122 1117.2,84.318 1129.49,85.889C1144.88,87.858 1157.69,88.856 1167.56,88.856C1168.23,88.856 1168.73,88.856 1169.16,88.847C1178.77,88.75 1188.35,87.824 1197.8,86.081C1205.05,84.744 1212.19,82.869 1219.17,80.472C1225.42,78.421 1231.44,75.737 1237.14,72.462L1237.12,72.474C1230.72,74.882 1224.18,76.889 1217.53,78.484C1210.42,80.244 1203.22,81.638 1195.96,82.659C1187.08,83.917 1178.13,84.574 1169.16,84.628L1168.53,84.628C1159.69,84.628 1147.47,83.852 1132.22,82.321C1120.01,81.097 1105.82,79.39 1090.06,77.247C1062.56,73.511 1040.87,69.912 1040.61,69.868ZM1689.26,38.1C1697.01,38.093 1704.76,38.542 1712.45,39.444C1721.14,40.473 1733.16,42.707 1748.17,46.085C1760.12,48.769 1774.07,52.205 1789.63,56.295C1817.23,63.55 1838.06,69.705 1838.25,69.763L1838.23,69.756C1835.99,68.956 1815.65,61.734 1791.53,54.281C1776.43,49.615 1762.61,45.699 1750.45,42.641C1735.27,38.821 1722.66,36.341 1712.97,35.257C1706.73,34.562 1700.46,34.21 1694.19,34.204C1687.1,34.199 1680.02,34.67 1672.99,35.615C1667.62,36.336 1662.29,37.371 1657.04,38.715C1652.41,39.835 1647.89,41.343 1643.51,43.223L1643.53,43.223C1644.38,43.002 1648.97,41.839 1656.38,40.666C1667.26,38.963 1678.25,38.105 1689.26,38.1ZM106.607,46.868L106.637,46.875C108.858,47.375 129.057,51.888 153.876,56.362C169.196,59.122 183.198,61.318 195.491,62.89C210.891,64.858 223.701,65.856 233.557,65.856C234.135,65.856 234.657,65.856 235.157,65.847C244.766,65.749 254.349,64.824 263.8,63.082C271.052,61.745 278.194,59.87 285.168,57.473C291.414,55.415 297.437,52.731 303.144,49.463L303.121,49.475C296.722,51.88 290.181,53.887 283.534,55.486C276.419,57.246 269.218,58.639 261.96,59.66C253.081,60.919 244.127,61.577 235.16,61.629L234.531,61.629C225.707,61.629 213.49,60.854 198.22,59.323C186.001,58.098 171.82,56.39 156.059,54.248C130.041,50.711 107.568,47.024 106.624,46.869L106.607,46.868ZM811.465,50.5C811.45,50.513 809.649,51.888 779.653,59.26C779.662,59.26 780.072,59.301 780.901,59.301C783.201,59.301 788.354,59.001 797.084,56.989C803.384,55.536 806.962,53.849 808.85,52.689C809.87,52.157 810.762,51.41 811.465,50.5ZM687.814,51.419C688.114,51.607 695.194,56.035 701.503,57.637C705.29,58.598 713.082,58.855 717.089,58.855C718.197,58.916 719.309,58.866 720.407,58.705C719.785,58.54 719.141,58.472 718.498,58.505C710.815,58.083 688.043,51.49 687.814,51.423L687.814,51.419ZM991.714,53.089C990.955,53.089 990.539,53.233 990.475,53.517C990.454,53.629 990.483,53.745 990.555,53.834C991.298,54.872 996.723,55.917 1001.14,56.612C1006.04,57.382 1010.75,57.895 1010.8,57.9C1010.66,57.859 996.114,53.094 991.715,53.094L991.714,53.089ZM737.081,54.481C734.581,54.481 733.475,54.606 733.281,54.91C733.148,55.082 733.126,55.316 733.224,55.51C733.757,56.486 737.584,57.024 744.002,57.024C751.538,56.947 759.064,56.457 766.546,55.555C775.624,54.494 785.963,51.375 793.038,48.945C800.312,46.445 805.738,44.14 806.328,43.885L806.287,43.899C804.998,44.333 800.287,45.889 793.819,47.676C784.861,50.195 775.751,52.14 766.545,53.501C760.344,54.297 754.096,54.665 747.845,54.601C745.583,54.601 743.529,54.569 741.782,54.538L741.082,54.525L741.051,54.525C739.54,54.498 738.235,54.475 737.092,54.475L737.081,54.481ZM1349.98,48.181C1346.86,48.181 1345.21,48.652 1345.09,49.581C1345.06,49.864 1345.16,50.145 1345.36,50.349C1346.28,51.424 1349.53,52.392 1355.03,53.226C1359.43,53.893 1365.27,54.476 1372.38,54.959C1384.58,55.788 1396.26,56.032 1396.37,56.034C1396.32,56.023 1387.97,54.069 1377.99,52.107C1368.87,50.316 1356.61,48.18 1349.98,48.18L1349.98,48.181ZM463.081,15.819C453.139,15.773 443.202,16.287 433.317,17.359C422.586,18.698 411.975,20.871 401.582,23.859C392.321,26.44 382.46,29.692 372.271,33.524C355.584,39.8 343,45.826 342.4,46.114L342.444,46.114C344.714,45.338 356.898,41.225 373.818,36.439C384.599,33.388 395.104,30.688 405.039,28.414C417.461,25.568 429.026,23.381 439.413,21.914C455.696,19.666 472.116,18.559 488.553,18.601C500.571,18.542 512.584,19.143 524.536,20.401L524.524,20.401C523.724,20.279 516.404,19.176 505.924,18.119C495.6,17.06 479.779,15.817 463.078,15.817L463.081,15.819ZM40.507,39.015C47.927,39.015 66.132,41.62 68.184,41.915L68.2,41.915L68.189,41.915L68.126,41.901C66.462,41.513 60.499,40.143 53.615,38.784C46.488,37.377 36.889,35.7 31.64,35.7C29.654,35.7 28.393,35.938 27.892,36.407C27.254,37.007 27.025,37.55 27.213,38.026C27.683,39.215 30.682,39.748 33.445,39.748C34.928,39.77 36.407,39.598 37.845,39.238C38.72,39.056 39.614,38.981 40.507,39.015ZM895.939,32.032C892.384,32.054 888.833,32.259 885.299,32.647C878.87,33.32 875.115,34.559 873.099,35.479C872.024,35.887 871.049,36.52 870.237,37.334C870.321,37.285 872.66,36.125 902.88,32.516L902.875,32.516C900.583,32.136 898.261,31.974 895.939,32.032Z" style="fill:white;fill-rule:nonzero;"/>
    </g>
</svg>
