<?xml version="1.0" encoding="UTF-8" standalone="no"?>
<!DOCTYPE svg PUBLIC "-//W3C//DTD SVG 1.1//EN" "http://www.w3.org/Graphics/SVG/1.1/DTD/svg11.dtd">
<svg width="100%" height="100%" viewBox="0 0 170 170" version="1.1" xmlns="http://www.w3.org/2000/svg" xmlns:xlink="http://www.w3.org/1999/xlink" xml:space="preserve" xmlns:serif="http://www.serif.com/" style="fill-rule:evenodd;clip-rule:evenodd;stroke-linejoin:round;stroke-miterlimit:2;">
    <g id="NEW" transform="matrix(0.999411,0,0,0.999411,-0.0498599,-0.349683)">
        <g id="Icon-Mono-White" serif:id="Icon Mono White">
            <path d="M36.313,104.055C36.313,95.98 39.453,88.503 45.136,82.82L82.745,45.361C94.484,33.697 113.55,33.697 125.214,45.436C130.821,51.118 133.887,58.67 133.887,66.745C133.887,74.745 130.747,82.297 125.064,87.98L87.53,125.364C81.848,130.972 74.296,134.112 66.296,134.112C58.22,134.112 50.744,130.972 45.061,125.289C39.379,119.682 36.313,112.13 36.313,104.055ZM125.587,66.745C125.587,60.913 123.344,55.455 119.307,51.417C110.858,42.969 97.1,42.894 88.577,51.343L50.968,88.802C42.818,96.952 42.743,111.308 50.893,119.532C54.931,123.644 60.389,125.887 66.221,125.887C72.053,125.887 77.511,123.644 81.548,119.607L119.157,82.148C123.27,77.96 125.587,72.502 125.587,66.745Z" style="fill:rgb(26,35,64);fill-rule:nonzero;"/>
            <path d="M36.388,66.596C36.388,58.52 39.528,51.044 45.211,45.361C56.949,33.697 76.016,33.697 87.68,45.436L125.139,83.045C130.747,88.727 133.887,96.279 133.887,104.279C133.887,112.354 130.747,119.831 125.064,125.514C119.382,131.121 111.83,134.262 103.83,134.262C95.755,134.262 88.278,131.121 82.595,125.439L45.136,87.83C39.453,82.148 36.388,74.596 36.388,66.596ZM125.513,104.204C125.513,98.372 123.27,92.914 119.232,88.877L81.773,51.268C73.324,42.819 59.566,42.819 51.043,51.268C46.93,55.305 44.687,60.764 44.687,66.596C44.687,72.428 46.93,77.886 50.968,81.923L88.427,119.532C92.54,123.644 97.923,125.887 103.755,125.887C109.587,125.887 115.045,123.644 119.083,119.607C123.27,115.495 125.513,110.036 125.513,104.204Z" style="fill:rgb(26,35,64);fill-rule:nonzero;"/>
            <path d="M0.05,85.288C0.125,38.333 38.332,0.275 85.212,0.35C132.092,0.425 170.225,38.632 170.15,85.512C170.075,132.392 131.868,170.525 84.988,170.45C38.108,170.375 -0.025,132.168 0.05,85.288ZM161.851,85.512C161.925,43.193 127.531,8.724 85.212,8.649C42.893,8.575 8.424,42.969 8.349,85.288C8.275,127.607 42.669,162.076 84.988,162.151C127.307,162.225 161.776,127.831 161.851,85.512Z" style="fill:rgb(26,35,64);fill-rule:nonzero;"/>
        </g>
    </g>
</svg>
