<?xml version="1.0" encoding="utf-8"?>
<!-- Generator: Adobe Illustrator 22.0.0, SVG Export Plug-In . SVG Version: 6.00 Build 0)  -->
<svg version="1.1" id="Warstwa_1" xmlns="http://www.w3.org/2000/svg" xmlns:xlink="http://www.w3.org/1999/xlink" x="0px" y="0px"
	 viewBox="0 0 308 308" style="enable-background:new 0 0 308 308;" xml:space="preserve">
<style type="text/css">
	.st0{fill:#132142;}
	.st1{fill:none;stroke:#000000;stroke-width:10;stroke-miterlimit:10;}
	.st2{fill:none;stroke:#000000;stroke-width:8;stroke-miterlimit:10;}
	.st3{display:none;fill:#FFFFFF;}
	.st4{fill:url(#SVGID_1_);}
	.st5{fill:url(#SVGID_2_);}
	.st6{fill:none;stroke:url(#SVGID_3_);stroke-width:7;stroke-miterlimit:10;}
	.st7{opacity:0.43;fill:none;stroke:#132142;stroke-width:7;stroke-miterlimit:10;}
	.st8{fill:none;stroke:#000000;stroke-width:8;stroke-linecap:round;stroke-miterlimit:10;}
	.st9{fill:none;stroke:#FFFFFF;stroke-width:8;stroke-miterlimit:10;}
	.st10{fill:none;stroke:#FFFFFF;stroke-width:5;stroke-miterlimit:10;}
	.st11{stroke:#000000;stroke-miterlimit:10;}
	.st12{fill:none;stroke:#000000;stroke-width:7;stroke-miterlimit:10;}
	.st13{stroke:#000000;stroke-width:3;stroke-miterlimit:10;}
</style>
<path class="st1" d="M271.3,303H36.7C19.2,303,5,288.8,5,271.3V36.7C5,19.2,19.2,5,36.7,5h234.6C288.8,5,303,19.2,303,36.7v234.6
	C303,288.8,288.8,303,271.3,303z"/>
<g>
	<path d="M126,85.8V60.3l-9.2,18.5h-5.3l-9.2-18.5v25.5h-9.8V43.2h10.7l11,22.3l11.1-22.3h10.6v42.6H126z"/>
	<path d="M155.7,43.2h8.9l15.5,42.6H170l-3.3-9.5h-13.3l-3.2,9.5h-10.1L155.7,43.2z M165.1,69.5l-5-15.1L155,69.5H165.1z"/>
	<path d="M190.5,43.2l9.3,14.7l9.3-14.7h10.6L205,64.8l14.3,21h-10.6l-8.8-14.1L191,85.8h-10.7l14.3-21l-14.8-21.6H190.5z"/>
</g>
<path class="st2" d="M5,123c0,0,15.9-25,37-25c19,0,12,25,39,25s14-23,43-23s18,23,42,23s18-28,45-28s22,28,43,28s18-28,37-28
	c17,0,12,0,12,0"/>
<g>
	<path class="st0" d="M85.6,262.8v10.9H49v-10.9h12.8v-27.3c-0.5,0.7-1.4,1.5-2.6,2.2c-1.2,0.8-2.4,1.5-3.8,2.1
		c-1.4,0.7-2.8,1.2-4.3,1.6c-1.5,0.4-2.8,0.6-3.9,0.6v-11.3c1.1,0,2.4-0.3,4-1c1.6-0.7,3.1-1.5,4.6-2.5c1.5-1,2.8-1.9,3.9-2.8
		c1.1-0.9,1.8-1.7,2.1-2.2h12.3v40.5H85.6z"/>
	<path class="st0" d="M138.7,247.3c0,4-0.6,7.6-1.8,10.9c-1.2,3.3-2.8,6.2-4.9,8.6s-4.5,4.3-7.4,5.7c-2.9,1.4-5.9,2-9.2,2
		c-3.4,0-6.4-0.7-9.3-2c-2.8-1.3-5.3-3.2-7.3-5.7c-2.1-2.4-3.7-5.3-4.9-8.6s-1.8-7-1.8-10.9c0-4,0.6-7.6,1.8-10.9s2.8-6.2,4.9-8.6
		c2.1-2.4,4.5-4.3,7.3-5.7c2.8-1.4,5.9-2.1,9.3-2.1c3.3,0,6.4,0.7,9.2,2.1c2.8,1.4,5.3,3.3,7.4,5.7c2.1,2.4,3.7,5.3,4.9,8.6
		C138.1,239.7,138.7,243.4,138.7,247.3z M126.5,247.3c0-2.4-0.3-4.6-0.8-6.6c-0.5-2-1.3-3.7-2.3-5.2c-1-1.4-2.2-2.5-3.5-3.3
		c-1.3-0.8-2.8-1.2-4.5-1.2c-1.7,0-3.2,0.4-4.5,1.2c-1.3,0.8-2.5,1.9-3.5,3.3c-1,1.4-1.8,3.2-2.3,5.2c-0.5,2-0.8,4.2-0.8,6.6
		c0,2.4,0.3,4.6,0.8,6.6c0.5,2,1.3,3.7,2.3,5.1c1,1.4,2.2,2.6,3.5,3.3c1.4,0.8,2.9,1.2,4.5,1.2c1.6,0,3.1-0.4,4.5-1.2
		c1.4-0.8,2.5-1.9,3.5-3.3c1-1.4,1.8-3.1,2.3-5.1C126.2,251.9,126.5,249.7,126.5,247.3z"/>
	<path class="st0" d="M194,247.3c0,4-0.6,7.6-1.8,10.9c-1.2,3.3-2.8,6.2-4.9,8.6c-2.1,2.4-4.5,4.3-7.4,5.7c-2.9,1.4-5.9,2-9.2,2
		c-3.4,0-6.5-0.7-9.3-2c-2.8-1.3-5.3-3.2-7.3-5.7s-3.7-5.3-4.9-8.6s-1.8-7-1.8-10.9c0-4,0.6-7.6,1.8-10.9s2.8-6.2,4.9-8.6
		c2.1-2.4,4.5-4.3,7.3-5.7c2.8-1.4,5.9-2.1,9.3-2.1c3.3,0,6.4,0.7,9.2,2.1c2.8,1.4,5.3,3.3,7.4,5.7c2.1,2.4,3.7,5.3,4.9,8.6
		C193.4,239.7,194,243.4,194,247.3z M181.9,247.3c0-2.4-0.3-4.6-0.8-6.6c-0.5-2-1.3-3.7-2.3-5.2c-1-1.4-2.2-2.5-3.5-3.3
		c-1.4-0.8-2.8-1.2-4.5-1.2c-1.7,0-3.2,0.4-4.5,1.2c-1.4,0.8-2.5,1.9-3.5,3.3c-1,1.4-1.8,3.2-2.3,5.2c-0.5,2-0.8,4.2-0.8,6.6
		c0,2.4,0.3,4.6,0.8,6.6c0.5,2,1.3,3.7,2.3,5.1c1,1.4,2.2,2.6,3.5,3.3c1.4,0.8,2.9,1.2,4.5,1.2c1.6,0,3.1-0.4,4.5-1.2
		c1.4-0.8,2.5-1.9,3.5-3.3c1-1.4,1.8-3.1,2.3-5.1C181.6,251.9,181.9,249.7,181.9,247.3z"/>
	<path class="st0" d="M259.8,273.7h-9.4v-20.6c0-2.9-0.5-5.1-1.5-6.4c-1-1.4-2.4-2-4.2-2c-1.9,0-3.6,0.7-5.3,2.1
		c-1.6,1.4-2.8,3.3-3.5,5.6v21.3h-9.4v-20.6c0-2.9-0.5-5.1-1.5-6.4s-2.4-2-4.2-2c-1.8,0-3.6,0.7-5.2,2.1c-1.7,1.4-2.8,3.2-3.5,5.5
		v21.4h-9.4V237h8.5v6.8c1.4-2.4,3.2-4.2,5.6-5.5c2.4-1.3,5.1-1.9,8.1-1.9c3.1,0,5.5,0.7,7.1,2.2c1.7,1.5,2.8,3.3,3.2,5.5
		c1.5-2.5,3.4-4.4,5.7-5.8c2.3-1.3,4.9-2,7.8-2c2.2,0,4.1,0.4,5.5,1.3c1.4,0.8,2.6,1.9,3.4,3.3c0.8,1.4,1.3,2.9,1.6,4.6
		c0.3,1.7,0.5,3.5,0.5,5.3V273.7z"/>
</g>
<path d="M182.1,174.1l4,4.4c1.1,1.3,1.1,3.3,0,4.5l-25.4,28c-1.1,1.3-3,1.3-4.1,0l-25.4-28c-1.1-1.3-1.1-3.3,0-4.5l4-4.4
	c1.1-1.3,3-1.3,4.1,0l8.4,9.3c1.8,2,5,5.6,5,2.7v-49.9c0-1.8,1.3-3.2,2.9-3.2h5.7c1.6,0,2.9,1.4,2.9,3.2v50.3c0,2.9,3.1-0.7,5-2.7
	l8.8-9.6C179.1,172.8,181,172.8,182.1,174.1z"/>
</svg>
