<?xml version="1.0" encoding="utf-8"?>
<!-- Generator: Adobe Illustrator 22.0.0, SVG Export Plug-In . SVG Version: 6.00 Build 0)  -->
<svg version="1.1" id="Warstwa_1" xmlns="http://www.w3.org/2000/svg" xmlns:xlink="http://www.w3.org/1999/xlink" x="0px" y="0px"
	 viewBox="0 0 308 308" style="enable-background:new 0 0 308 308;" xml:space="preserve">
<style type="text/css">
	.st0{fill:#132142;}
	.st1{fill:none;stroke:#000000;stroke-width:10;stroke-miterlimit:10;}
	.st2{fill:none;stroke:#000000;stroke-width:8;stroke-miterlimit:10;}
	.st3{display:none;fill:#FFFFFF;}
	.st4{fill:url(#SVGID_1_);}
	.st5{fill:url(#SVGID_2_);}
	.st6{fill:none;stroke:url(#SVGID_3_);stroke-width:7;stroke-miterlimit:10;}
	.st7{opacity:0.43;fill:none;stroke:#132142;stroke-width:7;stroke-miterlimit:10;}
	.st8{fill:none;stroke:#000000;stroke-width:8;stroke-linecap:round;stroke-miterlimit:10;}
	.st9{fill:none;stroke:#FFFFFF;stroke-width:8;stroke-miterlimit:10;}
	.st10{fill:none;stroke:#FFFFFF;stroke-width:5;stroke-miterlimit:10;}
	.st11{stroke:#000000;stroke-miterlimit:10;}
	.st12{fill:none;stroke:#000000;stroke-width:7;stroke-miterlimit:10;}
	.st13{stroke:#000000;stroke-width:3;stroke-miterlimit:10;}
</style>
<g>
	<g>
		<g>
			<path d="M116,212.3H74v-7h35v-7H74v-14h-7v28c0,3.9,3.1,7,7,7h42c3.9,0,7-3.1,7-7v-28h-7V212.3z"/>
			<path d="M67,135.3c0-15.4,12.6-28,28-28c3.2,0,6.3,0.5,9.3,1.6l2.3-6.6c-3.7-1.3-7.7-2-11.7-2c-19.3,0-35,15.7-35,35
				c0,11.7,5.8,22.6,15.6,29.1l3.9-5.8C71.7,153.4,67,144.7,67,135.3z"/>
			<path d="M114.4,106.2l-3.9,5.8c7.8,5.2,12.4,13.9,12.4,23.3c0,15.4-12.6,28-28,28c-3.2,0-6.3-0.5-9.3-1.6l-2.3,6.6
				c3.7,1.3,7.7,2,11.7,2c19.3,0,35-15.7,35-35C130,123.6,124.2,112.7,114.4,106.2z"/>
			<path d="M95,149.3c7.7,0,14-6.3,14-14c0-7.7-6.3-14-14-14s-14,6.3-14,14S87.3,149.3,95,149.3z M95,128.3c3.9,0,7,3.1,7,7
				s-3.1,7-7,7s-7-3.1-7-7S91.1,128.3,95,128.3z"/>
			<path d="M252.5,149.3h-84c-5.8,0-10.5,4.7-10.5,10.5v3.5h-14v-28c0-27-22-49-49-49s-49,22-49,49v80.5c0,9.6,7.9,17.5,17.5,17.5
				h63c9.6,0,17.5-7.9,17.5-17.5v-10.5h14v3.5c0,5.8,4.7,10.5,10.5,10.5h84c5.8,0,10.5-4.7,10.5-10.5v-49
				C263,154,258.3,149.3,252.5,149.3z M137,163.3v42v10.5c0,5.8-4.7,10.5-10.5,10.5h-63c-5.8,0-10.5-4.7-10.5-10.5v-55.4
				c8.6,14.3,24.2,23.9,42,23.9s33.4-9.6,42-23.9V163.3z M95,177.3c-23.2,0-42-18.8-42-42s18.8-42,42-42s42,18.8,42,42
				S118.2,177.3,95,177.3z M158,198.3h-14v-28h14V198.3z M256,208.8c0,1.9-1.6,3.5-3.5,3.5h-84c-1.9,0-3.5-1.6-3.5-3.5v-3.5v-42
				v-3.5c0-1.9,1.6-3.5,3.5-3.5h84c1.9,0,3.5,1.6,3.5,3.5V208.8z"/>
			<polygon points="193,180.8 179,180.8 179,163.3 172,163.3 172,205.3 179,205.3 179,187.8 193,187.8 193,205.3 200,205.3 
				200,163.3 193,163.3 			"/>
			<path d="M214,163.3h-7v42h7c11.6,0,21-9.4,21-21C235,172.7,225.6,163.3,214,163.3z M214,198.3v-28c7.7,0,14,6.3,14,14
				C228,192,221.7,198.3,214,198.3z"/>
			<rect x="242" y="163.3" width="7" height="7"/>
			<rect x="242" y="198.3" width="7" height="7"/>
		</g>
	</g>
	<path class="st1" d="M271.3,303H36.7C19.2,303,5,288.8,5,271.3V36.7C5,19.2,19.2,5,36.7,5h234.6C288.8,5,303,19.2,303,36.7v234.6
		C303,288.8,288.8,303,271.3,303z"/>
	<g>
		<path d="M187.2,137.2v-11.6h-23.4v-12.2l27.7-35.5h9.3v35.4h7.5v12.2h-7.5v11.6H187.2z M177.3,113.3h11.6v-15L177.3,113.3z"/>
		<path d="M233.2,81.8l8.1,12.6l0.9,1.6l0.8-1.6l8-12.6h13.9l-15.5,22.4l15.8,22.3h-13.9l-8.4-12.5l-0.8-1.6l-0.8,1.6l-8.4,12.5H219
			l15.8-22.3l-15.5-22.4H233.2z"/>
	</g>
</g>
</svg>
