<?xml version="1.0" encoding="utf-8"?>
<!-- Generator: Adobe Illustrator 22.0.0, SVG Export Plug-In . SVG Version: 6.00 Build 0)  -->
<svg version="1.1" id="Warstwa_1" xmlns="http://www.w3.org/2000/svg" xmlns:xlink="http://www.w3.org/1999/xlink" x="0px" y="0px"
	 viewBox="0 0 308 308" style="enable-background:new 0 0 308 308;" xml:space="preserve">
<style type="text/css">
	.st0{fill:#132142;}
	.st1{fill:none;stroke:#000000;stroke-width:10;stroke-miterlimit:10;}
	.st2{fill:none;stroke:#000000;stroke-width:8;stroke-miterlimit:10;}
	.st3{display:none;fill:#FFFFFF;}
	.st4{fill:url(#SVGID_1_);}
	.st5{fill:url(#SVGID_2_);}
	.st6{fill:none;stroke:url(#SVGID_3_);stroke-width:7;stroke-miterlimit:10;}
	.st7{opacity:0.43;fill:none;stroke:#132142;stroke-width:7;stroke-miterlimit:10;}
	.st8{fill:none;stroke:#000000;stroke-width:8;stroke-linecap:round;stroke-miterlimit:10;}
	.st9{fill:none;stroke:#FFFFFF;stroke-width:8;stroke-miterlimit:10;}
	.st10{fill:none;stroke:#FFFFFF;stroke-width:5;stroke-miterlimit:10;}
	.st11{stroke:#000000;stroke-miterlimit:10;}
	.st12{fill:none;stroke:#000000;stroke-width:7;stroke-miterlimit:10;}
	.st13{stroke:#000000;stroke-width:3;stroke-miterlimit:10;}
</style>
<g>
	<path d="M242.8,127.2c-0.4-1.2-1.6-2.1-2.9-2.1h-12.1c-1.7,0-3,1.4-3,3v15.2h-6.1V119c0-1.7-1.4-3-3-3h-24.3v-15.2c0-1.7-1.4-3-3-3
		h-21.2v-6.1h39.4c1.7,0,3-1.4,3-3V76.6c0-1.7-1.4-3-3-3h-97.1c-1.7,0-3,1.4-3,3v12.1c0,1.7,1.4,3,3,3h39.4v6.1h-21.2
		c-1.7,0-3,1.4-3,3v16.6l-16.1,10.7H91.3c-1.7,0-3,1.4-3,3v9.1h-6.1V116c0-1.7-1.4-3-3-3H67c-1.7,0-3,1.4-3,3v75.8c0,1.7,1.4,3,3,3
		h12.1c1.7,0,3-1.4,3-3v-21.2h6.1v9.1c0,1.7,1.4,3,3,3h17.3l17.4,11.6c0.5,0.3,1.1,0.5,1.7,0.5h6.1v9.1c0,1.7,1.4,3,3,3h42.5
		c1.7,0,3-1.4,3-3v-9.1h33.4c1.7,0,3-1.4,3-3v-24.3h6.1v15.2c0,1.7,1.4,3,3,3h12.1c1.3,0,2.5-0.8,2.9-2.1l3-9.1
		c0.1-0.3,0.2-0.6,0.2-1v-36.4c0-0.3-0.1-0.7-0.2-1L242.8,127.2z M112.5,79.6h91v6.1h-91V79.6z M155,91.7h6.1v6.1H155V91.7z
		 M76.1,188.8h-6.1V119h6.1V188.8z M82.2,164.5v-18.2h6.1v18.2H82.2z M111.2,177.2c-0.5-0.3-1.1-0.5-1.7-0.5H94.3v-42.5h12.1v18.2
		c0,1.7,1.4,3,3,3s3-1.4,3-3v-19.6l16.9-11.2c0.8-0.6,1.4-1.5,1.3-2.5v-15.2h54.6V116H155c-1.7,0-3,1.4-3,3s1.4,3,3,3h45.5v66.7
		h-71.9L111.2,177.2z M176.2,200.9h-36.4v-6.1h36.4V200.9z M212.6,188.8h-6.1v-66.7h6.1V188.8z M218.7,161.5v-12.1h6.1v12.1H218.7z
		 M239.9,173.1l-2.2,6.6h-6.9v-48.5h6.9l2.2,6.6V173.1z"/>
	<path d="M139.8,122.1h3c1.7,0,3-1.4,3-3s-1.4-3-3-3h-3c-1.7,0-3,1.4-3,3S138.2,122.1,139.8,122.1z"/>
	<path d="M109.5,161.5c-1.7,0-3,1.4-3,3v3c0,1.7,1.4,3,3,3s3-1.4,3-3v-3C112.5,162.9,111.2,161.5,109.5,161.5z"/>
	<path d="M121.6,140.3h69.8c1.7,0,3-1.4,3-3c0-1.7-1.4-3-3-3h-69.8c-1.7,0-3,1.4-3,3C118.6,138.9,120,140.3,121.6,140.3z"/>
	<path d="M121.6,152.4h69.8c1.7,0,3-1.4,3-3c0-1.7-1.4-3-3-3h-69.8c-1.7,0-3,1.4-3,3C118.6,151,120,152.4,121.6,152.4z"/>
	<path d="M121.6,164.5h69.8c1.7,0,3-1.4,3-3c0-1.7-1.4-3-3-3h-69.8c-1.7,0-3,1.4-3,3C118.6,163.2,120,164.5,121.6,164.5z"/>
	<path d="M194.4,173.6c0-1.7-1.4-3-3-3h-69.8c-1.7,0-3,1.4-3,3c0,1.7,1.4,3,3,3h69.8C193.1,176.7,194.4,175.3,194.4,173.6z"/>
</g>
<g>
	<path d="M113.6,52.2c0-6.5,3.9-11.1,10.2-13.7l-0.1-0.2c-5.7-2.7-8.1-7.1-8.1-11.5c0-8.1,6.9-13.7,15.9-13.7
		c10,0,14.9,6.2,14.9,12.6c0,4.3-2.1,9-8.5,12v0.2c6.4,2.5,10.3,7,10.3,13.3c0,8.9-7.7,14.9-17.5,14.9
		C120.1,66.1,113.6,59.7,113.6,52.2z M141.3,51.8c0-6.2-4.3-9.2-11.3-11.2c-6,1.7-9.2,5.7-9.2,10.6c-0.2,5.2,3.7,9.8,10.3,9.8
		C137.3,61,141.3,57.1,141.3,51.8z M122.2,26.2c0,5.1,3.9,7.9,9.8,9.5c4.4-1.5,7.8-4.7,7.8-9.3c0-4.1-2.4-8.4-8.7-8.4
		C125.3,18,122.2,21.8,122.2,26.2z"/>
	<path d="M177,18l5.5,8.2c1.4,2.1,2.6,4.1,3.9,6.2h0.2c1.3-2.3,2.5-4.3,3.8-6.3l5.4-8.1h7.5l-13,18.5l13.4,19.7h-7.9l-5.6-8.6
		c-1.5-2.2-2.8-4.3-4.1-6.6h-0.2c-1.3,2.3-2.6,4.3-4,6.6l-5.5,8.6h-7.7l13.6-19.5l-13-18.7H177z"/>
</g>
<g>
	<path d="M97.3,277c2.5,1.6,8.3,4.1,14.4,4.1c11.3,0,14.8-7.2,14.7-12.6c-0.1-9.1-8.3-13-16.8-13h-4.9v-6.6h4.9
		c6.4,0,14.5-3.3,14.5-11c0-5.2-3.3-9.8-11.4-9.8c-5.2,0-10.2,2.3-13,4.3l-2.3-6.4c3.4-2.5,10-5,17-5c12.8,0,18.6,7.6,18.6,15.5
		c0,6.7-4,12.4-12,15.3v0.2c8,1.6,14.5,7.6,14.5,16.7c0,10.4-8.1,19.5-23.7,19.5c-7.3,0-13.7-2.3-16.9-4.4L97.3,277z"/>
	<path d="M168.8,268.8h0.1c0.8-1.2,2-2.7,3-3.9l9.9-11.7h7.4l-13.1,13.9l14.9,20h-7.5L172,270.9l-3.2,3.5v12.7h-6.1v-49.7h6.1V268.8
		z"/>
	<path d="M201.5,287.1l-12-47.2h6.4l5.6,23.9c1.4,5.9,2.7,11.8,3.5,16.3h0.1c0.8-4.7,2.2-10.3,3.9-16.4l6.3-23.8h6.4l5.7,23.9
		c1.3,5.6,2.6,11.2,3.3,16.2h0.1c1-5.2,2.3-10.4,3.8-16.3l6.2-23.8h6.2l-13.4,47.2h-6.4l-6-24.6c-1.5-6-2.5-10.6-3.1-15.4h-0.1
		c-0.8,4.7-1.9,9.3-3.6,15.4l-6.7,24.6H201.5z"/>
</g>
<line class="st8" x1="80" y1="252" x2="56" y2="252"/>
<line class="st8" x1="80" y1="272" x2="56" y2="272"/>
<path class="st1" d="M271.3,303H36.7C19.2,303,5,288.8,5,271.3V36.7C5,19.2,19.2,5,36.7,5h234.6C288.8,5,303,19.2,303,36.7v234.6
	C303,288.8,288.8,303,271.3,303z"/>
</svg>
