<?xml version="1.0" encoding="utf-8"?>
<!-- Generator: Adobe Illustrator 22.0.0, SVG Export Plug-In . SVG Version: 6.00 Build 0)  -->
<svg version="1.1" id="Warstwa_1" xmlns="http://www.w3.org/2000/svg" xmlns:xlink="http://www.w3.org/1999/xlink" x="0px" y="0px"
	 viewBox="0 0 308 308" style="enable-background:new 0 0 308 308;" xml:space="preserve">
<style type="text/css">
	.st0{fill:#132142;}
	.st1{fill:none;stroke:#000000;stroke-width:10;stroke-miterlimit:10;}
	.st2{fill:none;stroke:#000000;stroke-width:8;stroke-miterlimit:10;}
	.st3{display:none;fill:#FFFFFF;}
	.st4{fill:url(#SVGID_1_);}
	.st5{fill:url(#SVGID_2_);}
	.st6{fill:none;stroke:url(#SVGID_3_);stroke-width:7;stroke-miterlimit:10;}
	.st7{opacity:0.43;fill:none;stroke:#132142;stroke-width:7;stroke-miterlimit:10;}
	.st8{fill:none;stroke:#000000;stroke-width:8;stroke-linecap:round;stroke-miterlimit:10;}
	.st9{fill:none;stroke:#FFFFFF;stroke-width:8;stroke-miterlimit:10;}
	.st10{fill:none;stroke:#FFFFFF;stroke-width:5;stroke-miterlimit:10;}
	.st11{stroke:#000000;stroke-miterlimit:10;}
	.st12{fill:none;stroke:#000000;stroke-width:7;stroke-miterlimit:10;}
	.st13{stroke:#000000;stroke-width:3;stroke-miterlimit:10;}
</style>
<rect x="122.9" y="154.7" transform="matrix(0.8656 0.5007 -0.5007 0.8656 100.1074 -55.0012)" class="st11" width="59.1" height="8.6"/>
<path class="st12" d="M183.6,65.1l36.4,21c0,0,18.5-31.9-0.1-42.6C199.8,31.9,183.6,65.1,183.6,65.1z"/>
<rect x="130.2" y="99.7" transform="matrix(0.5007 -0.8656 0.8656 0.5007 -19.5063 211.8911)" class="st12" width="87.4" height="46.3"/>
<path class="st12" d="M132.9,162l28,16.2c2.8,1.6,3.2,5.4,0.9,7.6l-42.5,40.8c-3.5,3.3-9.2,0-8-4.6l14.5-57
	C126.6,161.9,130.1,160.4,132.9,162z"/>
<path class="st12" d="M62.3,223.6l43.1-18l9.7-40.7c0.3-1.2-1.2-2-2.1-1.1l-53.4,55.9C57.7,221.5,59.8,224.6,62.3,223.6z"/>
<path class="st12" d="M142.6,270.9l-6.8-46.2l29.6-28.9c1-0.9,2.6,0,2.2,1.3l-20.3,74.1C146.6,273.7,143,273.5,142.6,270.9z"/>
<rect x="172.3" y="69.4" transform="matrix(0.8656 0.5007 -0.5007 0.8656 64.0144 -91.1826)" class="st13" width="59.1" height="8.6"/>
<g>
	<g>
		<path class="st0" d="M106.6,64.7C93.8,86.4,81,108.2,68.2,130c-3.3,5.6,5.4,10.6,8.6,5c12.8-21.8,25.6-43.5,38.3-65.3
			C118.5,64.1,109.8,59.1,106.6,64.7L106.6,64.7z"/>
	</g>
</g>
<g>
	<g>
		<path class="st0" d="M155.1,46.1c-13.9,23.8-27.9,47.5-41.8,71.3c-2,3.4-4,6.8-6,10.3c-3.3,5.6,5.4,10.6,8.6,5
			c13.9-23.8,27.9-47.5,41.8-71.3c2-3.4,4-6.8,6-10.3C167,45.6,158.4,40.5,155.1,46.1L155.1,46.1z"/>
	</g>
</g>
<g>
	<g>
		<path class="st0" d="M238.5,121.9c-12.8,21.8-25.6,43.5-38.3,65.3c-3.3,5.6,5.4,10.6,8.6,5c12.8-21.8,25.6-43.5,38.3-65.3
			C250.4,121.4,241.8,116.4,238.5,121.9L238.5,121.9z"/>
	</g>
</g>
<g>
	<g>
		<path class="st0" d="M240.7,177.7c-12.8,21.8-25.6,43.5-38.3,65.3c-3.3,5.6,5.4,10.6,8.6,5c12.8-21.8,25.6-43.5,38.3-65.3
			C252.6,177.2,244,172.1,240.7,177.7L240.7,177.7z"/>
	</g>
</g>
<path class="st1" d="M271.4,303H36.7C19.2,303,5,288.8,5,271.3V36.7C5,19.2,19.2,5,36.7,5h234.6C288.9,5,303,19.2,303,36.7v234.6
	C303,288.8,288.9,303,271.4,303z"/>
</svg>
