<?xml version="1.0" encoding="utf-8"?>
<!-- Generator: Adobe Illustrator 19.2.1, SVG Export Plug-In . SVG Version: 6.00 Build 0)  -->
<svg version="1.1" baseProfile="tiny" id="LOGO" xmlns="http://www.w3.org/2000/svg" xmlns:xlink="http://www.w3.org/1999/xlink"
	 x="0px" y="0px" viewBox="0 0 527.4 142.8" xml:space="preserve">
<g id="Logo">
	<path id="Inprogress" fill="#263640" d="M175.2,105.6l0.9,6.9l-10.8,0l0-32.4l-1.1-8.1l11.1-1.2L175.2,105.6z M170.1,54.5
		c2.9,0,5.4,2.5,5.4,5.6c0,3-2.5,5.4-5.4,5.4c-3.1,0-5.6-2.4-5.6-5.4C164.5,57,167.1,54.5,170.1,54.5z M211,112.6l0-23.4
		c0-7.5-0.8-10-4.9-10c-6.1,0-10,4.6-10,4.6l0,21.9l0.9,6.9l-10.8,0l0.1-32.3l-1.1-8.1l11.1-1.2l0,4.9c3.5-3.2,8.3-5,12.8-5
		c6.1,0,12.1,3.3,12.1,10.3l0,24.7l0.9,6.7L211,112.6z M231.8,80.2l-1.1-8.1l11.1-1.2l0,4.5c3.2-3,6.6-4.5,9.8-4.5
		c8.6,0,16,7.3,16,20.6c0,11.9-8.7,22.2-21.2,22.2c-1.4,0-3-0.2-4.7-0.3l0,11.6l0.9,6.9l-10.8,0L231.8,80.2z M241.7,82.5l0,23.6
		c0,0,2.8,0.3,5.9,0.3c5.1,0,9.2-6.2,9.3-14.3c0-8.8-3.6-13-7.9-13C244.5,79.1,241.7,82.5,241.7,82.5z M299.5,82.8
		c0,0-2.3-2.2-5.4-2.2c-4.2,0-9.2,5.1-9.2,11.4l0,13.8l0.9,6.9l-10.8,0l0-32.3l-1.1-8.1l11.1-1.2l0,7.3c0,0,3.9-7.5,10.9-7.4
		c2.5,0,4.7,1,6.7,3L299.5,82.8z M321,113.8c-12.2,0-18.5-10.7-18.5-20.8c0-12,7.6-22,21.3-22c10.5,0,18.4,6.4,18.4,20.6
		C342.2,103.5,334.4,113.8,321,113.8z M322.2,106.6c5.8,0,9.2-6.2,9.2-14.3c0-8-3.4-14.2-9.2-14.2c-5.8,0-9.2,6.2-9.2,14.2
		C313,100.4,316.5,106.6,322.2,106.6z M357.4,102.3c-1,1-1.7,2.2-1.7,3.1c0,6,27.1-3.5,27.1,13c0,9.5-10.6,13.9-20.6,13.9
		c-14.7,0-17.6-8.6-17.6-8.6l5.8-5.3c0,0,2.6,6.7,12.7,6.8c4.7,0,10.3-1.2,10.4-5.1c0-7.8-26.1,1.6-26.1-11.4c0-3.2,2.5-6.3,5-8.8
		c-3.5-2.3-6.6-7.2-6.6-12.3c0-9.4,7.3-16.4,17.5-16.4c3.3,0,7.1,1.6,7.9,2.3l1.4-1l11.7,0l-1.7,6.2l-5.6,0c1.9,2.4,2.7,5.3,2.7,8.4
		c0,9.6-7.6,16.2-17.4,16.2C359.1,103.1,357.4,102.3,357.4,102.3z M362.9,96.1c3.6,0,6.7-3.6,6.7-9c0-5.5-3-9.1-6.6-9.1
		c-3.6,0-6.9,3.6-6.9,9.1C356,92.5,359.2,96.1,362.9,96.1z M413.3,82.9c0,0-2.3-2.2-5.4-2.2c-4.2,0-9.1,5.1-9.2,11.4l0,13.8l0.9,6.9
		l-10.8,0l0-32.3l-1.1-8.1l11.1-1.2l0,7.3c0,0,4-7.5,10.9-7.4c2.5,0,4.7,1,6.7,3L413.3,82.9z M450.8,92.2l-1.9,1.9l-22.2,0
		c0.4,6.5,3.7,11.6,10,11.7c7,0,13.5-5.7,13.5-5.7l1.4,8.2c0,0-6.4,5.7-16.9,5.7c-12,0-18.3-10-18.3-20.3c0-11.7,5.7-22.5,19.1-22.4
		C449.6,71.2,450.6,86.2,450.8,92.2z M427.1,87l13.4,0c-0.2-3.9-1.6-9.1-5.8-9.1C430.2,78,427.9,82,427.1,87z M455.3,100.8
		c0,0,6.5,5.6,12.7,5.6c2.9,0,5.9-1.3,5.9-4c0-6.3-19.5-6.5-19.5-18.2c0-9.9,7.8-12.9,16-12.9c7.1,0,11.5,2.7,11.5,2.7l-1.9,8
		c0,0-4-3.6-11.3-3.6c-2.7,0-5.1,1.6-5.1,3.8c0,6.5,19.6,5.8,19.5,19.3c0,8.2-6,12.6-15.2,12.6c-9.1,0-13.6-4.8-13.6-4.8
		L455.3,100.8z M487.5,100.9c0,0,6.5,5.6,12.8,5.6c2.9,0,5.9-1.3,5.9-4c0-6.3-19.5-6.4-19.5-18.2c0-9.9,7.8-12.9,16-12.9
		c7.1,0,11.5,2.7,11.5,2.7l-1.9,8c0,0-4-3.6-11.3-3.6c-2.7,0-5.1,1.6-5.1,3.8c0,6.5,19.6,5.8,19.5,19.3c0,8.2-6,12.6-15.2,12.6
		c-9.1,0-13.6-4.8-13.6-4.8L487.5,100.9z M513.8,63.7c0-3.8,2.9-6.8,6.8-6.8c3.8,0,6.8,3,6.8,6.8c0,3.8-2.9,6.8-6.8,6.8
		C516.8,70.6,513.8,67.6,513.8,63.7z M526,63.7c0-3.1-2.3-5.4-5.3-5.4c-3,0-5.3,2.3-5.3,5.4c0,3.1,2.3,5.4,5.3,5.4
		C523.6,69.2,526,66.9,526,63.7z M518.1,67.5c-0.1,0-0.2-0.1-0.2-0.2v-7c0-0.2,0.1-0.2,0.2-0.2h2.9c1.7,0,2.8,0.8,2.8,2.3
		c0,1.1-0.5,1.8-1.4,2.1l1.5,2.8c0.1,0.1,0,0.2-0.2,0.2h-1.3c-0.1,0-0.2-0.1-0.3-0.2l-1.4-2.6h-1c-0.1,0-0.1,0.1-0.1,0.1v2.5
		c0,0.2-0.1,0.2-0.2,0.2H518.1z M522.2,62.3c0-0.6-0.4-0.9-1.1-0.9h-1.3c-0.1,0-0.1,0-0.1,0.1V63c0,0.1,0,0.1,0.1,0.1h1.3
		C521.8,63.1,522.2,62.9,522.2,62.3z"/>
	<g id="Symbol">
		<g>
			<path fill="#16B969" d="M35.7,133.2c10.5,6.1,22.7,9.6,35.7,9.6c39.4,0,71.4-32,71.4-71.4c0-13-3.5-25.2-9.6-35.7L120,43.3
				c4.8,8.2,7.5,17.8,7.5,28.1c0,31-25.1,56.1-56.1,56.1c-10.2,0-19.8-2.7-28.1-7.5L35.7,133.2z M71.4,0C32,0,0,32,0,71.4
				c0,13,3.5,25.2,9.6,35.7l13.2-7.6c-4.8-8.3-7.5-17.8-7.5-28c0-31,25.1-56.1,56.1-56.1V0z"/>
		</g>
		<g>
			<path fill="#16B969" d="M27.2,96.9c8.8,15.3,25.3,25.5,44.2,25.5c28.1,0,51.1-22.9,51.1-51c0-9.3-2.5-18-6.9-25.5l-13.2,7.7
				c3,5.2,4.8,11.4,4.8,17.9c0,19.8-16,35.7-35.8,35.7c-13.2,0-24.8-7.2-31-17.9L27.2,96.9z M71.4,35.6c6.5,0,12.6,1.7,17.9,4.8
				l7.6-13.2c-7.5-4.4-16.2-6.8-25.5-6.8l0,0c-28.1,0-51.1,22.9-51.1,51.1h15.3C35.6,51.6,51.6,35.6,71.4,35.6"/>
		</g>
		<g>
			<path fill="#16B969" d="M44.9,86.7c5.3,9.1,15.2,15.3,26.5,15.3c16.9,0,30.6-13.7,30.6-30.6H86.7c0,8.4-6.9,15.3-15.3,15.3
				c-5.7,0-10.6-3.1-13.3-7.7L44.9,86.7z M71.4,56.1c5.7,0,10.6,3.1,13.3,7.7l13.2-7.6c-5.3-9.1-15.2-15.3-26.5-15.3l0,0
				c-16.9,0-30.6,13.7-30.6,30.6h15.3C56.1,62.9,62.9,56.1,71.4,56.1"/>
		</g>
	</g>
</g>
</svg>
