<?xml version="1.0" encoding="utf-8"?>
<!-- Generator: Adobe Illustrator 19.2.1, SVG Export Plug-In . SVG Version: 6.00 Build 0)  -->
<svg version="1.1" id="Warstwa_1" xmlns="http://www.w3.org/2000/svg" xmlns:xlink="http://www.w3.org/1999/xlink" x="0px" y="0px"
	 viewBox="0 0 94 80" style="enable-background:new 0 0 94 80;" xml:space="preserve" width="93px" height="80px">
<style type="text/css">
	.st0{fill:url(#SVGID_1_);}
	.st1{fill:url(#SVGID_2_);}
	.st2{fill:url(#SVGID_3_);}
	.st3{fill:url(#SVGID_4_);}
	.st4{fill:url(#SVGID_5_);}
	.st5{fill:url(#SVGID_6_);}
	.st6{fill:url(#SVGID_7_);}
	.st7{fill:url(#SVGID_8_);}
	.st8{fill:url(#SVGID_9_);}
	.st9{fill:url(#SVGID_10_);}
	.st10{fill:url(#SVGID_11_);}
	.st11{fill:url(#SVGID_12_);}
	.st12{fill:url(#SVGID_13_);}
	.st13{fill:url(#SVGID_14_);}
	.st14{fill:url(#SVGID_15_);}
	.st15{fill:url(#SVGID_16_);}
	.st16{fill:#3D3D3C;}
	.st17{fill:url(#SVGID_17_);}
	.st18{fill:url(#SVGID_18_);}
	.st19{fill:url(#SVGID_19_);}
	.st20{fill:#942681;}
</style>
<g>
	<g>

			<radialGradient id="SVGID_1_" cx="46.6071" cy="40.3174" r="37.9944" gradientTransform="matrix(1 0 0 -1 0 81)" gradientUnits="userSpaceOnUse">
			<stop  offset="0" style="stop-color:#188BCB"/>
			<stop  offset="1" style="stop-color:#075DA9"/>
		</radialGradient>
		<path class="st0" d="M10.2,74.7l0.7,2.7c0.1,0.6,0.3,1.2,0.4,1.7h0c0.1-0.5,0.3-1.1,0.5-1.7l0.9-2.7h0.8l0.8,2.7
			c0.2,0.6,0.4,1.2,0.5,1.7h0c0.1-0.5,0.2-1.1,0.4-1.7l0.8-2.7h1L15.3,80h-0.9l-0.8-2.6c-0.2-0.6-0.3-1.1-0.5-1.8h0
			c-0.1,0.6-0.3,1.2-0.5,1.8L11.7,80h-0.9l-1.6-5.4L10.2,74.7L10.2,74.7z"/>

			<radialGradient id="SVGID_2_" cx="46.6071" cy="40.3175" r="37.9946" gradientTransform="matrix(1 0 0 -1 0 81)" gradientUnits="userSpaceOnUse">
			<stop  offset="0" style="stop-color:#188BCB"/>
			<stop  offset="1" style="stop-color:#075DA9"/>
		</radialGradient>
		<path class="st1" d="M24.2,76.4c0-0.6,0-1.2,0-1.7H25l0,1.1h0c0.2-0.7,0.8-1.2,1.5-1.2c0.1,0,0.2,0,0.3,0v0.9c-0.1,0-0.2,0-0.3,0
			c-0.7,0-1.2,0.5-1.3,1.2c0,0.1,0,0.3,0,0.4V80h-1V76.4z"/>

			<radialGradient id="SVGID_3_" cx="46.6072" cy="40.3176" r="37.9946" gradientTransform="matrix(1 0 0 -1 0 81)" gradientUnits="userSpaceOnUse">
			<stop  offset="0" style="stop-color:#188BCB"/>
			<stop  offset="1" style="stop-color:#075DA9"/>
		</radialGradient>
		<path class="st2" d="M38.9,77.3c0,2-1.4,2.8-2.7,2.8c-1.4,0-2.6-1.1-2.6-2.8c0-1.8,1.2-2.8,2.7-2.8C37.9,74.6,38.9,75.7,38.9,77.3
			z M34.7,77.4c0,1.2,0.7,2.1,1.6,2.1c0.9,0,1.6-0.9,1.6-2.1c0-0.9-0.4-2.1-1.6-2.1C35.2,75.3,34.7,76.4,34.7,77.4z"/>

			<radialGradient id="SVGID_4_" cx="46.6072" cy="40.3176" r="37.9947" gradientTransform="matrix(1 0 0 -1 0 81)" gradientUnits="userSpaceOnUse">
			<stop  offset="0" style="stop-color:#188BCB"/>
			<stop  offset="1" style="stop-color:#075DA9"/>
		</radialGradient>
		<path class="st3" d="M50.2,79.8c-0.3,0.1-0.8,0.3-1.5,0.3c-1.6,0-2.7-1.1-2.7-2.7c0-1.7,1.1-2.9,2.9-2.9c0.6,0,1.1,0.1,1.4,0.3
			L50,75.6c-0.2-0.1-0.6-0.2-1.1-0.2c-1.2,0-1.9,0.9-1.9,2c0,1.2,0.8,2,1.9,2c0.6,0,0.9-0.1,1.2-0.3L50.2,79.8z"/>

			<radialGradient id="SVGID_5_" cx="46.6073" cy="40.3175" r="37.9944" gradientTransform="matrix(1 0 0 -1 0 81)" gradientUnits="userSpaceOnUse">
			<stop  offset="0" style="stop-color:#188BCB"/>
			<stop  offset="1" style="stop-color:#075DA9"/>
		</radialGradient>
		<path class="st4" d="M57.6,80v-3.2l-0.8,0.6v-0.8l0.8-0.6v-3.9h1v3.1l0.8-0.7v0.8l-0.8,0.7v4H57.6z"/>

			<radialGradient id="SVGID_6_" cx="46.6073" cy="40.3176" r="37.9945" gradientTransform="matrix(1 0 0 -1 0 81)" gradientUnits="userSpaceOnUse">
			<stop  offset="0" style="stop-color:#188BCB"/>
			<stop  offset="1" style="stop-color:#075DA9"/>
		</radialGradient>
		<path class="st5" d="M70.2,78.7c0,0.5,0,0.9,0.1,1.3h-0.9l-0.1-0.7h0c-0.3,0.4-0.9,0.8-1.6,0.8c-1.1,0-1.6-0.8-1.6-1.5
			c0-1.3,1.2-2,3.2-2v-0.1c0-0.4-0.1-1.2-1.2-1.2c-0.5,0-1,0.1-1.4,0.4L66.4,75c0.4-0.3,1.1-0.5,1.8-0.5c1.6,0,2,1.1,2,2.2
			L70.2,78.7L70.2,78.7z M69.3,77.3c-1.1,0-2.3,0.2-2.3,1.2c0,0.6,0.4,0.9,0.9,0.9c0.7,0,1.2-0.4,1.3-0.9c0-0.1,0-0.2,0-0.3V77.3
			L69.3,77.3z"/>

			<radialGradient id="SVGID_7_" cx="46.6072" cy="40.3174" r="37.9945" gradientTransform="matrix(1 0 0 -1 0 81)" gradientUnits="userSpaceOnUse">
			<stop  offset="0" style="stop-color:#188BCB"/>
			<stop  offset="1" style="stop-color:#075DA9"/>
		</radialGradient>
		<path class="st6" d="M78.4,74.7l0.7,2.7c0.1,0.6,0.3,1.2,0.4,1.7h0c0.1-0.5,0.3-1.1,0.5-1.7l0.9-2.7h0.8l0.8,2.7
			c0.2,0.6,0.4,1.2,0.5,1.7h0c0.1-0.5,0.2-1.1,0.4-1.7l0.8-2.7h1L83.5,80h-0.9l-0.8-2.6c-0.2-0.6-0.3-1.1-0.5-1.8h0
			c-0.1,0.6-0.3,1.2-0.5,1.8L79.9,80H79l-1.6-5.4L78.4,74.7L78.4,74.7z"/>

			<radialGradient id="SVGID_8_" cx="46.607" cy="40.3174" r="37.9943" gradientTransform="matrix(1 0 0 -1 0 81)" gradientUnits="userSpaceOnUse">
			<stop  offset="0" style="stop-color:#188BCB"/>
			<stop  offset="1" style="stop-color:#075DA9"/>
		</radialGradient>
		<path class="st7" d="M5.8,67c-3.4,0-5.4-2.4-5.4-5.3c0-3,2.1-5.3,5.5-5.3c3.4,0,5.6,2.3,5.6,5.3V67H5.8z M8.7,64.4v-2.7
			c0-1.3-0.8-2.7-2.8-2.7s-2.7,1.4-2.7,2.7c0,1.4,0.9,2.7,2.9,2.7H8.7z"/>

			<radialGradient id="SVGID_9_" cx="46.6072" cy="40.3174" r="37.9945" gradientTransform="matrix(1 0 0 -1 0 81)" gradientUnits="userSpaceOnUse">
			<stop  offset="0" style="stop-color:#188BCB"/>
			<stop  offset="1" style="stop-color:#075DA9"/>
		</radialGradient>
		<path class="st8" d="M21.4,67h-2.8c-3.4,0-5.4-2.5-5.4-5.5s2.1-5.3,5.5-5.3c3.4,0,5.6,2.3,5.6,5.3v10.1h-2.8L21.4,67L21.4,67z
			 M21.4,64.4v-2.9c0-1.3-0.8-2.7-2.8-2.7s-2.7,1.5-2.7,2.8c0,1.3,0.9,2.8,2.9,2.8H21.4z"/>

			<radialGradient id="SVGID_10_" cx="46.6071" cy="40.3174" r="37.9945" gradientTransform="matrix(1 0 0 -1 0 81)" gradientUnits="userSpaceOnUse">
			<stop  offset="0" style="stop-color:#188BCB"/>
			<stop  offset="1" style="stop-color:#075DA9"/>
		</radialGradient>
		<path class="st9" d="M26.1,56.4h2.8v5.8c0,1.7,0.9,2.7,2.3,2.7c1.3,0,2.3-1,2.3-2.7v-5.8h2.8v6.2c0,2.5-2.1,4.6-5.1,4.6
			c-3,0-5-2.1-5-4.6L26.1,56.4L26.1,56.4z"/>

			<radialGradient id="SVGID_11_" cx="46.6073" cy="40.3174" r="37.9944" gradientTransform="matrix(1 0 0 -1 0 81)" gradientUnits="userSpaceOnUse">
			<stop  offset="0" style="stop-color:#188BCB"/>
			<stop  offset="1" style="stop-color:#075DA9"/>
		</radialGradient>
		<path class="st10" d="M43.3,67c-3.4,0-5.4-2.4-5.4-5.3c0-3,2.1-5.3,5.5-5.3c3.4,0,5.6,2.3,5.6,5.3V67H43.3z M46.1,64.4v-2.7
			c0-1.3-0.8-2.7-2.8-2.7c-2,0-2.7,1.4-2.7,2.7c0,1.4,0.9,2.7,2.9,2.7H46.1z"/>

			<radialGradient id="SVGID_12_" cx="46.6072" cy="40.3174" r="37.9946" gradientTransform="matrix(1 0 0 -1 0 81)" gradientUnits="userSpaceOnUse">
			<stop  offset="0" style="stop-color:#188BCB"/>
			<stop  offset="1" style="stop-color:#075DA9"/>
		</radialGradient>
		<path class="st11" d="M50.9,61.4c0-3,2.2-5.3,5.6-5.3c3.4,0,5.5,2.4,5.5,5.3S59.9,67,56.5,67h-2.8v4.5h-2.8L50.9,61.4L50.9,61.4z
			 M56.3,64.4c2,0,2.9-1.5,2.9-2.8s-0.7-2.8-2.7-2.8s-2.8,1.4-2.8,2.7v2.9H56.3z"/>

			<radialGradient id="SVGID_13_" cx="46.6073" cy="40.3174" r="37.9945" gradientTransform="matrix(1 0 0 -1 0 81)" gradientUnits="userSpaceOnUse">
			<stop  offset="0" style="stop-color:#188BCB"/>
			<stop  offset="1" style="stop-color:#075DA9"/>
		</radialGradient>
		<path class="st12" d="M68.7,67c-3.4,0-5.4-2.4-5.4-5.3c0-3,2.1-5.3,5.5-5.3s5.6,2.3,5.6,5.3V67H68.7z M71.6,64.4v-2.7
			c0-1.3-0.8-2.7-2.8-2.7s-2.7,1.4-2.7,2.7c0,1.4,0.9,2.7,2.9,2.7H71.6z"/>

			<radialGradient id="SVGID_14_" cx="46.6073" cy="40.3174" r="37.9946" gradientTransform="matrix(1 0 0 -1 0 81)" gradientUnits="userSpaceOnUse">
			<stop  offset="0" style="stop-color:#188BCB"/>
			<stop  offset="1" style="stop-color:#075DA9"/>
		</radialGradient>
		<path class="st13" d="M76.3,61c0-2.5,1.9-4.6,5.1-4.6v2.5c-1.3,0-2.3,0.8-2.3,2.5V67h-2.7V61z"/>

			<radialGradient id="SVGID_15_" cx="46.6072" cy="40.3176" r="37.9946" gradientTransform="matrix(1 0 0 -1 0 81)" gradientUnits="userSpaceOnUse">
			<stop  offset="0" style="stop-color:#188BCB"/>
			<stop  offset="1" style="stop-color:#075DA9"/>
		</radialGradient>
		<path class="st14" d="M83.1,51.8h2.8v8.8l4.3-4.3h3.2l-4.7,4.8l5.4,5.8h-3.4l-3.8-3.9l-1,0.9v3h-2.8L83.1,51.8L83.1,51.8z"/>

			<radialGradient id="SVGID_16_" cx="46.6071" cy="40.3175" r="37.9946" gradientTransform="matrix(1 0 0 -1 0 81)" gradientUnits="userSpaceOnUse">
			<stop  offset="0" style="stop-color:#188BCB"/>
			<stop  offset="1" style="stop-color:#075DA9"/>
		</radialGradient>
		<path class="st15" d="M45.2,45.8c15,0,30.7,1.3,45.2,4.5c-7.8-4.2-24.6-7.1-44.1-7.1c-18.2,0-34,2.5-42.4,6.2
			C17.4,46.8,31.5,45.8,45.2,45.8z"/>
	</g>
	<g>
		<g>
			<path class="st16" d="M18.1,18c-1.3,2.9-1.9,6.1-1.9,9.4c0.1,5.1,1.9,9.9,5,13.9c16.5,3.3,33.7-15.1,56.2-0.6
				c0.1-1.5,0.1-2.8,0.1-3.6C54.8,19.3,34.7,39.2,18.1,18z"/>
			<path class="st16" d="M37.5,2.7C33.2,4,29.3,6,26.1,8.6c11,23.1,33.5,5.9,51.9,26.1c0-1.1-0.1-3.2-0.3-4.6
				C63.6,15,47.9,18.9,37.5,2.7z"/>
			<path class="st16" d="M77.6,27.3c-0.1-2.1-0.7-4.8-1.4-6c-4.7-7.9-13.3-9.6-17.8-19c-3-0.8-7.9-1.6-11.1-1.5
				c-0.8,0-1.1,0-1.9,0.1C50.3,14.4,70.1,16.2,77.6,27.3z"/>
		</g>
		<g>

				<radialGradient id="SVGID_17_" cx="47.054" cy="52.158" r="23.1804" gradientTransform="matrix(1 0 0 -1 0 81)" gradientUnits="userSpaceOnUse">
				<stop  offset="0" style="stop-color:#F3964D"/>
				<stop  offset="1" style="stop-color:#E7502C"/>
			</radialGradient>
			<path class="st17" d="M18.5,17c-1.3,2.9-2,6-2,9.3c0,5.1,1.7,9.9,4.8,14c16.5,3.5,33.9-14.5,56.2,0.4c0.2-1.5,0.1-2.8,0.2-3.6
				C55.2,18.9,34.8,38.5,18.5,17z"/>

				<radialGradient id="SVGID_18_" cx="52.1807" cy="62.6514" r="21.5419" gradientTransform="matrix(1 0 0 -1 0 81)" gradientUnits="userSpaceOnUse">
				<stop  offset="0" style="stop-color:#A964A6"/>
				<stop  offset="1" style="stop-color:#942681"/>
			</radialGradient>
			<path class="st18" d="M37.9,2c-4.3,1.2-8.2,3.1-11.5,5.7c10.6,23.3,33.4,6.5,51.4,27c0.1-1.1,0-3.2-0.3-4.6
				C63.9,14.8,48,18.3,37.9,2z"/>

				<radialGradient id="SVGID_19_" cx="61.686" cy="67.2895" r="14.7802" gradientTransform="matrix(1 0 0 -1 0 81)" gradientUnits="userSpaceOnUse">
				<stop  offset="0" style="stop-color:#188BCB"/>
				<stop  offset="1" style="stop-color:#075DA9"/>
			</radialGradient>
			<path class="st19" d="M77.6,27.3c0-2.1-0.7-4.8-1.3-6.1c-4.6-8-13.1-9.8-17.5-19.3C55.9,1.1,51,0.2,47.7,0.2c-0.8,0-1.1,0-1.9,0
				C50.6,14,70.3,16.1,77.6,27.3z"/>
		</g>
		<path class="st20" d="M77.7,30.2"/>
	</g>
</g>
</svg>
