<?xml version="1.0" encoding="utf-8"?>
<!-- Generator: Adobe Illustrator 24.0.2, SVG Export Plug-In . SVG Version: 6.00 Build 0)  -->
<svg version="1.1" id="Warstwa_1" xmlns="http://www.w3.org/2000/svg" xmlns:xlink="http://www.w3.org/1999/xlink" x="0px" y="0px"
	 viewBox="0 0 708.66 97.5" style="enable-background:new 0 0 708.66 97.5;" xml:space="preserve">
<path d="M634.71,25.96c6.64,0.09,6.64,3.5,6.64,5.44v22.05h-6.64v6.09h6.64v20.11h10.88V31.4c0-2.49,0-5.07-3.96-8.3
	c-4.06-3.14-10.7-3.5-13.37-3.5c-0.09,0-0.09,0-0.19,0V25.96z M628.06,53.44V31.4c0-1.94,0-5.44,6.64-5.44l0,0v-6.37
	c-7.84,0.09-17.52,2.95-17.52,11.81v30.17v5.99v12.09h10.88V59.53h6.64v-6.09H628.06L628.06,53.44z M414.61,59.99v-6h6.64V31.4
	c0-1.94,0-5.44-6.64-5.44v-6.37c0.09,0,0.09,0,0.18,0c2.68,0,9.32,0.37,13.47,3.5c3.87,3.23,3.87,5.81,3.87,8.3v48.25h-10.88V59.99
	H414.61L414.61,59.99z M543.66,67.56v12.09h10.88V59.99h8.49l12.64,19.65h12.82l-17.16-25.83l15.5-32.75H575.3L561,52.52
	c-0.37,0.92-5.16,0.55-6.46,1.1V21.07h-10.88v40.5V67.56L543.66,67.56z M481.21,79.64V41.36L494.03,54v25.65h11.07V21.07h-11.07
	v21.31l-23.71-24.35v61.62H481.21z M414.61,19.59v6.37l0,0c-6.64,0-6.64,3.5-6.64,5.44V54h6.64v6h-6.64v19.65h-10.89V67.56v-5.99
	V31.4C397.09,22.54,406.87,19.59,414.61,19.59L414.61,19.59z M161.59,81.12v-5.63c0.09,0,0.18,0,0.28,0c6.73,0,6.73-3.5,6.73-5.35
	V36.47c0-1.85,0-5.44-6.92-5.44c0,0,0,0-0.09,0v-4.89c12.64,0.09,17.89,5.72,17.89,10.33v34.5c0,8.58-12.73,10.15-17.62,10.15
	C161.77,81.12,161.68,81.12,161.59,81.12L161.59,81.12z M365.35,79.64v-6.37h-20.39l21.96-52.21h-33.3v6.46h19.37l-22.05,52.12
	H365.35L365.35,79.64z M297,79.64c-18.91-19.19-20.94-43.17-0.09-58.76h-13.74c-17.16,14.3-14.94,41.05-0.18,58.76H297L297,79.64z
	 M246.54,73.28h-12.18c-6.27,0-6.36-0.74-6.36-4.61v-47.6h-11.07v47.6c0,2.95,0,5.16,3.51,7.93c2.86,2.4,7.65,3.05,13.93,3.05h12.18
	V73.28L246.54,73.28z M164.08,16.82h9.5l-2.4,5.72h-9.5L164.08,16.82z M161.59,26.14v4.89c-6.92,0-6.92,3.69-6.92,5.44v33.67
	c0,2.03,0,5.26,6.92,5.35v5.63c-8.67,0-17.8-3.13-17.8-10.15v-34.5c0-6.83,9.13-10.33,17.71-10.33
	C161.59,26.14,161.59,26.14,161.59,26.14L161.59,26.14z M118.88,21.07h-11.25l-8.95,30.99L87.79,18.48L77.28,52.06l-9.13-30.99
	H56.43L77.28,83.7l10.33-33.48L99.14,83.7L118.88,21.07z"/>
</svg>
