<?xml version="1.0" encoding="UTF-8" standalone="no"?>
<!DOCTYPE svg PUBLIC "-//W3C//DTD SVG 1.1//EN" "http://www.w3.org/Graphics/SVG/1.1/DTD/svg11.dtd">
<svg width="100%" height="100%" viewBox="0 0 2463 546" version="1.1" xmlns="http://www.w3.org/2000/svg" xmlns:xlink="http://www.w3.org/1999/xlink" xml:space="preserve" xmlns:serif="http://www.serif.com/" style="fill-rule:evenodd;clip-rule:evenodd;stroke-linejoin:round;stroke-miterlimit:2;">
    <g transform="matrix(4.16667,0,0,4.16667,0,0)">
        <path d="M47.385,60.55L54.594,60.55C56.288,60.55 57.813,60.381 59.17,60.042C60.525,59.703 61.688,59.126 62.659,58.309C63.629,57.493 64.376,56.407 64.9,55.051C65.424,53.695 65.686,52.016 65.686,50.013C65.686,47.518 65.031,45.754 63.722,44.722C62.412,43.69 60.386,43.173 57.645,43.173L49.511,43.173L47.385,60.55ZM46.183,70.533L44.057,87.956L53.947,87.956C55.796,87.956 57.351,87.686 58.615,87.147C59.878,86.608 60.903,85.853 61.688,84.882C62.474,83.912 63.044,82.78 63.398,81.486C63.752,80.192 63.93,78.775 63.93,77.234C63.93,76.217 63.798,75.293 63.537,74.461C63.275,73.629 62.828,72.929 62.197,72.358C61.565,71.788 60.733,71.341 59.701,71.018C58.668,70.694 57.398,70.533 55.888,70.533L46.183,70.533ZM27.605,99.279L35.924,31.943L59.031,31.943C62.943,31.943 66.294,32.313 69.083,33.052C71.871,33.792 74.15,34.848 75.923,36.218C77.694,37.589 78.988,39.238 79.805,41.163C80.62,43.089 81.029,45.223 81.029,47.564C81.029,49.413 80.79,51.192 80.313,52.902C79.835,54.612 79.08,56.191 78.048,57.639C77.016,59.087 75.683,60.404 74.051,61.59C72.417,62.776 70.446,63.77 68.135,64.571C71.77,65.557 74.459,67.09 76.2,69.169C77.94,71.249 78.811,73.876 78.811,77.049C78.811,80.161 78.217,83.065 77.032,85.76C75.845,88.457 74.127,90.806 71.879,92.809C69.629,94.811 66.895,96.39 63.675,97.546C60.456,98.701 56.813,99.279 52.746,99.279L27.605,99.279Z" style="fill:rgb(19,117,188);fill-rule:nonzero;"/>
        <path d="M133.806,61.659C133.806,58.886 133.475,56.368 132.812,54.103C132.15,51.839 131.179,49.898 129.901,48.28C128.621,46.663 127.059,45.415 125.21,44.537C123.362,43.659 121.266,43.22 118.925,43.22C115.844,43.22 113.086,43.859 110.652,45.138C108.218,46.417 106.146,48.211 104.437,50.522C102.727,52.832 101.417,55.613 100.508,58.863C99.599,62.114 99.144,65.711 99.144,69.654C99.144,72.428 99.468,74.939 100.116,77.188C100.763,79.437 101.71,81.363 102.958,82.965C104.205,84.567 105.754,85.807 107.602,86.685C109.451,87.563 111.561,88.002 113.934,88.002C117.014,88.002 119.78,87.371 122.229,86.107C124.679,84.844 126.758,83.057 128.468,80.746C130.177,78.435 131.495,75.662 132.419,72.428C133.344,69.193 133.806,65.604 133.806,61.659ZM149.242,61.29C149.242,64.925 148.818,68.407 147.971,71.734C147.123,75.062 145.922,78.158 144.366,81.023C142.81,83.889 140.93,86.493 138.728,88.834C136.525,91.175 134.052,93.171 131.311,94.819C128.567,96.468 125.595,97.746 122.391,98.654C119.186,99.563 115.813,100.018 112.27,100.018C107.833,100.018 103.851,99.24 100.323,97.684C96.795,96.128 93.799,94.003 91.334,91.306C88.869,88.611 86.982,85.437 85.673,81.786C84.363,78.135 83.709,74.2 83.709,69.978C83.709,66.343 84.132,62.854 84.98,59.51C85.827,56.168 87.028,53.063 88.584,50.198C90.14,47.333 92.027,44.73 94.246,42.388C96.464,40.047 98.944,38.052 101.687,36.403C104.428,34.755 107.401,33.476 110.606,32.567C113.81,31.659 117.199,31.204 120.774,31.204C125.179,31.204 129.145,31.982 132.674,33.538C136.201,35.094 139.19,37.228 141.64,39.939C144.089,42.65 145.968,45.839 147.278,49.505C148.587,53.172 149.242,57.1 149.242,61.29Z" style="fill:rgb(19,117,188);fill-rule:nonzero;"/>
        <path d="M167.635,87.263L190.28,87.263L188.801,99.279L151.09,99.279L159.409,31.943L174.474,31.943L167.635,87.263Z" style="fill:rgb(19,117,188);fill-rule:nonzero;"/>
        <path d="M239.73,31.943L238.159,43.867L221.06,43.867L214.22,99.279L199.246,99.279L205.993,43.867L188.801,43.867L190.281,31.943L239.73,31.943Z" style="fill:rgb(19,117,188);fill-rule:nonzero;"/>
        <path d="M275.037,75.662C275.529,74.646 276.046,73.645 276.585,72.659C277.124,71.673 277.686,70.687 278.271,69.701L298.884,34.254C299.499,33.207 300.27,32.56 301.194,32.313C302.118,32.067 303.012,31.943 303.875,31.943L315.706,31.943L307.387,99.279L294.169,99.279L298.884,60.088C298.976,59.256 299.122,58.34 299.323,57.338C299.523,56.337 299.746,55.298 299.993,54.219L279.75,88.972C279.134,90.02 278.333,90.798 277.348,91.306C276.361,91.814 275.283,92.069 274.112,92.069L272.079,92.069C270.908,92.069 269.884,91.807 269.006,91.283C268.128,90.76 267.519,89.989 267.18,88.972L255.349,54.126C255.287,55.174 255.234,56.191 255.187,57.177C255.141,58.163 255.072,59.056 254.98,59.857L250.358,99.279L237.048,99.279L245.367,31.99L258.538,31.99C259.031,31.99 259.47,32.059 259.855,32.198C260.239,32.337 260.571,32.561 260.849,32.869C261.126,33.177 261.357,33.624 261.542,34.21L273.373,69.694C274.02,71.638 274.574,73.628 275.037,75.662Z" style="fill:rgb(19,117,188);fill-rule:nonzero;"/>
        <path d="M337.658,73.629L354.572,73.629L351.291,54.404C351.014,52.802 350.714,51.177 350.39,49.528C350.067,47.88 349.797,46.378 349.581,45.022C349.334,45.761 349.011,46.601 348.611,47.541C348.21,48.481 347.817,49.397 347.432,50.29C347.047,51.185 346.677,52.016 346.324,52.786C345.969,53.557 345.714,54.126 345.561,54.496L337.658,73.629ZM374.584,99.279L362.937,99.279C361.643,99.279 360.604,98.978 359.818,98.377C359.033,97.776 358.562,96.983 358.408,95.997L356.329,83.889L333.453,83.889L328.461,95.997C328.122,96.86 327.46,97.623 326.474,98.285C325.488,98.948 324.394,99.279 323.193,99.279L311.362,99.279L343.527,31.943L358.963,31.943L374.584,99.279Z" style="fill:rgb(19,117,188);fill-rule:nonzero;"/>
        <path d="M396.281,32.013C396.727,32.059 397.128,32.167 397.483,32.336C397.836,32.506 398.153,32.745 398.43,33.052C398.707,33.361 398.984,33.762 399.262,34.254L422.878,75.848C422.939,74.769 423.031,73.737 423.155,72.751C423.277,71.765 423.386,70.841 423.479,69.978L428.007,31.943L441.317,31.943L432.999,99.279L425.142,99.279C423.971,99.279 423,99.11 422.23,98.77C421.46,98.431 420.798,97.769 420.243,96.783L396.72,55.236C396.658,56.099 396.589,56.93 396.512,57.731C396.434,58.533 396.366,59.287 396.304,59.996L391.683,99.279L378.373,99.279L386.691,31.943L394.64,31.943C395.288,31.943 395.834,31.966 396.281,32.013Z" style="fill:rgb(19,117,188);fill-rule:nonzero;"/>
        <path d="M11.883,123.078C9.699,123.078 7.922,121.301 7.922,119.116L7.922,12.105C7.922,9.921 9.699,8.144 11.883,8.144L457.039,8.144C459.223,8.144 461,9.921 461,12.105L461,119.116C461,121.301 459.223,123.078 457.039,123.078L11.883,123.078ZM578.738,0.221L11.883,0.221C5.331,0.221 0,5.553 0,12.105L0,119.116C0,125.669 5.331,131 11.883,131L578.738,131C585.29,131 590.621,125.669 590.621,119.116L590.621,12.105C590.621,5.553 585.29,0.221 578.738,0.221Z" style="fill:rgb(20,117,187);fill-rule:nonzero;"/>
        <path d="M529.046,88.006C515.202,89.098 503.736,77.632 504.828,63.788C505.686,52.897 514.51,44.074 525.4,43.216C539.244,42.124 550.71,53.591 549.618,67.434C548.76,78.325 539.936,87.148 529.046,88.006ZM551.382,23.766L503.064,23.766L478.905,65.611L503.064,107.455L551.382,107.455L575.541,65.611L551.382,23.766Z" style="fill:white;fill-rule:nonzero;"/>
    </g>
</svg>
