<?xml version="1.0" encoding="utf-8"?>
<!-- Generator: Adobe Illustrator 22.0.0, SVG Export Plug-In . SVG Version: 6.00 Build 0)  -->
<svg version="1.1" xmlns="http://www.w3.org/2000/svg" xmlns:xlink="http://www.w3.org/1999/xlink" x="0px" y="0px"
	 viewBox="0 0 185.3 103.7" style="enable-background:new 0 0 185.3 103.7;" xml:space="preserve">
<style type="text/css">
	.st0{fill:#1B4E9B;}
	.st1{fill-rule:evenodd;clip-rule:evenodd;fill:#FFFFFF;}
	.st2{fill-rule:evenodd;clip-rule:evenodd;fill:#231F20;}
	.st3{fill-rule:evenodd;clip-rule:evenodd;fill:#242528;}
	.st4{fill:#00467F;}
	.st5{fill:#F99D31;}
	.st6{fill:#FF7100;}
	.st7{fill-rule:evenodd;clip-rule:evenodd;fill:#FF7100;}
	.st8{fill:none;stroke:#FFFFFF;stroke-width:0.4607;stroke-miterlimit:3.8637;}
	.st9{fill:#FFFFFF;}
	.st10{fill-rule:evenodd;clip-rule:evenodd;}
</style>
<g id="Warstwa_1">
</g>
<g id="Warstwa_2">
</g>
<g id="Warstwa_5">
</g>
<g id="Warstwa_4">
</g>
<g id="Warstwa_3">
	<g id="Warstwa_x0020_1_1_">
		<path class="st0" d="M97.5,41.5c0-3.7-3.1-6.8-6.8-6.8l0,0H62.3v7.6h26.4c0.5,0,0.8,0.4,0.8,0.8v18.5c0,0.5-0.4,0.8-0.8,0.8H71.1
			c-0.5,0-0.8-0.4-0.8-0.8l0,0V48.4h-7.9v21.7c0,0,28.4,0,28.4,0c3.8,0,6.8-3.1,6.8-6.8V41.5z"/>
		<path class="st0" d="M142.6,41.5c0-3.8-3.1-6.8-6.8-6.8c0,0,0,0-0.1,0l0,0h-30.4v35.4h7.9V43.2c0-0.5,0.4-0.8,0.8-0.8h19.7
			c0.5,0,0.8,0.4,0.8,0.8v5.2c0,0.5-0.4,0.8-0.8,0.8h-13.6v7.6h15.6l0,0c3.7,0,6.8-3.1,6.8-6.8V41.5z"/>
		<path class="st0" d="M34.6,44.5v-3.4c2.6,2.9,4.3,6.7,4.3,11C38.2,49.2,36.6,46.6,34.6,44.5z M29.4,91.3L12.2,76.3v-5
			c2.5,1.1,5.4,1.8,8.3,1.8c3,0,5.2-9.3,5.2-20.8s-2.2-20.8-5.2-20.8c-3,0-5.8,0.7-8.3,1.8v-6.3l17.1-14.8V91.3z M4.5,55.4
			c0,0,0,0.1,0,0.1c0,0.2,0,0.5,0,0.7c0,0,0,0,0,0.1v0C4,54.6,3.8,52.7,4,50.8c0.7-8.3,7.6-14.6,15.7-15.1c0.4,0.7,0.8,1.8,1.1,3.1
			C12,39.5,5,46.6,4.5,55.4L4.5,55.4z M34.6,36.2V0L8.1,25.2v10.8C3.2,39.7,0,45.7,0,52.4S3.2,65,8.1,68.8v9.7l26.6,25.2V68.6
			c4.8-3.8,7.8-9.6,7.8-16.2S39.4,40,34.6,36.2L34.6,36.2z"/>
		<path class="st0" d="M178.5,70.1h-31.1v-7.6h29.2c0.5,0,0.8-0.4,0.8-0.8v-5.2c0-0.5-0.4-0.8-0.8-0.8h-21.6h0
			c-3.8,0-6.8-3.1-6.8-6.8l0,0v-7.2l0,0c0,0,0,0,0-0.1c0-3.7,3.1-6.8,6.8-6.8h29.6v7.6h-27.7l0,0c-0.5,0-0.8,0.4-0.8,0.8v4.8
			c0,0.5,0.4,0.8,0.8,0.8h21.7c3.8,0,6.8,3.1,6.8,6.8v7.7C185.3,67,182.2,70.1,178.5,70.1L178.5,70.1z"/>
	</g>
</g>
</svg>
